{"glyphs":{"0":{"ha":725,"x_min":121,"x_max":607,"o":"m 364 926 q 536 856 465 926 q 607 683 607 785 l 607 243 q 565 108 607 169 q 364 0 496 0 q 193 71 264 0 q 121 243 121 142 l 121 683 q 163 817 121 756 q 364 926 233 926 m 364 44 q 514 114 451 44 l 185 769 q 165 683 165 728 l 165 243 q 224 103 165 161 q 364 44 282 44 m 561 683 q 504 824 561 765 q 364 882 446 882 q 214 813 274 882 l 542 156 q 561 243 561 197 l 561 683 z "},"1":{"ha":725,"x_min":121,"x_max":606,"o":"m 606 44 l 606 0 l 121 0 l 121 44 l 342 44 l 342 811 l 163 453 l 124 472 l 350 926 l 386 926 l 386 44 l 606 44 z "},"2":{"ha":725,"x_min":101,"x_max":606,"o":"m 101 0 l 561 690 q 501 826 560 771 q 364 882 444 882 q 224 824 282 882 q 165 683 165 765 l 121 683 q 193 856 121 783 q 364 926 264 926 q 535 856 464 926 q 606 683 606 783 l 606 676 l 185 44 l 606 44 l 606 0 l 101 0 z "},"3":{"ha":725,"x_min":121,"x_max":619,"o":"m 397 482 q 546 403 486 469 q 606 243 606 335 q 535 72 606 143 q 364 0 464 0 q 193 72 264 0 q 121 243 121 143 l 165 243 q 224 103 165 161 q 364 44 282 44 q 504 103 446 44 q 563 243 563 161 q 504 383 563 325 q 364 440 446 440 l 328 440 l 549 882 l 121 882 l 121 926 l 619 926 l 397 482 z "},"4":{"ha":725,"x_min":121,"x_max":606,"o":"m 606 926 l 606 0 l 563 0 l 563 440 l 121 440 l 121 926 l 165 926 l 165 485 l 563 485 l 563 926 l 606 926 z "},"5":{"ha":725,"x_min":121,"x_max":606,"o":"m 364 485 q 535 414 464 485 q 606 243 606 343 q 535 72 606 143 q 364 0 464 0 q 193 72 264 0 q 121 243 121 143 l 165 243 q 224 103 165 161 q 364 44 282 44 q 504 103 446 44 q 563 243 563 161 q 504 383 563 325 q 364 440 446 440 l 121 440 l 121 926 l 583 926 l 583 882 l 165 882 l 165 485 l 364 485 z "},"6":{"ha":725,"x_min":121,"x_max":606,"o":"m 364 486 q 535 415 464 486 q 606 243 606 344 q 535 72 606 143 q 364 1 464 1 q 192 72 263 1 q 121 243 121 143 l 121 683 q 192 856 121 785 q 364 928 263 928 q 535 856 464 928 q 606 683 606 785 l 561 683 q 503 825 561 765 q 364 883 444 883 q 222 825 282 883 q 164 683 164 765 l 164 382 q 364 486 238 486 m 364 44 q 503 103 444 44 q 561 243 561 161 q 503 383 561 325 q 364 442 446 442 q 222 383 282 442 q 164 243 164 325 q 222 103 164 161 q 364 44 282 44 z "},"7":{"ha":725,"x_min":121,"x_max":619,"o":"m 619 926 l 157 0 l 121 28 l 549 882 l 121 882 l 121 926 l 619 926 z "},"8":{"ha":725,"x_min":121,"x_max":606,"o":"m 463 463 q 565 376 526 433 q 606 243 606 315 q 535 72 606 143 q 363 0 463 0 q 192 72 263 0 q 121 243 121 143 q 161 376 121 315 q 263 463 199 433 q 161 550 199 492 q 121 683 121 611 q 192 856 121 783 q 363 926 263 926 q 535 856 463 926 q 606 683 606 783 q 565 550 606 611 q 463 463 526 492 m 164 683 q 222 543 164 601 q 363 485 281 485 q 503 543 444 485 q 561 683 561 601 q 503 824 561 765 q 363 882 444 882 q 222 824 281 882 q 164 683 164 765 m 363 44 q 503 103 444 44 q 561 243 561 161 q 503 383 561 325 q 363 442 444 442 q 222 383 281 442 q 164 243 164 325 q 222 103 164 161 q 363 44 281 44 z "},"9":{"ha":725,"x_min":121,"x_max":606,"o":"m 363 926 q 535 856 463 926 q 606 685 606 785 l 606 243 q 535 72 606 143 q 363 1 463 1 q 192 72 263 1 q 121 243 121 143 l 164 243 q 222 103 164 161 q 363 46 281 46 q 503 103 444 46 q 561 243 561 161 l 561 546 q 363 442 488 442 q 192 514 263 442 q 121 685 121 585 q 192 856 121 785 q 363 926 263 926 m 363 486 q 503 544 444 486 q 561 685 561 603 q 503 825 561 767 q 363 883 444 883 q 222 825 281 883 q 164 685 164 767 q 222 544 164 603 q 363 486 281 486 z "},"\u0000":{"ha":0,"x_min":0,"x_max":0,"o":""},"\u001d":{"ha":0,"x_min":0,"x_max":0,"o":""}," ":{"ha":725,"x_min":0,"x_max":0,"o":""},"!":{"ha":725,"x_min":342,"x_max":386,"o":"m 342 926 l 386 926 l 386 243 l 342 243 l 342 926 m 342 44 l 386 44 l 386 0 l 342 0 l 342 44 z "},"\"":{"ha":725,"x_min":297,"x_max":429,"o":"m 297 926 l 342 926 l 342 838 l 297 838 l 297 926 m 386 926 l 429 926 l 429 838 l 386 838 l 386 926 z "},"$":{"ha":725,"x_min":121,"x_max":606,"o":"m 386 483 q 542 407 479 475 q 606 243 606 338 q 535 72 606 143 q 364 0 464 0 q 193 72 264 0 q 121 243 121 143 l 165 243 q 217 111 165 168 q 342 46 267 54 l 342 443 q 185 519 249 451 q 121 683 121 589 q 193 856 121 783 q 364 926 264 926 q 535 856 464 926 q 606 683 606 783 l 563 683 q 511 815 563 758 q 386 879 461 871 l 386 483 m 342 879 q 217 815 267 871 q 165 683 165 758 q 217 551 165 608 q 342 488 267 496 l 342 879 m 386 46 q 511 111 461 54 q 563 243 563 168 q 511 375 563 318 q 386 439 461 431 l 386 46 z "},"%":{"ha":725,"x_min":121,"x_max":607,"o":"m 603 893 l 164 13 l 124 32 l 564 914 l 603 893 m 474 265 q 568 226 528 265 q 607 132 607 186 q 568 39 607 78 q 474 0 528 0 q 381 39 419 0 q 342 132 342 78 q 381 226 342 186 q 474 265 419 265 m 474 44 q 536 69 510 44 q 561 132 561 96 q 536 194 561 168 q 474 219 510 219 q 411 194 438 219 q 386 132 386 168 q 411 69 386 96 q 474 44 438 44 m 253 661 q 160 701 199 661 q 121 794 121 740 q 160 888 121 849 q 253 926 199 926 q 347 888 307 926 q 386 794 386 849 q 347 701 386 740 q 253 661 307 661 m 253 882 q 190 857 217 882 q 165 794 165 831 q 190 732 165 758 q 253 706 217 706 q 315 732 289 706 q 342 794 342 758 q 315 857 342 831 q 253 882 289 882 z "},"'":{"ha":725,"x_min":342,"x_max":386,"o":"m 342 926 l 386 926 l 386 838 l 342 838 l 342 926 z "},"(":{"ha":725,"x_min":121,"x_max":607,"o":"m 607 0 l 364 0 q 192 72 264 0 q 121 243 121 143 l 121 685 q 192 856 121 785 q 364 926 264 926 l 607 926 l 607 882 l 364 882 q 224 824 282 882 q 165 685 165 767 l 165 243 q 224 103 165 161 q 364 44 282 44 l 607 44 l 607 0 z "},")":{"ha":725,"x_min":121,"x_max":607,"o":"m 364 0 l 121 0 l 121 44 l 364 44 q 504 103 446 44 q 563 243 563 161 l 563 685 q 504 824 563 767 q 364 882 446 882 l 121 882 l 121 926 l 364 926 q 535 856 464 926 q 607 685 607 785 l 607 243 q 535 72 607 143 q 364 0 464 0 z "},"*":{"ha":725,"x_min":238,"x_max":489,"o":"m 394 793 l 489 699 l 457 668 l 385 740 l 385 661 l 340 661 l 340 740 l 268 668 l 238 699 l 332 793 l 238 889 l 268 919 l 340 847 l 340 926 l 385 926 l 385 847 l 457 919 l 489 889 l 394 793 z "},"+":{"ha":725,"x_min":121,"x_max":606,"o":"m 606 485 l 606 440 l 386 440 l 386 221 l 342 221 l 342 440 l 121 440 l 121 485 l 342 485 l 342 706 l 386 706 l 386 485 l 606 485 z "},",":{"ha":725,"x_min":342,"x_max":386,"o":"m 342 44 l 386 44 l 386 -44 l 342 -44 l 342 44 z "},"-":{"ha":725,"x_min":121,"x_max":606,"o":"m 121 485 l 606 485 l 606 440 l 121 440 l 121 485 z "},".":{"ha":725,"x_min":342,"x_max":386,"o":"m 342 44 l 386 44 l 386 0 l 342 0 l 342 44 z "},"/":{"ha":725,"x_min":124,"x_max":604,"o":"m 124 32 l 564 914 l 604 894 l 163 13 l 124 32 z "},":":{"ha":725,"x_min":342,"x_max":386,"o":"m 342 706 l 386 706 l 386 661 l 342 661 l 342 706 m 342 264 l 386 264 l 386 221 l 342 221 l 342 264 z "},";":{"ha":725,"x_min":342,"x_max":386,"o":"m 342 706 l 386 706 l 386 661 l 342 661 l 342 706 m 386 265 l 386 176 l 342 176 l 342 265 l 386 265 z "},"<":{"ha":725,"x_min":93,"x_max":594,"o":"m 93 463 l 574 703 l 594 664 l 192 463 l 594 263 l 574 222 l 93 463 z "},"=":{"ha":725,"x_min":121,"x_max":606,"o":"m 121 596 l 606 596 l 606 551 l 121 551 l 121 596 m 121 375 l 606 375 l 606 331 l 121 331 l 121 375 z "},">":{"ha":725,"x_min":133,"x_max":633,"o":"m 133 263 l 535 463 l 133 664 l 153 703 l 633 463 l 153 222 l 133 263 z "},"?":{"ha":725,"x_min":121,"x_max":607,"o":"m 342 44 l 386 44 l 386 0 l 342 0 l 342 44 m 364 926 q 536 856 465 926 q 607 683 607 785 q 543 519 607 589 q 386 442 479 450 l 386 243 l 342 243 l 342 485 l 364 485 q 504 543 446 485 q 561 683 561 601 q 504 824 561 765 q 364 882 446 882 q 224 824 282 882 q 165 683 165 765 l 121 683 q 193 856 121 785 q 364 926 264 926 z "},"@":{"ha":725,"x_min":121,"x_max":606,"o":"m 563 242 l 563 324 q 364 221 489 221 q 165 324 239 221 l 165 243 q 224 103 165 161 q 364 44 282 44 l 583 44 l 583 0 l 364 0 q 193 72 264 0 q 121 243 121 143 l 121 683 q 193 856 121 783 q 364 926 264 926 q 535 856 464 926 q 606 683 606 783 l 606 242 l 563 242 m 165 601 q 364 706 239 706 q 563 601 489 706 l 563 683 q 504 824 563 765 q 364 882 446 882 q 224 824 282 882 q 165 683 165 765 l 165 601 m 364 264 q 504 322 446 264 q 563 463 563 381 q 504 603 563 544 q 364 661 446 661 q 224 603 282 661 q 165 463 165 544 q 224 322 165 381 q 364 264 282 264 z "},"A":{"ha":725,"x_min":121,"x_max":607,"o":"m 364 926 q 536 856 465 926 q 607 683 607 785 l 607 0 l 561 0 l 561 442 l 165 442 l 165 0 l 121 0 l 121 683 q 192 856 121 785 q 364 926 263 926 m 561 683 q 504 824 561 765 q 364 882 446 882 q 224 824 282 882 q 165 683 165 765 l 165 485 l 561 485 l 561 683 z "},"B":{"ha":725,"x_min":121,"x_max":606,"o":"m 464 463 q 567 376 528 433 q 606 243 606 315 q 535 72 606 143 q 364 0 464 0 l 121 0 l 121 926 l 364 926 q 535 856 464 926 q 606 683 606 783 q 567 550 606 611 q 464 463 528 492 m 165 485 l 364 485 q 504 543 446 485 q 563 683 563 601 q 504 824 563 765 q 364 882 446 882 l 165 882 l 165 485 m 364 44 q 504 103 446 44 q 563 243 563 161 q 504 383 563 325 q 364 442 446 442 l 165 442 l 165 44 l 364 44 z "},"C":{"ha":725,"x_min":121,"x_max":606,"o":"m 364 0 q 193 72 264 0 q 121 243 121 143 l 121 683 q 193 856 121 783 q 364 926 264 926 q 535 856 464 926 q 606 683 606 783 l 563 683 q 504 824 563 765 q 364 882 446 882 q 224 824 282 882 q 165 683 165 765 l 165 243 q 224 103 165 161 q 364 44 282 44 q 504 103 446 44 q 563 243 563 161 l 606 243 q 535 72 606 143 q 364 0 464 0 z "},"D":{"ha":725,"x_min":121,"x_max":606,"o":"m 364 926 q 535 856 464 926 q 606 683 606 783 l 606 243 q 535 72 606 143 q 364 0 464 0 l 121 0 l 121 926 l 364 926 m 563 683 q 504 824 563 765 q 364 882 446 882 l 165 882 l 165 44 l 364 44 q 504 103 446 44 q 563 243 563 161 l 563 683 z "},"E":{"ha":725,"x_min":121,"x_max":606,"o":"m 165 882 l 165 485 l 606 485 l 606 440 l 165 440 l 165 44 l 606 44 l 606 0 l 121 0 l 121 926 l 606 926 l 606 882 l 165 882 z "},"F":{"ha":725,"x_min":121,"x_max":606,"o":"m 165 882 l 165 485 l 606 485 l 606 440 l 165 440 l 165 0 l 121 0 l 121 926 l 606 926 l 606 882 l 165 882 z "},"G":{"ha":725,"x_min":121,"x_max":606,"o":"m 364 483 l 606 483 l 606 242 q 535 71 606 142 q 364 -1 464 -1 q 193 71 264 -1 q 121 242 121 142 l 121 682 q 193 854 121 782 q 364 925 264 925 q 535 854 464 925 q 606 682 606 782 l 563 682 q 504 822 563 764 q 364 881 446 881 q 224 822 282 881 q 165 682 165 764 l 165 242 q 224 101 165 160 q 364 43 282 43 q 504 101 446 43 q 563 242 563 160 l 563 440 l 364 440 l 364 483 z "},"H":{"ha":725,"x_min":121,"x_max":606,"o":"m 606 926 l 606 0 l 563 0 l 563 440 l 165 440 l 165 0 l 121 0 l 121 926 l 165 926 l 165 485 l 563 485 l 563 926 l 606 926 z "},"I":{"ha":725,"x_min":121,"x_max":606,"o":"m 386 882 l 386 44 l 606 44 l 606 0 l 121 0 l 121 44 l 342 44 l 342 882 l 121 882 l 121 926 l 606 926 l 606 882 l 386 882 z "},"J":{"ha":725,"x_min":121,"x_max":606,"o":"m 606 926 l 606 243 q 535 72 606 143 q 364 0 464 0 q 193 72 264 0 q 121 243 121 143 l 165 243 q 224 103 165 161 q 364 44 282 44 q 504 103 446 44 q 563 243 563 161 l 563 926 l 606 926 z "},"K":{"ha":725,"x_min":121,"x_max":606,"o":"m 174 463 l 606 31 l 575 0 l 165 410 l 165 0 l 121 0 l 121 926 l 165 926 l 165 517 l 575 926 l 606 894 l 174 463 z "},"L":{"ha":725,"x_min":121,"x_max":606,"o":"m 121 0 l 121 926 l 165 926 l 165 44 l 606 44 l 606 0 l 121 0 z "},"M":{"ha":725,"x_min":121,"x_max":606,"o":"m 165 0 l 121 0 l 121 926 l 157 926 l 364 513 l 571 926 l 606 926 l 606 0 l 563 0 l 563 811 l 364 414 l 165 811 l 165 0 z "},"N":{"ha":725,"x_min":121,"x_max":606,"o":"m 563 926 l 606 926 l 606 0 l 571 0 l 165 811 l 165 0 l 121 0 l 121 926 l 157 926 l 563 115 l 563 926 z "},"O":{"ha":725,"x_min":121,"x_max":606,"o":"m 364 926 q 535 856 464 926 q 606 683 606 783 l 606 243 q 535 72 606 143 q 364 0 464 0 q 193 72 264 0 q 121 243 121 143 l 121 683 q 193 856 121 783 q 364 926 264 926 m 563 683 q 504 824 563 765 q 364 882 446 882 q 224 824 282 882 q 165 683 165 765 l 165 243 q 224 103 165 161 q 364 44 282 44 q 504 103 446 44 q 563 243 563 161 l 563 683 z "},"P":{"ha":725,"x_min":121,"x_max":606,"o":"m 364 926 q 535 856 464 926 q 606 683 606 783 q 535 513 606 583 q 364 440 464 440 l 165 440 l 165 0 l 121 0 l 121 926 l 364 926 m 364 485 q 504 543 446 485 q 563 683 563 601 q 504 824 563 765 q 364 882 446 882 l 165 882 l 165 485 l 364 485 z "},"Q":{"ha":725,"x_min":121,"x_max":606,"o":"m 606 243 q 549 89 606 157 l 606 32 l 574 0 l 517 57 q 363 0 449 0 q 192 72 263 0 q 121 243 121 143 l 121 683 q 192 856 121 783 q 363 926 263 926 q 535 856 463 926 q 606 683 606 783 l 606 243 m 561 683 q 503 824 561 765 q 363 882 444 882 q 222 824 281 882 q 164 683 164 765 l 164 243 q 222 103 164 161 q 363 44 281 44 q 486 89 433 44 l 347 226 l 378 258 l 517 119 q 561 243 561 172 l 561 683 z "},"R":{"ha":725,"x_min":121,"x_max":606,"o":"m 606 31 l 575 0 l 165 410 l 165 0 l 121 0 l 121 926 l 364 926 q 535 856 464 926 q 606 683 606 783 q 535 513 606 583 q 364 440 464 440 l 196 440 l 606 31 m 165 485 l 364 485 q 504 543 446 485 q 563 683 563 601 q 504 824 563 765 q 364 882 446 882 l 165 882 l 165 485 z "},"S":{"ha":725,"x_min":122,"x_max":607,"o":"m 364 0 q 193 71 264 0 q 122 242 122 142 l 165 242 q 224 103 165 161 q 364 44 282 44 q 504 103 446 44 q 563 242 563 160 q 504 383 563 324 q 364 442 446 442 q 193 513 264 442 q 122 683 122 582 q 193 856 122 785 q 364 926 264 926 q 536 856 465 926 q 607 683 607 785 l 563 683 q 504 824 563 765 q 364 881 446 881 q 224 824 282 881 q 165 683 165 765 q 224 543 165 601 q 364 485 282 485 q 536 414 465 485 q 607 242 607 343 q 536 71 607 142 q 364 0 465 0 z "},"T":{"ha":725,"x_min":121,"x_max":606,"o":"m 606 926 l 606 882 l 386 882 l 386 0 l 342 0 l 342 882 l 121 882 l 121 926 l 606 926 z "},"U":{"ha":725,"x_min":121,"x_max":606,"o":"m 606 926 l 606 243 q 535 72 606 143 q 364 0 464 0 q 193 72 264 0 q 121 243 121 143 l 121 926 l 165 926 l 165 243 q 224 103 165 161 q 364 44 282 44 q 504 103 446 44 q 561 243 561 161 l 561 926 l 606 926 z "},"V":{"ha":725,"x_min":121,"x_max":606,"o":"m 376 0 l 350 0 l 121 463 l 121 926 l 165 926 l 165 468 l 364 71 l 563 468 l 563 926 l 606 926 l 604 453 l 376 0 z "},"W":{"ha":725,"x_min":121,"x_max":606,"o":"m 157 0 l 121 0 l 121 926 l 165 926 l 165 115 l 364 513 l 563 115 l 563 926 l 606 926 l 606 0 l 571 0 l 364 414 l 157 0 z "},"X":{"ha":725,"x_min":121,"x_max":606,"o":"m 389 463 l 606 28 l 571 0 l 364 414 l 157 0 l 121 28 l 339 463 l 121 899 l 157 926 l 364 513 l 571 926 l 606 899 l 389 463 z "},"Y":{"ha":725,"x_min":121,"x_max":606,"o":"m 606 899 l 385 458 l 385 0 l 340 0 l 340 458 l 121 899 l 156 926 l 363 513 l 569 926 l 606 899 z "},"Z":{"ha":725,"x_min":107,"x_max":619,"o":"m 107 0 l 549 882 l 121 882 l 121 926 l 619 926 l 179 44 l 606 44 l 606 0 l 107 0 z "},"[":{"ha":725,"x_min":121,"x_max":606,"o":"m 606 0 l 121 0 l 121 926 l 606 926 l 606 882 l 164 882 l 164 43 l 606 43 l 606 0 z "},"\\":{"ha":725,"x_min":124,"x_max":604,"o":"m 124 894 l 163 914 l 604 32 l 564 13 l 124 894 z "},"]":{"ha":725,"x_min":121,"x_max":606,"o":"m 121 0 l 121 43 l 561 43 l 561 882 l 121 882 l 121 926 l 606 926 l 606 0 l 121 0 z "},"^":{"ha":725,"x_min":128,"x_max":594,"o":"m 361 864 l 158 661 l 128 692 l 361 926 l 594 692 l 564 661 l 361 864 z "},"_":{"ha":725,"x_min":121,"x_max":606,"o":"m 121 44 l 606 44 l 606 0 l 121 0 l 121 44 z "},"`":{"ha":725,"x_min":342,"x_max":386,"o":"m 342 926 l 386 926 l 386 838 l 342 838 l 342 926 z "},"a":{"ha":725,"x_min":121,"x_max":607,"o":"m 364 926 q 536 856 465 926 q 607 683 607 785 l 607 0 l 561 0 l 561 442 l 165 442 l 165 0 l 121 0 l 121 683 q 192 856 121 785 q 364 926 263 926 m 561 683 q 504 824 561 765 q 364 882 446 882 q 224 824 282 882 q 165 683 165 765 l 165 485 l 561 485 l 561 683 z "},"b":{"ha":725,"x_min":121,"x_max":606,"o":"m 464 463 q 567 376 528 433 q 606 243 606 315 q 535 72 606 143 q 364 0 464 0 l 121 0 l 121 926 l 364 926 q 535 856 464 926 q 606 683 606 783 q 567 550 606 611 q 464 463 528 492 m 165 485 l 364 485 q 504 543 446 485 q 563 683 563 601 q 504 824 563 765 q 364 882 446 882 l 165 882 l 165 485 m 364 44 q 504 103 446 44 q 563 243 563 161 q 504 383 563 325 q 364 442 446 442 l 165 442 l 165 44 l 364 44 z "},"c":{"ha":725,"x_min":121,"x_max":606,"o":"m 364 0 q 193 72 264 0 q 121 243 121 143 l 121 683 q 193 856 121 783 q 364 926 264 926 q 535 856 464 926 q 606 683 606 783 l 563 683 q 504 824 563 765 q 364 882 446 882 q 224 824 282 882 q 165 683 165 765 l 165 243 q 224 103 165 161 q 364 44 282 44 q 504 103 446 44 q 563 243 563 161 l 606 243 q 535 72 606 143 q 364 0 464 0 z "},"d":{"ha":725,"x_min":121,"x_max":606,"o":"m 364 926 q 535 856 464 926 q 606 683 606 783 l 606 243 q 535 72 606 143 q 364 0 464 0 l 121 0 l 121 926 l 364 926 m 563 683 q 504 824 563 765 q 364 882 446 882 l 165 882 l 165 44 l 364 44 q 504 103 446 44 q 563 243 563 161 l 563 683 z "},"e":{"ha":725,"x_min":121,"x_max":606,"o":"m 165 882 l 165 485 l 606 485 l 606 440 l 165 440 l 165 44 l 606 44 l 606 0 l 121 0 l 121 926 l 606 926 l 606 882 l 165 882 z "},"f":{"ha":725,"x_min":121,"x_max":606,"o":"m 165 882 l 165 485 l 606 485 l 606 440 l 165 440 l 165 0 l 121 0 l 121 926 l 606 926 l 606 882 l 165 882 z "},"g":{"ha":725,"x_min":121,"x_max":606,"o":"m 364 483 l 606 483 l 606 242 q 535 71 606 142 q 364 -1 464 -1 q 193 71 264 -1 q 121 242 121 142 l 121 682 q 193 854 121 782 q 364 925 264 925 q 535 854 464 925 q 606 682 606 782 l 563 682 q 504 822 563 764 q 364 881 446 881 q 224 822 282 881 q 165 682 165 764 l 165 242 q 224 101 165 160 q 364 43 282 43 q 504 101 446 43 q 563 242 563 160 l 563 440 l 364 440 l 364 483 z "},"h":{"ha":725,"x_min":121,"x_max":606,"o":"m 606 926 l 606 0 l 563 0 l 563 440 l 165 440 l 165 0 l 121 0 l 121 926 l 165 926 l 165 485 l 563 485 l 563 926 l 606 926 z "},"i":{"ha":725,"x_min":121,"x_max":606,"o":"m 386 882 l 386 44 l 606 44 l 606 0 l 121 0 l 121 44 l 342 44 l 342 882 l 121 882 l 121 926 l 606 926 l 606 882 l 386 882 z "},"j":{"ha":725,"x_min":121,"x_max":606,"o":"m 606 926 l 606 243 q 535 72 606 143 q 364 0 464 0 q 193 72 264 0 q 121 243 121 143 l 165 243 q 224 103 165 161 q 364 44 282 44 q 504 103 446 44 q 563 243 563 161 l 563 926 l 606 926 z "},"k":{"ha":725,"x_min":121,"x_max":606,"o":"m 174 463 l 606 31 l 575 0 l 165 410 l 165 0 l 121 0 l 121 926 l 165 926 l 165 517 l 575 926 l 606 894 l 174 463 z "},"l":{"ha":725,"x_min":121,"x_max":606,"o":"m 121 0 l 121 926 l 165 926 l 165 44 l 606 44 l 606 0 l 121 0 z "},"m":{"ha":725,"x_min":121,"x_max":606,"o":"m 165 0 l 121 0 l 121 926 l 157 926 l 364 513 l 571 926 l 606 926 l 606 0 l 563 0 l 563 811 l 364 414 l 165 811 l 165 0 z "},"n":{"ha":725,"x_min":121,"x_max":606,"o":"m 563 926 l 606 926 l 606 0 l 571 0 l 165 811 l 165 0 l 121 0 l 121 926 l 157 926 l 563 115 l 563 926 z "},"o":{"ha":725,"x_min":121,"x_max":606,"o":"m 364 926 q 535 856 464 926 q 606 683 606 783 l 606 243 q 535 72 606 143 q 364 0 464 0 q 193 72 264 0 q 121 243 121 143 l 121 683 q 193 856 121 783 q 364 926 264 926 m 563 683 q 504 824 563 765 q 364 882 446 882 q 224 824 282 882 q 165 683 165 765 l 165 243 q 224 103 165 161 q 364 44 282 44 q 504 103 446 44 q 563 243 563 161 l 563 683 z "},"p":{"ha":725,"x_min":121,"x_max":606,"o":"m 364 926 q 535 856 464 926 q 606 683 606 783 q 535 513 606 583 q 364 440 464 440 l 165 440 l 165 0 l 121 0 l 121 926 l 364 926 m 364 485 q 504 543 446 485 q 563 683 563 601 q 504 824 563 765 q 364 882 446 882 l 165 882 l 165 485 l 364 485 z "},"q":{"ha":725,"x_min":121,"x_max":606,"o":"m 606 243 q 549 89 606 157 l 606 32 l 574 0 l 517 57 q 363 0 449 0 q 192 72 263 0 q 121 243 121 143 l 121 683 q 192 856 121 783 q 363 926 263 926 q 535 856 463 926 q 606 683 606 783 l 606 243 m 561 683 q 503 824 561 765 q 363 882 444 882 q 222 824 281 882 q 164 683 164 765 l 164 243 q 222 103 164 161 q 363 44 281 44 q 486 89 433 44 l 347 226 l 378 258 l 517 119 q 561 243 561 172 l 561 683 z "},"r":{"ha":725,"x_min":121,"x_max":606,"o":"m 606 31 l 575 0 l 165 410 l 165 0 l 121 0 l 121 926 l 364 926 q 535 856 464 926 q 606 683 606 783 q 535 513 606 583 q 364 440 464 440 l 196 440 l 606 31 m 165 485 l 364 485 q 504 543 446 485 q 563 683 563 601 q 504 824 563 765 q 364 882 446 882 l 165 882 l 165 485 z "},"s":{"ha":725,"x_min":122,"x_max":607,"o":"m 364 0 q 193 71 264 0 q 122 242 122 142 l 165 242 q 224 103 165 161 q 364 44 282 44 q 504 103 446 44 q 563 242 563 160 q 504 383 563 324 q 364 442 446 442 q 193 513 264 442 q 122 683 122 582 q 193 856 122 785 q 364 926 264 926 q 536 856 465 926 q 607 683 607 785 l 563 683 q 504 824 563 765 q 364 881 446 881 q 224 824 282 881 q 165 683 165 765 q 224 543 165 601 q 364 485 282 485 q 536 414 465 485 q 607 242 607 343 q 536 71 607 142 q 364 0 465 0 z "},"t":{"ha":725,"x_min":121,"x_max":606,"o":"m 606 926 l 606 882 l 386 882 l 386 0 l 342 0 l 342 882 l 121 882 l 121 926 l 606 926 z "},"u":{"ha":725,"x_min":121,"x_max":606,"o":"m 606 926 l 606 243 q 535 72 606 143 q 364 0 464 0 q 193 72 264 0 q 121 243 121 143 l 121 926 l 165 926 l 165 243 q 224 103 165 161 q 364 44 282 44 q 504 103 446 44 q 561 243 561 161 l 561 926 l 606 926 z "},"v":{"ha":725,"x_min":121,"x_max":606,"o":"m 376 0 l 350 0 l 121 463 l 121 926 l 165 926 l 165 468 l 364 71 l 563 468 l 563 926 l 606 926 l 604 453 l 376 0 z "},"w":{"ha":725,"x_min":121,"x_max":606,"o":"m 157 0 l 121 0 l 121 926 l 165 926 l 165 115 l 364 513 l 563 115 l 563 926 l 606 926 l 606 0 l 571 0 l 364 414 l 157 0 z "},"x":{"ha":725,"x_min":121,"x_max":606,"o":"m 389 463 l 606 28 l 571 0 l 364 414 l 157 0 l 121 28 l 339 463 l 121 899 l 157 926 l 364 513 l 571 926 l 606 899 l 389 463 z "},"y":{"ha":725,"x_min":121,"x_max":606,"o":"m 606 899 l 385 458 l 385 0 l 340 0 l 340 458 l 121 899 l 156 926 l 363 513 l 569 926 l 606 899 z "},"z":{"ha":725,"x_min":107,"x_max":619,"o":"m 107 0 l 549 882 l 121 882 l 121 926 l 619 926 l 179 44 l 606 44 l 606 0 l 107 0 z "},"|":{"ha":725,"x_min":342,"x_max":386,"o":"m 342 926 l 386 926 l 386 0 l 342 0 l 342 926 z "}," ":{"ha":725,"x_min":0,"x_max":0,"o":""},"­":{"ha":725,"x_min":121,"x_max":606,"o":"m 121 485 l 606 485 l 606 440 l 121 440 l 121 485 z "},"¡":{"ha":725,"x_min":342,"x_max":386,"o":"m 342 0 l 342 683 l 386 683 l 386 0 l 342 0 m 342 882 l 342 926 l 386 926 l 386 882 l 342 882 z "},"¿":{"ha":725,"x_min":121,"x_max":607,"o":"m 342 882 l 342 926 l 386 926 l 386 882 l 342 882 m 536 71 q 364 0 465 0 q 193 71 264 0 q 121 243 121 142 l 165 243 q 224 103 165 161 q 364 44 282 44 q 504 103 446 44 q 561 243 561 161 q 504 383 561 325 q 364 442 446 442 l 342 442 l 342 683 l 386 683 l 386 485 q 543 407 479 476 q 607 243 607 338 q 536 71 607 142 z "},"÷":{"ha":725,"x_min":121,"x_max":606,"o":"m 121 485 l 606 485 l 606 440 l 121 440 l 121 485 m 342 706 l 386 706 l 386 661 l 342 661 l 342 706 m 342 264 l 386 264 l 386 221 l 342 221 l 342 264 z "},"€":{"ha":725,"x_min":33,"x_max":606,"o":"m 364 0 q 192 72 264 0 q 121 243 121 143 l 121 331 l 33 331 l 33 375 l 121 375 l 121 551 l 33 551 l 33 596 l 121 596 l 121 683 q 192 855 121 783 q 364 926 264 926 q 535 855 464 926 q 606 683 606 783 l 563 683 q 504 824 563 765 q 364 882 446 882 q 224 824 282 882 q 165 683 165 765 l 165 596 l 364 596 l 364 551 l 165 551 l 165 375 l 364 375 l 364 331 l 165 331 l 165 243 q 224 103 165 161 q 364 44 282 44 q 504 103 446 44 q 563 243 563 161 l 606 243 q 535 72 606 143 q 364 0 464 0 z "},"Ā":{"ha":725,"x_min":121,"x_max":607,"o":"m 561 485 l 561 683 q 503 824 561 765 q 364 882 446 882 q 224 824 282 882 q 165 683 165 765 l 165 485 l 561 485 m 607 0 l 561 0 l 561 442 l 165 442 l 165 0 l 121 0 l 121 683 q 192 856 121 785 q 364 926 263 926 q 536 856 465 926 q 607 683 607 785 l 607 0 m 518 992 l 208 992 l 208 1036 l 518 1036 l 518 992 z "},"ā":{"ha":725,"x_min":121,"x_max":607,"o":"m 561 485 l 561 683 q 503 824 561 765 q 364 882 446 882 q 224 824 282 882 q 165 683 165 765 l 165 485 l 561 485 m 518 992 l 208 992 l 208 1036 l 518 1036 l 518 992 m 607 0 l 561 0 l 561 442 l 165 442 l 165 0 l 121 0 l 121 683 q 192 856 121 785 q 364 926 263 926 q 536 856 465 926 q 607 683 607 785 l 607 0 z "},"Č":{"ha":725,"x_min":121,"x_max":606,"o":"m 394 993 l 332 993 l 275 1050 l 307 1081 l 364 1024 l 421 1081 l 451 1050 l 394 993 m 364 0 q 193 72 264 0 q 121 243 121 143 l 121 683 q 193 856 121 783 q 364 926 264 926 q 535 856 464 926 q 606 683 606 783 l 563 683 q 504 824 563 765 q 364 882 446 882 q 224 824 282 882 q 165 683 165 765 l 165 243 q 224 103 165 161 q 364 44 282 44 q 504 103 446 44 q 563 243 563 161 l 606 243 q 535 72 606 143 q 364 0 464 0 z "},"č":{"ha":725,"x_min":121,"x_max":606,"o":"m 394 993 l 332 993 l 275 1050 l 307 1081 l 364 1024 l 421 1081 l 451 1050 l 394 993 m 364 0 q 193 72 264 0 q 121 243 121 143 l 121 683 q 193 856 121 783 q 364 926 264 926 q 535 856 464 926 q 606 683 606 783 l 563 683 q 504 824 563 765 q 364 882 446 882 q 224 824 282 882 q 165 683 165 765 l 165 243 q 224 103 165 161 q 364 44 282 44 q 504 103 446 44 q 563 243 563 161 l 606 243 q 535 72 606 143 q 364 0 464 0 z "},"Ē":{"ha":725,"x_min":121,"x_max":606,"o":"m 518 992 l 208 992 l 208 1036 l 518 1036 l 518 992 m 606 0 l 121 0 l 121 926 l 606 926 l 606 882 l 165 882 l 165 485 l 606 485 l 606 440 l 165 440 l 165 44 l 606 44 l 606 0 z "},"ē":{"ha":725,"x_min":121,"x_max":606,"o":"m 518 992 l 208 992 l 208 1036 l 518 1036 l 518 992 m 606 0 l 121 0 l 121 926 l 606 926 l 606 882 l 165 882 l 165 485 l 606 485 l 606 440 l 165 440 l 165 44 l 606 44 l 606 0 z "},"Ģ":{"ha":725,"x_min":121,"x_max":606,"o":"m 364 483 l 606 483 l 606 242 q 535 71 606 142 q 364 -1 464 -1 q 193 71 264 -1 q 121 242 121 142 l 121 682 q 193 854 121 782 q 364 925 264 925 q 535 854 464 925 q 606 682 606 782 l 563 682 q 504 822 563 764 q 364 881 446 881 q 224 822 282 881 q 165 682 165 764 l 165 242 q 224 101 165 160 q 364 43 282 43 q 504 101 446 43 q 563 242 563 160 l 563 440 l 364 440 l 364 483 m 394 -67 l 307 -154 l 275 -124 l 332 -67 l 394 -67 z "},"ģ":{"ha":725,"x_min":121,"x_max":606,"o":"m 364 483 l 606 483 l 606 242 q 535 71 606 142 q 364 -1 464 -1 q 193 71 264 -1 q 121 242 121 142 l 121 682 q 193 854 121 782 q 364 925 264 925 q 535 854 464 925 q 606 682 606 782 l 563 682 q 504 822 563 764 q 364 881 446 881 q 224 822 282 881 q 165 682 165 764 l 165 242 q 224 101 165 160 q 364 43 282 43 q 504 101 446 43 q 563 242 563 160 l 563 440 l 364 440 l 364 483 m 394 -67 l 307 -154 l 275 -124 l 332 -67 l 394 -67 z "},"Ī":{"ha":725,"x_min":121,"x_max":606,"o":"m 518 992 l 208 992 l 208 1036 l 518 1036 l 518 992 m 606 0 l 121 0 l 121 44 l 342 44 l 342 882 l 121 882 l 121 926 l 606 926 l 606 882 l 386 882 l 386 44 l 606 44 l 606 0 z "},"ī":{"ha":725,"x_min":121,"x_max":606,"o":"m 518 992 l 208 992 l 208 1036 l 518 1036 l 518 992 m 386 882 l 386 44 l 606 44 l 606 0 l 121 0 l 121 44 l 342 44 l 342 882 l 121 882 l 121 926 l 606 926 l 606 882 l 386 882 z "},"Ķ":{"ha":725,"x_min":121,"x_max":606,"o":"m 174 463 l 606 31 l 575 0 l 165 410 l 165 0 l 121 0 l 121 926 l 165 926 l 165 517 l 575 926 l 606 894 l 174 463 m 394 -67 l 307 -154 l 275 -124 l 332 -67 l 394 -67 z "},"ķ":{"ha":725,"x_min":121,"x_max":606,"o":"m 174 463 l 606 31 l 575 0 l 165 410 l 165 0 l 121 0 l 121 926 l 165 926 l 165 517 l 575 926 l 606 894 l 174 463 m 394 -67 l 307 -154 l 275 -124 l 332 -67 l 394 -67 z "},"Ļ":{"ha":725,"x_min":121,"x_max":606,"o":"m 121 0 l 121 926 l 165 926 l 165 44 l 606 44 l 606 0 l 121 0 m 394 -67 l 307 -154 l 275 -124 l 332 -67 l 394 -67 z "},"ļ":{"ha":725,"x_min":121,"x_max":606,"o":"m 121 0 l 121 926 l 165 926 l 165 44 l 606 44 l 606 0 l 121 0 m 394 -67 l 307 -154 l 275 -124 l 332 -67 l 394 -67 z "},"Ņ":{"ha":725,"x_min":121,"x_max":606,"o":"m 563 926 l 606 926 l 606 0 l 571 0 l 165 811 l 165 0 l 121 0 l 121 926 l 157 926 l 563 115 l 563 926 m 394 -67 l 307 -154 l 275 -124 l 332 -67 l 394 -67 z "},"ņ":{"ha":725,"x_min":121,"x_max":606,"o":"m 563 926 l 606 926 l 606 0 l 571 0 l 165 811 l 165 0 l 121 0 l 121 926 l 157 926 l 563 115 l 563 926 m 394 -67 l 307 -154 l 275 -124 l 332 -67 l 394 -67 z "},"Š":{"ha":725,"x_min":122,"x_max":607,"o":"m 394 993 l 332 993 l 275 1050 l 307 1081 l 364 1024 l 421 1081 l 451 1050 l 394 993 m 364 0 q 193 71 264 0 q 122 242 122 142 l 165 242 q 224 103 165 161 q 364 44 282 44 q 504 103 446 44 q 563 242 563 160 q 504 383 563 324 q 364 442 446 442 q 193 513 264 442 q 122 683 122 582 q 193 856 122 785 q 364 926 264 926 q 536 856 465 926 q 607 683 607 785 l 563 683 q 504 824 563 765 q 364 881 446 881 q 224 824 282 881 q 165 683 165 765 q 224 543 165 601 q 364 485 282 485 q 536 414 465 485 q 607 242 607 343 q 536 71 607 142 q 364 0 465 0 z "},"š":{"ha":725,"x_min":122,"x_max":607,"o":"m 394 993 l 332 993 l 275 1050 l 307 1081 l 364 1024 l 421 1081 l 451 1050 l 394 993 m 364 0 q 193 71 264 0 q 122 242 122 142 l 165 242 q 224 103 165 161 q 364 44 282 44 q 504 103 446 44 q 563 242 563 160 q 504 383 563 324 q 364 442 446 442 q 193 513 264 442 q 122 683 122 582 q 193 856 122 785 q 364 926 264 926 q 536 856 465 926 q 607 683 607 785 l 563 683 q 504 824 563 765 q 364 881 446 881 q 224 824 282 881 q 165 683 165 765 q 224 543 165 601 q 364 485 282 485 q 536 414 465 485 q 607 242 607 343 q 536 71 607 142 q 364 0 465 0 z "},"Ū":{"ha":725,"x_min":121,"x_max":606,"o":"m 518 992 l 208 992 l 208 1036 l 518 1036 l 518 992 m 606 926 l 606 243 q 535 72 606 143 q 364 0 464 0 q 193 72 264 0 q 121 243 121 143 l 121 926 l 165 926 l 165 243 q 224 103 165 161 q 364 44 282 44 q 504 103 446 44 q 561 243 561 161 l 561 926 l 606 926 z "},"ū":{"ha":725,"x_min":121,"x_max":606,"o":"m 518 992 l 208 992 l 208 1036 l 518 1036 l 518 992 m 606 926 l 606 243 q 535 72 606 143 q 364 0 464 0 q 193 72 264 0 q 121 243 121 143 l 121 926 l 165 926 l 165 243 q 224 103 165 161 q 364 44 282 44 q 504 103 446 44 q 561 243 561 161 l 561 926 l 606 926 z "},"Ž":{"ha":725,"x_min":107,"x_max":619,"o":"m 394 993 l 332 993 l 275 1050 l 307 1081 l 364 1024 l 421 1081 l 451 1050 l 394 993 m 107 0 l 549 882 l 121 882 l 121 926 l 619 926 l 179 44 l 606 44 l 606 0 l 107 0 z "},"ž":{"ha":725,"x_min":107,"x_max":619,"o":"m 394 993 l 332 993 l 275 1050 l 307 1081 l 364 1024 l 421 1081 l 451 1050 l 394 993 m 107 0 l 549 882 l 121 882 l 121 926 l 619 926 l 179 44 l 606 44 l 606 0 l 107 0 z "},"Ä":{"ha":725,"x_min":121,"x_max":607,"o":"m 297 992 l 254 992 l 254 1036 l 297 1036 l 297 992 m 475 992 l 431 992 l 431 1036 l 475 1036 l 475 992 m 364 926 q 536 856 465 926 q 607 683 607 785 l 607 0 l 561 0 l 561 442 l 165 442 l 165 0 l 121 0 l 121 683 q 192 856 121 785 q 364 926 263 926 m 561 683 q 504 824 561 765 q 364 882 446 882 q 224 824 282 882 q 165 683 165 765 l 165 485 l 561 485 l 561 683 z "},"ä":{"ha":725,"x_min":121,"x_max":607,"o":"m 297 992 l 254 992 l 254 1036 l 297 1036 l 297 992 m 475 992 l 431 992 l 431 1036 l 475 1036 l 475 992 m 364 926 q 536 856 465 926 q 607 683 607 785 l 607 0 l 561 0 l 561 442 l 165 442 l 165 0 l 121 0 l 121 683 q 192 856 121 785 q 364 926 263 926 m 561 683 q 504 824 561 765 q 364 882 446 882 q 224 824 282 882 q 165 683 165 765 l 165 485 l 561 485 l 561 683 z "},"Ë":{"ha":725,"x_min":121,"x_max":606,"o":"m 165 882 l 165 485 l 606 485 l 606 440 l 165 440 l 165 44 l 606 44 l 606 0 l 121 0 l 121 926 l 606 926 l 606 882 l 165 882 m 297 992 l 254 992 l 254 1036 l 297 1036 l 297 992 m 475 992 l 431 992 l 431 1036 l 475 1036 l 475 992 z "},"ë":{"ha":725,"x_min":121,"x_max":606,"o":"m 165 882 l 165 485 l 606 485 l 606 440 l 165 440 l 165 44 l 606 44 l 606 0 l 121 0 l 121 926 l 606 926 l 606 882 l 165 882 m 297 992 l 254 992 l 254 1036 l 297 1036 l 297 992 m 475 992 l 431 992 l 431 1036 l 475 1036 l 475 992 z "},"Ï":{"ha":725,"x_min":121,"x_max":606,"o":"m 386 882 l 386 44 l 606 44 l 606 0 l 121 0 l 121 44 l 342 44 l 342 882 l 121 882 l 121 926 l 606 926 l 606 882 l 386 882 m 297 992 l 254 992 l 254 1036 l 297 1036 l 297 992 m 475 992 l 431 992 l 431 1036 l 475 1036 l 475 992 z "},"ï":{"ha":725,"x_min":121,"x_max":606,"o":"m 386 882 l 386 44 l 606 44 l 606 0 l 121 0 l 121 44 l 342 44 l 342 882 l 121 882 l 121 926 l 606 926 l 606 882 l 386 882 m 297 992 l 254 992 l 254 1036 l 297 1036 l 297 992 m 475 992 l 431 992 l 431 1036 l 475 1036 l 475 992 z "},"Ö":{"ha":725,"x_min":121,"x_max":606,"o":"m 364 926 q 535 856 464 926 q 606 683 606 783 l 606 243 q 535 72 606 143 q 364 0 464 0 q 193 72 264 0 q 121 243 121 143 l 121 683 q 193 856 121 783 q 364 926 264 926 m 563 683 q 504 824 563 765 q 364 882 446 882 q 224 824 282 882 q 165 683 165 765 l 165 243 q 224 103 165 161 q 364 44 282 44 q 504 103 446 44 q 563 243 563 161 l 563 683 m 297 992 l 254 992 l 254 1036 l 297 1036 l 297 992 m 475 992 l 431 992 l 431 1036 l 475 1036 l 475 992 z "},"ö":{"ha":725,"x_min":121,"x_max":606,"o":"m 364 926 q 535 856 464 926 q 606 683 606 783 l 606 243 q 535 72 606 143 q 364 0 464 0 q 193 72 264 0 q 121 243 121 143 l 121 683 q 193 856 121 783 q 364 926 264 926 m 563 683 q 504 824 563 765 q 364 882 446 882 q 224 824 282 882 q 165 683 165 765 l 165 243 q 224 103 165 161 q 364 44 282 44 q 504 103 446 44 q 563 243 563 161 l 563 683 m 297 992 l 254 992 l 254 1036 l 297 1036 l 297 992 m 475 992 l 431 992 l 431 1036 l 475 1036 l 475 992 z "},"Ü":{"ha":725,"x_min":121,"x_max":606,"o":"m 606 926 l 606 243 q 535 72 606 143 q 364 0 464 0 q 193 72 264 0 q 121 243 121 143 l 121 926 l 165 926 l 165 243 q 224 103 165 161 q 364 44 282 44 q 504 103 446 44 q 561 243 561 161 l 561 926 l 606 926 m 297 992 l 254 992 l 254 1036 l 297 1036 l 297 992 m 475 992 l 431 992 l 431 1036 l 475 1036 l 475 992 z "},"ü":{"ha":725,"x_min":121,"x_max":606,"o":"m 297 992 l 254 992 l 254 1036 l 297 1036 l 297 992 m 475 992 l 431 992 l 431 1036 l 475 1036 l 475 992 m 606 926 l 606 243 q 535 72 606 143 q 364 0 464 0 q 193 72 264 0 q 121 243 121 143 l 121 926 l 165 926 l 165 243 q 224 103 165 161 q 364 44 282 44 q 504 103 446 44 q 561 243 561 161 l 561 926 l 606 926 z "},"ß":{"ha":725,"x_min":121,"x_max":607,"o":"m 364 0 l 364 44 q 504 102 446 44 q 563 242 563 160 q 504 383 563 325 q 364 440 446 440 l 364 485 q 504 543 446 485 q 563 683 563 601 q 504 824 563 765 q 364 882 446 882 l 165 882 l 165 0 l 121 0 l 121 926 l 364 926 q 535 855 464 926 q 607 683 607 783 q 567 551 607 610 q 464 463 528 493 q 567 374 528 433 q 607 242 607 315 q 535 71 607 142 q 364 0 464 0 z "},"À":{"ha":725,"x_min":121,"x_max":607,"o":"m 364 926 q 536 856 465 926 q 607 683 607 785 l 607 0 l 561 0 l 561 442 l 165 442 l 165 0 l 121 0 l 121 683 q 192 856 121 785 q 364 926 263 926 m 561 683 q 504 824 561 765 q 364 882 446 882 q 224 824 282 882 q 165 683 165 765 l 165 485 l 561 485 l 561 683 m 394 993 l 332 993 l 275 1050 l 307 1081 l 394 993 z "},"à":{"ha":725,"x_min":121,"x_max":607,"o":"m 364 926 q 536 856 465 926 q 607 683 607 785 l 607 0 l 561 0 l 561 442 l 165 442 l 165 0 l 121 0 l 121 683 q 192 856 121 785 q 364 926 263 926 m 561 683 q 504 824 561 765 q 364 882 446 882 q 224 824 282 882 q 165 683 165 765 l 165 485 l 561 485 l 561 683 m 394 993 l 332 993 l 275 1050 l 307 1081 l 394 993 z "},"Á":{"ha":725,"x_min":121,"x_max":607,"o":"m 364 926 q 536 856 465 926 q 607 683 607 785 l 607 0 l 561 0 l 561 442 l 165 442 l 165 0 l 121 0 l 121 683 q 192 856 121 785 q 364 926 263 926 m 561 683 q 504 824 561 765 q 364 882 446 882 q 224 824 282 882 q 165 683 165 765 l 165 485 l 561 485 l 561 683 m 394 993 l 332 993 l 421 1081 l 451 1050 l 394 993 z "},"á":{"ha":725,"x_min":121,"x_max":607,"o":"m 364 926 q 536 856 465 926 q 607 683 607 785 l 607 0 l 561 0 l 561 442 l 165 442 l 165 0 l 121 0 l 121 683 q 192 856 121 785 q 364 926 263 926 m 561 683 q 504 824 561 765 q 364 882 446 882 q 224 824 282 882 q 165 683 165 765 l 165 485 l 561 485 l 561 683 m 394 993 l 332 993 l 421 1081 l 451 1050 l 394 993 z "},"È":{"ha":725,"x_min":121,"x_max":606,"o":"m 165 882 l 165 485 l 606 485 l 606 440 l 165 440 l 165 44 l 606 44 l 606 0 l 121 0 l 121 926 l 606 926 l 606 882 l 165 882 m 394 993 l 332 993 l 275 1050 l 307 1081 l 394 993 z "},"è":{"ha":725,"x_min":121,"x_max":606,"o":"m 165 882 l 165 485 l 606 485 l 606 440 l 165 440 l 165 44 l 606 44 l 606 0 l 121 0 l 121 926 l 606 926 l 606 882 l 165 882 m 394 993 l 332 993 l 275 1050 l 307 1081 l 394 993 z "},"É":{"ha":725,"x_min":121,"x_max":606,"o":"m 165 882 l 165 485 l 606 485 l 606 440 l 165 440 l 165 44 l 606 44 l 606 0 l 121 0 l 121 926 l 606 926 l 606 882 l 165 882 m 394 993 l 332 993 l 421 1081 l 451 1050 l 394 993 z "},"é":{"ha":725,"x_min":121,"x_max":606,"o":"m 165 882 l 165 485 l 606 485 l 606 440 l 165 440 l 165 44 l 606 44 l 606 0 l 121 0 l 121 926 l 606 926 l 606 882 l 165 882 m 394 993 l 332 993 l 421 1081 l 451 1050 l 394 993 z "},"Ì":{"ha":725,"x_min":121,"x_max":606,"o":"m 386 882 l 386 44 l 606 44 l 606 0 l 121 0 l 121 44 l 342 44 l 342 882 l 121 882 l 121 926 l 606 926 l 606 882 l 386 882 m 394 993 l 332 993 l 275 1050 l 307 1081 l 394 993 z "},"ì":{"ha":725,"x_min":121,"x_max":606,"o":"m 386 882 l 386 44 l 606 44 l 606 0 l 121 0 l 121 44 l 342 44 l 342 882 l 121 882 l 121 926 l 606 926 l 606 882 l 386 882 m 394 993 l 332 993 l 275 1050 l 307 1081 l 394 993 z "},"Í":{"ha":725,"x_min":121,"x_max":606,"o":"m 386 882 l 386 44 l 606 44 l 606 0 l 121 0 l 121 44 l 342 44 l 342 882 l 121 882 l 121 926 l 606 926 l 606 882 l 386 882 m 394 993 l 332 993 l 421 1081 l 451 1050 l 394 993 z "},"í":{"ha":725,"x_min":121,"x_max":606,"o":"m 386 882 l 386 44 l 606 44 l 606 0 l 121 0 l 121 44 l 342 44 l 342 882 l 121 882 l 121 926 l 606 926 l 606 882 l 386 882 m 394 993 l 332 993 l 421 1081 l 451 1050 l 394 993 z "},"Ò":{"ha":725,"x_min":121,"x_max":606,"o":"m 364 926 q 535 856 464 926 q 606 683 606 783 l 606 243 q 535 72 606 143 q 364 0 464 0 q 193 72 264 0 q 121 243 121 143 l 121 683 q 193 856 121 783 q 364 926 264 926 m 563 683 q 504 824 563 765 q 364 882 446 882 q 224 824 282 882 q 165 683 165 765 l 165 243 q 224 103 165 161 q 364 44 282 44 q 504 103 446 44 q 563 243 563 161 l 563 683 m 394 993 l 332 993 l 275 1050 l 307 1081 l 394 993 z "},"ò":{"ha":725,"x_min":121,"x_max":606,"o":"m 364 926 q 535 856 464 926 q 606 683 606 783 l 606 243 q 535 72 606 143 q 364 0 464 0 q 193 72 264 0 q 121 243 121 143 l 121 683 q 193 856 121 783 q 364 926 264 926 m 563 683 q 504 824 563 765 q 364 882 446 882 q 224 824 282 882 q 165 683 165 765 l 165 243 q 224 103 165 161 q 364 44 282 44 q 504 103 446 44 q 563 243 563 161 l 563 683 m 394 993 l 332 993 l 275 1050 l 307 1081 l 394 993 z "},"Ó":{"ha":725,"x_min":121,"x_max":606,"o":"m 364 926 q 535 856 464 926 q 606 683 606 783 l 606 243 q 535 72 606 143 q 364 0 464 0 q 193 72 264 0 q 121 243 121 143 l 121 683 q 193 856 121 783 q 364 926 264 926 m 563 683 q 504 824 563 765 q 364 882 446 882 q 224 824 282 882 q 165 683 165 765 l 165 243 q 224 103 165 161 q 364 44 282 44 q 504 103 446 44 q 563 243 563 161 l 563 683 m 394 993 l 332 993 l 421 1081 l 451 1050 l 394 993 z "},"ó":{"ha":725,"x_min":121,"x_max":606,"o":"m 364 926 q 535 856 464 926 q 606 683 606 783 l 606 243 q 535 72 606 143 q 364 0 464 0 q 193 72 264 0 q 121 243 121 143 l 121 683 q 193 856 121 783 q 364 926 264 926 m 563 683 q 504 824 563 765 q 364 882 446 882 q 224 824 282 882 q 165 683 165 765 l 165 243 q 224 103 165 161 q 364 44 282 44 q 504 103 446 44 q 563 243 563 161 l 563 683 m 394 993 l 332 993 l 421 1081 l 451 1050 l 394 993 z "},"Ù":{"ha":725,"x_min":121,"x_max":606,"o":"m 606 926 l 606 243 q 535 72 606 143 q 364 0 464 0 q 193 72 264 0 q 121 243 121 143 l 121 926 l 165 926 l 165 243 q 224 103 165 161 q 364 44 282 44 q 504 103 446 44 q 561 243 561 161 l 561 926 l 606 926 m 394 993 l 332 993 l 275 1050 l 307 1081 l 394 993 z "},"ù":{"ha":725,"x_min":121,"x_max":606,"o":"m 606 926 l 606 243 q 535 72 606 143 q 364 0 464 0 q 193 72 264 0 q 121 243 121 143 l 121 926 l 165 926 l 165 243 q 224 103 165 161 q 364 44 282 44 q 504 103 446 44 q 561 243 561 161 l 561 926 l 606 926 m 394 993 l 332 993 l 275 1050 l 307 1081 l 394 993 z "},"Ú":{"ha":725,"x_min":121,"x_max":606,"o":"m 606 926 l 606 243 q 535 72 606 143 q 364 0 464 0 q 193 72 264 0 q 121 243 121 143 l 121 926 l 165 926 l 165 243 q 224 103 165 161 q 364 44 282 44 q 504 103 446 44 q 561 243 561 161 l 561 926 l 606 926 m 394 993 l 332 993 l 421 1081 l 451 1050 l 394 993 z "},"ú":{"ha":725,"x_min":121,"x_max":606,"o":"m 606 926 l 606 243 q 535 72 606 143 q 364 0 464 0 q 193 72 264 0 q 121 243 121 143 l 121 926 l 165 926 l 165 243 q 224 103 165 161 q 364 44 282 44 q 504 103 446 44 q 561 243 561 161 l 561 926 l 606 926 m 394 993 l 332 993 l 421 1081 l 451 1050 l 394 993 z "},"Ø":{"ha":725,"x_min":121,"x_max":606,"o":"m 214 114 q 224 103 218 108 q 364 44 282 44 q 504 103 446 44 q 563 243 563 161 l 563 683 q 543 771 563 732 l 214 114 m 514 814 l 504 824 q 364 882 446 882 q 224 824 282 882 q 165 683 165 765 l 165 243 q 185 156 165 196 l 514 814 m 163 108 q 121 243 121 168 l 121 683 q 193 856 121 783 q 364 926 264 926 q 535 856 464 926 l 564 914 l 604 894 l 565 818 q 606 683 606 758 l 606 243 q 535 72 606 143 q 364 0 464 0 q 193 72 264 0 l 163 13 l 124 32 l 163 108 z "},"ø":{"ha":725,"x_min":121,"x_max":606,"o":"m 214 114 q 224 103 218 108 q 364 44 282 44 q 504 103 446 44 q 563 243 563 161 l 563 683 q 543 771 563 732 l 214 114 m 514 814 l 504 824 q 364 882 446 882 q 224 824 282 882 q 165 683 165 765 l 165 243 q 185 156 165 196 l 514 814 m 163 108 q 121 243 121 168 l 121 683 q 193 856 121 783 q 364 926 264 926 q 535 856 464 926 l 564 914 l 604 894 l 565 818 q 606 683 606 758 l 606 243 q 535 72 606 143 q 364 0 464 0 q 193 72 264 0 l 163 13 l 124 32 l 163 108 z "},"Â":{"ha":725,"x_min":121,"x_max":607,"o":"m 394 1081 l 451 1024 l 421 993 l 364 1050 l 307 993 l 275 1024 l 332 1081 l 394 1081 m 364 926 q 536 856 465 926 q 607 683 607 785 l 607 0 l 561 0 l 561 442 l 165 442 l 165 0 l 121 0 l 121 683 q 192 856 121 785 q 364 926 263 926 m 561 683 q 504 824 561 765 q 364 882 446 882 q 224 824 282 882 q 165 683 165 765 l 165 485 l 561 485 l 561 683 z "},"â":{"ha":725,"x_min":121,"x_max":607,"o":"m 394 1081 l 451 1024 l 421 993 l 364 1050 l 307 993 l 275 1024 l 332 1081 l 394 1081 m 364 926 q 536 856 465 926 q 607 683 607 785 l 607 0 l 561 0 l 561 442 l 165 442 l 165 0 l 121 0 l 121 683 q 192 856 121 785 q 364 926 263 926 m 561 683 q 504 824 561 765 q 364 882 446 882 q 224 824 282 882 q 165 683 165 765 l 165 485 l 561 485 l 561 683 z "},"Ê":{"ha":725,"x_min":121,"x_max":606,"o":"m 165 882 l 165 485 l 606 485 l 606 440 l 165 440 l 165 44 l 606 44 l 606 0 l 121 0 l 121 926 l 606 926 l 606 882 l 165 882 m 394 1081 l 451 1024 l 421 993 l 364 1050 l 307 993 l 275 1024 l 332 1081 l 394 1081 z "},"ê":{"ha":725,"x_min":121,"x_max":606,"o":"m 165 882 l 165 485 l 606 485 l 606 440 l 165 440 l 165 44 l 606 44 l 606 0 l 121 0 l 121 926 l 606 926 l 606 882 l 165 882 m 394 1081 l 451 1024 l 421 993 l 364 1050 l 307 993 l 275 1024 l 332 1081 l 394 1081 z "},"Î":{"ha":725,"x_min":121,"x_max":606,"o":"m 386 882 l 386 44 l 606 44 l 606 0 l 121 0 l 121 44 l 342 44 l 342 882 l 121 882 l 121 926 l 606 926 l 606 882 l 386 882 m 394 1081 l 451 1024 l 421 993 l 364 1050 l 307 993 l 275 1024 l 332 1081 l 394 1081 z "},"î":{"ha":725,"x_min":121,"x_max":606,"o":"m 386 882 l 386 44 l 606 44 l 606 0 l 121 0 l 121 44 l 342 44 l 342 882 l 121 882 l 121 926 l 606 926 l 606 882 l 386 882 m 394 1081 l 451 1024 l 421 993 l 364 1050 l 307 993 l 275 1024 l 332 1081 l 394 1081 z "},"Ô":{"ha":725,"x_min":121,"x_max":606,"o":"m 364 926 q 535 856 464 926 q 606 683 606 783 l 606 243 q 535 72 606 143 q 364 0 464 0 q 193 72 264 0 q 121 243 121 143 l 121 683 q 193 856 121 783 q 364 926 264 926 m 563 683 q 504 824 563 765 q 364 882 446 882 q 224 824 282 882 q 165 683 165 765 l 165 243 q 224 103 165 161 q 364 44 282 44 q 504 103 446 44 q 563 243 563 161 l 563 683 m 394 1081 l 451 1024 l 421 993 l 364 1050 l 307 993 l 275 1024 l 332 1081 l 394 1081 z "},"ô":{"ha":725,"x_min":121,"x_max":606,"o":"m 364 926 q 535 856 464 926 q 606 683 606 783 l 606 243 q 535 72 606 143 q 364 0 464 0 q 193 72 264 0 q 121 243 121 143 l 121 683 q 193 856 121 783 q 364 926 264 926 m 563 683 q 504 824 563 765 q 364 882 446 882 q 224 824 282 882 q 165 683 165 765 l 165 243 q 224 103 165 161 q 364 44 282 44 q 504 103 446 44 q 563 243 563 161 l 563 683 m 394 1081 l 451 1024 l 421 993 l 364 1050 l 307 993 l 275 1024 l 332 1081 l 394 1081 z "},"Û":{"ha":725,"x_min":121,"x_max":606,"o":"m 606 926 l 606 243 q 535 72 606 143 q 364 0 464 0 q 193 72 264 0 q 121 243 121 143 l 121 926 l 165 926 l 165 243 q 224 103 165 161 q 364 44 282 44 q 504 103 446 44 q 561 243 561 161 l 561 926 l 606 926 m 394 1081 l 451 1024 l 421 993 l 364 1050 l 307 993 l 275 1024 l 332 1081 l 394 1081 z "},"û":{"ha":725,"x_min":121,"x_max":606,"o":"m 606 926 l 606 243 q 535 72 606 143 q 364 0 464 0 q 193 72 264 0 q 121 243 121 143 l 121 926 l 165 926 l 165 243 q 224 103 165 161 q 364 44 282 44 q 504 103 446 44 q 561 243 561 161 l 561 926 l 606 926 m 394 1081 l 451 1024 l 421 993 l 364 1050 l 307 993 l 275 1024 l 332 1081 l 394 1081 z "},"Æ":{"ha":725,"x_min":121,"x_max":606,"o":"m 606 0 l 342 0 l 342 442 l 165 442 l 165 0 l 121 0 l 121 685 q 192 856 121 785 q 364 926 263 926 l 606 926 l 606 883 l 385 883 l 385 486 l 606 486 l 606 442 l 385 442 l 385 44 l 606 44 l 606 0 m 342 486 l 342 881 q 215 816 265 871 q 165 685 165 761 l 165 486 l 342 486 z "},"æ":{"ha":725,"x_min":121,"x_max":606,"o":"m 606 0 l 342 0 l 342 442 l 165 442 l 165 0 l 121 0 l 121 685 q 192 856 121 785 q 364 926 263 926 l 606 926 l 606 883 l 385 883 l 385 486 l 606 486 l 606 442 l 385 442 l 385 44 l 606 44 l 606 0 m 342 486 l 342 881 q 215 816 265 871 q 165 685 165 761 l 165 486 l 342 486 z "},"Œ":{"ha":725,"x_min":121,"x_max":607,"o":"m 607 0 l 364 0 q 192 72 264 0 q 121 243 121 143 l 121 685 q 192 856 121 785 q 364 926 264 926 l 607 926 l 607 883 l 386 883 l 386 486 l 607 486 l 607 442 l 386 442 l 386 44 l 607 44 l 607 0 m 342 47 l 342 881 q 216 816 267 871 q 165 685 165 761 l 165 243 q 216 112 165 167 q 342 47 267 57 z "},"œ":{"ha":725,"x_min":121,"x_max":607,"o":"m 607 0 l 364 0 q 192 72 264 0 q 121 243 121 143 l 121 685 q 192 856 121 785 q 364 926 264 926 l 607 926 l 607 883 l 386 883 l 386 486 l 607 486 l 607 442 l 386 442 l 386 44 l 607 44 l 607 0 m 342 47 l 342 881 q 216 816 267 871 q 165 685 165 761 l 165 243 q 216 112 165 167 q 342 47 267 57 z "},"±":{"ha":725,"x_min":121,"x_max":606,"o":"m 606 485 l 606 440 l 386 440 l 386 221 l 342 221 l 342 440 l 121 440 l 121 485 l 342 485 l 342 706 l 386 706 l 386 485 l 606 485 m 121 44 l 606 44 l 606 0 l 121 0 l 121 44 z "},"#":{"ha":725,"x_min":121,"x_max":606,"o":"m 385 17 l 342 28 l 418 331 l 243 331 l 164 17 l 122 28 l 197 331 l 121 331 l 121 375 l 208 375 l 253 551 l 121 551 l 121 596 l 264 596 l 342 910 l 385 899 l 310 596 l 485 596 l 563 910 l 606 899 l 529 596 l 606 596 l 606 551 l 518 551 l 475 375 l 606 375 l 606 331 l 464 331 l 385 17 m 429 375 l 474 551 l 299 551 l 254 375 l 429 375 z "},"Ć":{"ha":725,"x_min":121,"x_max":606,"o":"m 364 0 q 193 72 264 0 q 121 243 121 143 l 121 683 q 193 856 121 783 q 364 926 264 926 q 535 856 464 926 q 606 683 606 783 l 563 683 q 504 824 563 765 q 364 882 446 882 q 224 824 282 882 q 165 683 165 765 l 165 243 q 224 103 165 161 q 364 44 282 44 q 504 103 446 44 q 563 243 563 161 l 606 243 q 535 72 606 143 q 364 0 464 0 m 394 993 l 332 993 l 421 1081 l 451 1050 l 394 993 z "},"ć":{"ha":725,"x_min":121,"x_max":606,"o":"m 364 0 q 193 72 264 0 q 121 243 121 143 l 121 683 q 193 856 121 783 q 364 926 264 926 q 535 856 464 926 q 606 683 606 783 l 563 683 q 504 824 563 765 q 364 882 446 882 q 224 824 282 882 q 165 683 165 765 l 165 243 q 224 103 165 161 q 364 44 282 44 q 504 103 446 44 q 563 243 563 161 l 606 243 q 535 72 606 143 q 364 0 464 0 m 394 993 l 332 993 l 421 1081 l 451 1050 l 394 993 z "},"Ĉ":{"ha":725,"x_min":121,"x_max":606,"o":"m 364 0 q 193 72 264 0 q 121 243 121 143 l 121 683 q 193 856 121 783 q 364 926 264 926 q 535 856 464 926 q 606 683 606 783 l 563 683 q 504 824 563 765 q 364 882 446 882 q 224 824 282 882 q 165 683 165 765 l 165 243 q 224 103 165 161 q 364 44 282 44 q 504 103 446 44 q 563 243 563 161 l 606 243 q 535 72 606 143 q 364 0 464 0 m 394 1081 l 451 1024 l 421 993 l 364 1050 l 307 993 l 275 1024 l 332 1081 l 394 1081 z "},"ĉ":{"ha":725,"x_min":121,"x_max":606,"o":"m 364 0 q 193 72 264 0 q 121 243 121 143 l 121 683 q 193 856 121 783 q 364 926 264 926 q 535 856 464 926 q 606 683 606 783 l 563 683 q 504 824 563 765 q 364 882 446 882 q 224 824 282 882 q 165 683 165 765 l 165 243 q 224 103 165 161 q 364 44 282 44 q 504 103 446 44 q 563 243 563 161 l 606 243 q 535 72 606 143 q 364 0 464 0 m 394 1081 l 451 1024 l 421 993 l 364 1050 l 307 993 l 275 1024 l 332 1081 l 394 1081 z "},"´":{"ha":725,"x_min":342,"x_max":386,"o":"m 342 926 l 386 926 l 386 838 l 342 838 l 342 926 z "},"·":{"ha":725,"x_min":342,"x_max":386,"o":"m 342 486 l 386 486 l 386 442 l 342 442 l 342 486 z "},"¨":{"ha":725,"x_min":297,"x_max":429,"o":"m 297 926 l 342 926 l 342 882 l 297 882 l 297 926 m 386 926 l 429 926 l 429 882 l 386 882 l 386 926 z "},"§":{"ha":725,"x_min":121,"x_max":607,"o":"m 364 264 q 504 322 446 264 q 563 463 563 381 q 504 603 563 544 q 364 661 446 661 q 224 603 282 661 q 165 463 165 544 q 224 322 165 381 q 364 264 282 264 m 364 0 l 364 43 q 504 101 446 43 q 563 242 563 160 l 563 324 q 364 221 488 221 q 192 292 264 221 q 121 463 121 363 l 121 683 q 192 855 121 783 q 364 926 264 926 l 364 882 q 224 824 282 882 q 165 683 165 765 l 165 601 q 364 706 240 706 q 535 634 464 706 q 607 463 607 563 l 607 242 q 535 71 607 142 q 364 0 464 0 z "},"~":{"ha":725,"x_min":121,"x_max":607,"o":"m 165 243 l 121 243 q 192 415 121 343 q 364 486 264 486 q 504 544 446 486 q 563 685 563 603 l 607 685 q 535 513 607 585 q 364 442 464 442 q 224 383 282 442 q 165 243 165 325 z "},"&":{"ha":725,"x_min":121,"x_max":607,"o":"m 364 0 q 192 72 264 0 q 121 243 121 143 q 160 374 121 315 q 264 464 199 433 l 121 678 q 192 856 121 785 q 364 926 264 926 q 535 856 464 926 q 607 685 607 785 l 563 685 q 504 825 563 767 q 364 883 446 883 q 227 828 283 883 q 165 690 171 772 l 533 140 q 563 243 563 186 l 563 464 l 607 464 l 607 243 q 560 100 607 163 l 603 35 l 567 11 l 529 67 q 364 0 460 0 m 364 44 q 504 103 446 44 l 289 426 q 165 243 165 365 q 224 103 165 161 q 364 44 282 44 z "},"{":{"ha":725,"x_min":121,"x_max":606,"o":"m 606 0 l 585 0 q 413 72 483 0 q 342 243 342 143 q 283 383 342 325 q 143 442 225 442 l 121 442 l 121 486 l 143 486 q 283 544 225 486 q 342 685 342 603 q 413 856 342 785 q 585 926 483 926 l 606 926 l 606 882 l 585 882 l 585 883 q 444 825 501 883 q 386 685 386 767 q 347 552 386 611 q 243 464 307 493 q 347 376 307 435 q 386 243 386 317 q 444 103 386 161 q 585 44 501 44 l 606 44 l 606 0 z "},"}":{"ha":725,"x_min":121,"x_max":606,"o":"m 143 0 l 121 0 l 121 44 l 143 44 q 283 103 225 44 q 342 243 342 161 q 381 376 342 317 q 485 464 421 435 q 381 552 421 493 q 342 685 342 611 q 283 825 342 767 q 143 883 225 883 l 143 882 l 121 882 l 121 926 l 143 926 q 315 856 243 926 q 386 685 386 785 q 444 544 386 603 q 583 486 501 486 l 606 486 l 606 442 l 583 442 q 444 383 501 442 q 386 243 386 325 q 315 72 386 143 q 143 0 243 0 z "},"Ã":{"ha":725,"x_min":121,"x_max":607,"o":"m 424 993 l 361 993 l 335 1018 l 308 993 l 247 993 l 335 1081 l 392 1024 l 450 1081 l 481 1050 l 424 993 m 364 926 q 536 856 465 926 q 607 683 607 785 l 607 0 l 561 0 l 561 442 l 165 442 l 165 0 l 121 0 l 121 683 q 192 856 121 785 q 364 926 263 926 m 561 683 q 504 824 561 765 q 364 882 446 882 q 224 824 282 882 q 165 683 165 765 l 165 485 l 561 485 l 561 683 z "},"ã":{"ha":725,"x_min":121,"x_max":607,"o":"m 424 993 l 361 993 l 335 1018 l 308 993 l 247 993 l 335 1081 l 392 1024 l 450 1081 l 481 1050 l 424 993 m 364 926 q 536 856 465 926 q 607 683 607 785 l 607 0 l 561 0 l 561 442 l 165 442 l 165 0 l 121 0 l 121 683 q 192 856 121 785 q 364 926 263 926 m 561 683 q 504 824 561 765 q 364 882 446 882 q 224 824 282 882 q 165 683 165 765 l 165 485 l 561 485 l 561 683 z "},"Ñ":{"ha":725,"x_min":121,"x_max":606,"o":"m 563 926 l 606 926 l 606 0 l 571 0 l 165 811 l 165 0 l 121 0 l 121 926 l 157 926 l 563 115 l 563 926 m 424 993 l 361 993 l 335 1018 l 308 993 l 247 993 l 335 1081 l 392 1024 l 450 1081 l 481 1050 l 424 993 z "},"ñ":{"ha":725,"x_min":121,"x_max":606,"o":"m 563 926 l 606 926 l 606 0 l 571 0 l 165 811 l 165 0 l 121 0 l 121 926 l 157 926 l 563 115 l 563 926 m 424 993 l 361 993 l 335 1018 l 308 993 l 247 993 l 335 1081 l 392 1024 l 450 1081 l 481 1050 l 424 993 z "},"Õ":{"ha":725,"x_min":121,"x_max":606,"o":"m 364 926 q 535 856 464 926 q 606 683 606 783 l 606 243 q 535 72 606 143 q 364 0 464 0 q 193 72 264 0 q 121 243 121 143 l 121 683 q 193 856 121 783 q 364 926 264 926 m 563 683 q 504 824 563 765 q 364 882 446 882 q 224 824 282 882 q 165 683 165 765 l 165 243 q 224 103 165 161 q 364 44 282 44 q 504 103 446 44 q 563 243 563 161 l 563 683 m 424 993 l 361 993 l 335 1018 l 308 993 l 247 993 l 335 1081 l 392 1024 l 450 1081 l 481 1050 l 424 993 z "},"õ":{"ha":725,"x_min":121,"x_max":606,"o":"m 364 926 q 535 856 464 926 q 606 683 606 783 l 606 243 q 535 72 606 143 q 364 0 464 0 q 193 72 264 0 q 121 243 121 143 l 121 683 q 193 856 121 783 q 364 926 264 926 m 563 683 q 504 824 563 765 q 364 882 446 882 q 224 824 282 882 q 165 683 165 765 l 165 243 q 224 103 165 161 q 364 44 282 44 q 504 103 446 44 q 563 243 563 161 l 563 683 m 424 993 l 361 993 l 335 1018 l 308 993 l 247 993 l 335 1081 l 392 1024 l 450 1081 l 481 1050 l 424 993 z "},"¶":{"ha":725,"x_min":121,"x_max":606,"o":"m 606 0 l 563 0 l 563 882 l 385 882 l 385 0 l 342 0 l 342 443 q 184 522 247 454 q 121 683 121 589 q 192 856 121 785 q 364 926 263 926 l 606 926 l 606 0 m 342 488 l 342 881 q 215 815 265 869 q 165 683 165 760 q 215 552 165 607 q 342 488 265 497 z "},"Ĩ":{"ha":725,"x_min":121,"x_max":606,"o":"m 386 882 l 386 44 l 606 44 l 606 0 l 121 0 l 121 44 l 342 44 l 342 882 l 121 882 l 121 926 l 606 926 l 606 882 l 386 882 m 424 993 l 361 993 l 335 1018 l 308 993 l 247 993 l 335 1081 l 392 1024 l 450 1081 l 481 1050 l 424 993 z "},"ĩ":{"ha":725,"x_min":121,"x_max":606,"o":"m 386 882 l 386 44 l 606 44 l 606 0 l 121 0 l 121 44 l 342 44 l 342 882 l 121 882 l 121 926 l 606 926 l 606 882 l 386 882 m 424 993 l 361 993 l 335 1018 l 308 993 l 247 993 l 335 1081 l 392 1024 l 450 1081 l 481 1050 l 424 993 z "},"Ũ":{"ha":725,"x_min":121,"x_max":606,"o":"m 606 926 l 606 243 q 535 72 606 143 q 364 0 464 0 q 193 72 264 0 q 121 243 121 143 l 121 926 l 165 926 l 165 243 q 224 103 165 161 q 364 44 282 44 q 504 103 446 44 q 561 243 561 161 l 561 926 l 606 926 m 424 993 l 361 993 l 335 1018 l 308 993 l 247 993 l 335 1081 l 392 1024 l 450 1081 l 481 1050 l 424 993 z "},"ũ":{"ha":725,"x_min":121,"x_max":606,"o":"m 606 926 l 606 243 q 535 72 606 143 q 364 0 464 0 q 193 72 264 0 q 121 243 121 143 l 121 926 l 165 926 l 165 243 q 224 103 165 161 q 364 44 282 44 q 504 103 446 44 q 561 243 561 161 l 561 926 l 606 926 m 424 993 l 361 993 l 335 1018 l 308 993 l 247 993 l 335 1081 l 392 1024 l 450 1081 l 481 1050 l 424 993 z "},"Ý":{"ha":725,"x_min":121,"x_max":606,"o":"m 606 899 l 385 458 l 385 0 l 340 0 l 340 458 l 121 899 l 156 926 l 363 513 l 569 926 l 606 899 m 394 993 l 332 993 l 421 1081 l 451 1050 l 394 993 z "},"ý":{"ha":725,"x_min":121,"x_max":606,"o":"m 606 899 l 385 458 l 385 0 l 340 0 l 340 458 l 121 899 l 156 926 l 363 513 l 569 926 l 606 899 m 394 993 l 332 993 l 421 1081 l 451 1050 l 394 993 z "},"Ĝ":{"ha":725,"x_min":121,"x_max":606,"o":"m 364 483 l 606 483 l 606 242 q 535 71 606 142 q 364 -1 464 -1 q 193 71 264 -1 q 121 242 121 142 l 121 682 q 193 854 121 782 q 364 925 264 925 q 535 854 464 925 q 606 682 606 782 l 563 682 q 504 822 563 764 q 364 881 446 881 q 224 822 282 881 q 165 682 165 764 l 165 242 q 224 101 165 160 q 364 43 282 43 q 504 101 446 43 q 563 242 563 160 l 563 440 l 364 440 l 364 483 m 394 1081 l 451 1024 l 421 993 l 364 1050 l 307 993 l 275 1024 l 332 1081 l 394 1081 z "},"ĝ":{"ha":725,"x_min":121,"x_max":606,"o":"m 364 483 l 606 483 l 606 242 q 535 71 606 142 q 364 -1 464 -1 q 193 71 264 -1 q 121 242 121 142 l 121 682 q 193 854 121 782 q 364 925 264 925 q 535 854 464 925 q 606 682 606 782 l 563 682 q 504 822 563 764 q 364 881 446 881 q 224 822 282 881 q 165 682 165 764 l 165 242 q 224 101 165 160 q 364 43 282 43 q 504 101 446 43 q 563 242 563 160 l 563 440 l 364 440 l 364 483 m 394 1081 l 451 1024 l 421 993 l 364 1050 l 307 993 l 275 1024 l 332 1081 l 394 1081 z "},"Ĥ":{"ha":725,"x_min":121,"x_max":606,"o":"m 606 926 l 606 0 l 563 0 l 563 440 l 165 440 l 165 0 l 121 0 l 121 926 l 165 926 l 165 485 l 563 485 l 563 926 l 606 926 m 394 1081 l 451 1024 l 421 993 l 364 1050 l 307 993 l 275 1024 l 332 1081 l 394 1081 z "},"ĥ":{"ha":725,"x_min":121,"x_max":606,"o":"m 606 926 l 606 0 l 563 0 l 563 440 l 165 440 l 165 0 l 121 0 l 121 926 l 165 926 l 165 485 l 563 485 l 563 926 l 606 926 m 394 1081 l 451 1024 l 421 993 l 364 1050 l 307 993 l 275 1024 l 332 1081 l 394 1081 z "},"Ŝ":{"ha":725,"x_min":122,"x_max":607,"o":"m 364 0 q 193 71 264 0 q 122 242 122 142 l 165 242 q 224 103 165 161 q 364 44 282 44 q 504 103 446 44 q 563 242 563 160 q 504 383 563 324 q 364 442 446 442 q 193 513 264 442 q 122 683 122 582 q 193 856 122 785 q 364 926 264 926 q 536 856 465 926 q 607 683 607 785 l 563 683 q 504 824 563 765 q 364 881 446 881 q 224 824 282 881 q 165 683 165 765 q 224 543 165 601 q 364 485 282 485 q 536 414 465 485 q 607 242 607 343 q 536 71 607 142 q 364 0 465 0 m 394 1081 l 451 1024 l 421 993 l 364 1050 l 307 993 l 275 1024 l 332 1081 l 394 1081 z "},"ŝ":{"ha":725,"x_min":122,"x_max":607,"o":"m 364 0 q 193 71 264 0 q 122 242 122 142 l 165 242 q 224 103 165 161 q 364 44 282 44 q 504 103 446 44 q 563 242 563 160 q 504 383 563 324 q 364 442 446 442 q 193 513 264 442 q 122 683 122 582 q 193 856 122 785 q 364 926 264 926 q 536 856 465 926 q 607 683 607 785 l 563 683 q 504 824 563 765 q 364 881 446 881 q 224 824 282 881 q 165 683 165 765 q 224 543 165 601 q 364 485 282 485 q 536 414 465 485 q 607 242 607 343 q 536 71 607 142 q 364 0 465 0 m 394 1081 l 451 1024 l 421 993 l 364 1050 l 307 993 l 275 1024 l 332 1081 l 394 1081 z "},"Ě":{"ha":725,"x_min":121,"x_max":606,"o":"m 165 882 l 165 485 l 606 485 l 606 440 l 165 440 l 165 44 l 606 44 l 606 0 l 121 0 l 121 926 l 606 926 l 606 882 l 165 882 m 394 993 l 332 993 l 275 1050 l 307 1081 l 364 1024 l 421 1081 l 451 1050 l 394 993 z "},"ě":{"ha":725,"x_min":121,"x_max":606,"o":"m 165 882 l 165 485 l 606 485 l 606 440 l 165 440 l 165 44 l 606 44 l 606 0 l 121 0 l 121 926 l 606 926 l 606 882 l 165 882 m 394 993 l 332 993 l 275 1050 l 307 1081 l 364 1024 l 421 1081 l 451 1050 l 394 993 z "},"Ň":{"ha":725,"x_min":121,"x_max":606,"o":"m 563 926 l 606 926 l 606 0 l 571 0 l 165 811 l 165 0 l 121 0 l 121 926 l 157 926 l 563 115 l 563 926 m 394 993 l 332 993 l 275 1050 l 307 1081 l 364 1024 l 421 1081 l 451 1050 l 394 993 z "},"ň":{"ha":725,"x_min":121,"x_max":606,"o":"m 563 926 l 606 926 l 606 0 l 571 0 l 165 811 l 165 0 l 121 0 l 121 926 l 157 926 l 563 115 l 563 926 m 394 993 l 332 993 l 275 1050 l 307 1081 l 364 1024 l 421 1081 l 451 1050 l 394 993 z "},"Ť":{"ha":725,"x_min":121,"x_max":606,"o":"m 606 926 l 606 882 l 386 882 l 386 0 l 342 0 l 342 882 l 121 882 l 121 926 l 606 926 m 394 993 l 332 993 l 275 1050 l 307 1081 l 364 1024 l 421 1081 l 451 1050 l 394 993 z "},"ť":{"ha":725,"x_min":121,"x_max":606,"o":"m 606 926 l 606 882 l 386 882 l 386 0 l 342 0 l 342 882 l 121 882 l 121 926 l 606 926 m 394 993 l 332 993 l 275 1050 l 307 1081 l 364 1024 l 421 1081 l 451 1050 l 394 993 z "},"µ":{"ha":725,"x_min":121,"x_max":606,"o":"m 363 0 q 165 103 240 0 l 165 0 l 121 0 l 121 683 l 165 683 l 165 242 q 223 101 165 160 q 363 43 281 43 q 503 101 446 43 q 561 242 561 160 l 561 683 l 606 683 l 606 242 q 535 71 606 142 q 363 0 464 0 z "},"Ŷ":{"ha":725,"x_min":121,"x_max":606,"o":"m 606 899 l 385 458 l 385 0 l 340 0 l 340 458 l 121 899 l 156 926 l 363 513 l 569 926 l 606 899 m 394 1081 l 451 1024 l 421 993 l 364 1050 l 307 993 l 275 1024 l 332 1081 l 394 1081 z "},"ŷ":{"ha":725,"x_min":121,"x_max":606,"o":"m 606 899 l 385 458 l 385 0 l 340 0 l 340 458 l 121 899 l 156 926 l 363 513 l 569 926 l 606 899 m 394 1081 l 451 1024 l 421 993 l 364 1050 l 307 993 l 275 1024 l 332 1081 l 394 1081 z "},"Ź":{"ha":725,"x_min":107,"x_max":619,"o":"m 107 0 l 549 882 l 121 882 l 121 926 l 619 926 l 179 44 l 606 44 l 606 0 l 107 0 m 394 993 l 332 993 l 421 1081 l 451 1050 l 394 993 z "},"ź":{"ha":725,"x_min":107,"x_max":619,"o":"m 107 0 l 549 882 l 121 882 l 121 926 l 619 926 l 179 44 l 606 44 l 606 0 l 107 0 m 394 993 l 332 993 l 421 1081 l 451 1050 l 394 993 z "},"Ń":{"ha":725,"x_min":121,"x_max":606,"o":"m 563 926 l 606 926 l 606 0 l 571 0 l 165 811 l 165 0 l 121 0 l 121 926 l 157 926 l 563 115 l 563 926 m 394 993 l 332 993 l 421 1081 l 451 1050 l 394 993 z "},"ń":{"ha":725,"x_min":121,"x_max":606,"o":"m 563 926 l 606 926 l 606 0 l 571 0 l 165 811 l 165 0 l 121 0 l 121 926 l 157 926 l 563 115 l 563 926 m 394 993 l 332 993 l 421 1081 l 451 1050 l 394 993 z "},"Ś":{"ha":725,"x_min":122,"x_max":607,"o":"m 364 0 q 193 71 264 0 q 122 242 122 142 l 165 242 q 224 103 165 161 q 364 44 282 44 q 504 103 446 44 q 563 242 563 160 q 504 383 563 324 q 364 442 446 442 q 193 513 264 442 q 122 683 122 582 q 193 856 122 785 q 364 926 264 926 q 536 856 465 926 q 607 683 607 785 l 563 683 q 504 824 563 765 q 364 881 446 881 q 224 824 282 881 q 165 683 165 765 q 224 543 165 601 q 364 485 282 485 q 536 414 465 485 q 607 242 607 343 q 536 71 607 142 q 364 0 465 0 m 394 993 l 332 993 l 421 1081 l 451 1050 l 394 993 z "},"ś":{"ha":725,"x_min":122,"x_max":607,"o":"m 364 0 q 193 71 264 0 q 122 242 122 142 l 165 242 q 224 103 165 161 q 364 44 282 44 q 504 103 446 44 q 563 242 563 160 q 504 383 563 324 q 364 442 446 442 q 193 513 264 442 q 122 683 122 582 q 193 856 122 785 q 364 926 264 926 q 536 856 465 926 q 607 683 607 785 l 563 683 q 504 824 563 765 q 364 881 446 881 q 224 824 282 881 q 165 683 165 765 q 224 543 165 601 q 364 485 282 485 q 536 414 465 485 q 607 242 607 343 q 536 71 607 142 q 364 0 465 0 m 394 993 l 332 993 l 421 1081 l 451 1050 l 394 993 z "},"¥":{"ha":725,"x_min":121,"x_max":606,"o":"m 385 0 l 340 0 l 340 221 l 121 221 l 121 265 l 340 265 l 340 442 l 121 442 l 121 486 l 328 486 l 121 900 l 156 926 l 363 513 l 569 926 l 606 900 l 399 486 l 606 486 l 606 442 l 385 442 l 385 265 l 606 265 l 606 221 l 385 221 l 385 0 z "},"¢":{"ha":725,"x_min":121,"x_max":606,"o":"m 385 0 l 340 0 l 340 224 q 183 301 246 233 q 121 464 121 369 q 183 626 121 558 q 340 704 246 693 l 340 926 l 385 926 l 385 706 l 606 706 l 606 663 l 385 663 l 385 265 l 606 265 l 606 221 l 385 221 l 385 0 m 340 267 l 340 660 q 215 595 265 650 q 164 464 164 540 q 215 333 164 388 q 340 267 265 278 z "},"£":{"ha":725,"x_min":32,"x_max":606,"o":"m 606 0 l 121 0 l 121 442 l 32 442 l 32 486 l 121 486 l 121 685 q 192 856 121 785 q 364 926 263 926 q 535 856 464 926 q 606 685 606 785 l 561 685 q 503 825 561 767 q 364 883 446 883 q 223 825 281 883 q 165 685 165 767 l 165 486 l 364 486 l 364 442 l 165 442 l 165 44 l 606 44 l 606 0 z "},"‰":{"ha":725,"x_min":121,"x_max":606,"o":"m 474 0 q 381 39 419 0 q 342 132 342 78 q 401 242 342 201 q 342 353 342 283 q 343 374 342 364 l 163 11 l 124 32 l 564 914 l 604 894 l 379 444 q 474 485 418 485 q 567 446 529 485 q 606 353 606 407 q 547 242 606 283 q 606 132 606 201 q 567 39 606 78 q 474 0 529 0 m 474 264 q 536 290 510 264 q 563 353 563 315 q 536 415 563 389 q 474 440 510 440 q 412 415 438 440 q 386 353 386 389 q 412 290 386 315 q 474 264 438 264 m 474 43 q 536 69 510 43 q 563 132 563 96 q 536 194 563 168 q 474 219 510 219 q 412 194 438 219 q 386 132 386 168 q 412 69 386 96 q 474 43 438 43 m 253 661 q 160 700 199 661 q 121 793 121 739 q 160 888 121 849 q 253 926 199 926 q 347 888 308 926 q 386 793 386 849 q 347 700 386 739 q 253 661 308 661 m 253 706 q 316 731 290 706 q 342 793 342 757 q 316 856 342 831 q 253 882 290 882 q 191 856 217 882 q 165 793 165 831 q 191 731 165 757 q 253 706 217 706 z "},"₵":{"ha":725,"x_min":121,"x_max":606,"o":"m 386 0 l 342 0 l 342 1 q 193 72 256 8 q 121 243 121 143 l 121 683 q 193 856 121 783 q 342 925 256 918 l 342 926 l 386 926 l 386 925 q 535 856 472 918 q 606 683 606 783 l 563 683 q 504 824 563 765 q 386 881 454 874 l 386 46 q 504 103 454 53 q 563 243 563 161 l 606 243 q 535 72 606 143 q 386 1 472 8 l 386 0 m 342 46 l 342 881 q 224 824 274 874 q 165 683 165 765 l 165 243 q 224 103 165 161 q 342 46 274 53 z "},"₸":{"ha":725,"x_min":121,"x_max":606,"o":"m 606 882 l 121 882 l 121 926 l 606 926 l 606 882 m 385 0 l 340 0 l 340 663 l 121 663 l 121 706 l 606 706 l 606 663 l 385 663 l 385 0 z "},"¤":{"ha":725,"x_min":121,"x_max":606,"o":"m 364 221 q 208 278 275 221 l 158 228 l 128 258 l 178 310 q 121 464 121 375 q 178 618 121 553 l 128 668 l 158 700 l 208 650 q 364 707 275 707 q 518 650 451 707 l 568 700 l 600 668 l 549 618 q 606 464 606 553 q 549 310 606 375 l 600 258 l 568 228 l 518 278 q 364 221 451 221 m 364 265 q 504 324 446 265 q 563 464 563 382 q 504 604 563 546 q 364 663 446 663 q 224 604 282 663 q 165 464 165 546 q 224 324 165 382 q 364 265 282 265 z "},"Ė":{"ha":725,"x_min":121,"x_max":606,"o":"m 165 882 l 165 485 l 606 485 l 606 440 l 165 440 l 165 44 l 606 44 l 606 0 l 121 0 l 121 926 l 606 926 l 606 882 l 165 882 m 385 992 l 342 992 l 342 1036 l 385 1036 l 385 992 z "},"ė":{"ha":725,"x_min":121,"x_max":606,"o":"m 165 882 l 165 485 l 606 485 l 606 440 l 165 440 l 165 44 l 606 44 l 606 0 l 121 0 l 121 926 l 606 926 l 606 882 l 165 882 m 385 992 l 342 992 l 342 1036 l 385 1036 l 385 992 z "},"Ċ":{"ha":725,"x_min":121,"x_max":606,"o":"m 364 0 q 193 72 264 0 q 121 243 121 143 l 121 683 q 193 856 121 783 q 364 926 264 926 q 535 856 464 926 q 606 683 606 783 l 563 683 q 504 824 563 765 q 364 882 446 882 q 224 824 282 882 q 165 683 165 765 l 165 243 q 224 103 165 161 q 364 44 282 44 q 504 103 446 44 q 563 243 563 161 l 606 243 q 535 72 606 143 q 364 0 464 0 m 385 992 l 342 992 l 342 1036 l 385 1036 l 385 992 z "},"ċ":{"ha":725,"x_min":121,"x_max":606,"o":"m 364 0 q 193 72 264 0 q 121 243 121 143 l 121 683 q 193 856 121 783 q 364 926 264 926 q 535 856 464 926 q 606 683 606 783 l 563 683 q 504 824 563 765 q 364 882 446 882 q 224 824 282 882 q 165 683 165 765 l 165 243 q 224 103 165 161 q 364 44 282 44 q 504 103 446 44 q 563 243 563 161 l 606 243 q 535 72 606 143 q 364 0 464 0 m 385 992 l 342 992 l 342 1036 l 385 1036 l 385 992 z "},"Ż":{"ha":725,"x_min":107,"x_max":619,"o":"m 107 0 l 549 882 l 121 882 l 121 926 l 619 926 l 179 44 l 606 44 l 606 0 l 107 0 m 385 992 l 342 992 l 342 1036 l 385 1036 l 385 992 z "},"ż":{"ha":725,"x_min":107,"x_max":619,"o":"m 107 0 l 549 882 l 121 882 l 121 926 l 619 926 l 179 44 l 606 44 l 606 0 l 107 0 m 385 992 l 342 992 l 342 1036 l 385 1036 l 385 992 z "},"Ġ":{"ha":725,"x_min":121,"x_max":606,"o":"m 364 483 l 606 483 l 606 242 q 535 71 606 142 q 364 -1 464 -1 q 193 71 264 -1 q 121 242 121 142 l 121 682 q 193 854 121 782 q 364 925 264 925 q 535 854 464 925 q 606 682 606 782 l 563 682 q 504 822 563 764 q 364 881 446 881 q 224 822 282 881 q 165 682 165 764 l 165 242 q 224 101 165 160 q 364 43 282 43 q 504 101 446 43 q 563 242 563 160 l 563 440 l 364 440 l 364 483 m 385 992 l 342 992 l 342 1036 l 385 1036 l 385 992 z "},"ġ":{"ha":725,"x_min":121,"x_max":606,"o":"m 364 483 l 606 483 l 606 242 q 535 71 606 142 q 364 -1 464 -1 q 193 71 264 -1 q 121 242 121 142 l 121 682 q 193 854 121 782 q 364 925 264 925 q 535 854 464 925 q 606 682 606 782 l 563 682 q 504 822 563 764 q 364 881 446 881 q 224 822 282 881 q 165 682 165 764 l 165 242 q 224 101 165 160 q 364 43 282 43 q 504 101 446 43 q 563 242 563 160 l 563 440 l 364 440 l 364 483 m 385 992 l 342 992 l 342 1036 l 385 1036 l 385 992 z "},"×":{"ha":725,"x_min":126,"x_max":599,"o":"m 567 226 l 363 432 l 157 226 l 126 258 l 331 463 l 126 668 l 157 699 l 363 494 l 567 699 l 599 668 l 393 463 l 599 258 l 567 226 z "},"≤":{"ha":725,"x_min":93,"x_max":606,"o":"m 93 463 l 574 703 l 594 664 l 192 463 l 594 263 l 574 222 l 93 463 m 121 44 l 606 44 l 606 0 l 121 0 l 121 44 z "},"≥":{"ha":725,"x_min":121,"x_max":633,"o":"m 133 263 l 535 463 l 133 664 l 153 703 l 633 463 l 153 222 l 133 263 m 121 44 l 606 44 l 606 0 l 121 0 l 121 44 z "},"«":{"ha":725,"x_min":113,"x_max":600,"o":"m 349 7 l 113 243 l 349 479 l 379 447 l 175 243 l 379 38 l 349 7 m 568 7 l 332 243 l 568 479 l 600 447 l 394 243 l 600 38 l 568 7 z "},"»":{"ha":725,"x_min":126,"x_max":615,"o":"m 379 7 l 347 38 l 553 243 l 347 447 l 379 479 l 615 243 l 379 7 m 158 7 l 126 38 l 332 243 l 126 447 l 158 479 l 394 243 l 158 7 z "},"Å":{"ha":725,"x_min":121,"x_max":607,"o":"m 394 993 l 332 993 l 275 1050 l 332 1107 l 394 1107 l 451 1050 l 394 993 m 364 1024 l 390 1050 l 364 1076 l 338 1050 l 364 1024 m 364 926 q 536 856 465 926 q 607 683 607 785 l 607 0 l 561 0 l 561 442 l 165 442 l 165 0 l 121 0 l 121 683 q 192 856 121 785 q 364 926 263 926 m 561 683 q 504 824 561 765 q 364 882 446 882 q 224 824 282 882 q 165 683 165 765 l 165 485 l 561 485 l 561 683 z "},"å":{"ha":725,"x_min":121,"x_max":607,"o":"m 394 993 l 332 993 l 275 1050 l 332 1107 l 394 1107 l 451 1050 l 394 993 m 364 1024 l 390 1050 l 364 1076 l 338 1050 l 364 1024 m 364 926 q 536 856 465 926 q 607 683 607 785 l 607 0 l 561 0 l 561 442 l 165 442 l 165 0 l 121 0 l 121 683 q 192 856 121 785 q 364 926 263 926 m 561 683 q 504 824 561 765 q 364 882 446 882 q 224 824 282 882 q 165 683 165 765 l 165 485 l 561 485 l 561 683 z "},"Ů":{"ha":725,"x_min":121,"x_max":606,"o":"m 606 926 l 606 243 q 535 72 606 143 q 364 0 464 0 q 193 72 264 0 q 121 243 121 143 l 121 926 l 165 926 l 165 243 q 224 103 165 161 q 364 44 282 44 q 504 103 446 44 q 561 243 561 161 l 561 926 l 606 926 m 394 993 l 332 993 l 275 1050 l 332 1107 l 394 1107 l 451 1050 l 394 993 m 364 1024 l 390 1050 l 364 1076 l 338 1050 l 364 1024 z "},"ů":{"ha":725,"x_min":121,"x_max":606,"o":"m 606 926 l 606 243 q 535 72 606 143 q 364 0 464 0 q 193 72 264 0 q 121 243 121 143 l 121 926 l 165 926 l 165 243 q 224 103 165 161 q 364 44 282 44 q 504 103 446 44 q 561 243 561 161 l 561 926 l 606 926 m 394 993 l 332 993 l 275 1050 l 332 1107 l 394 1107 l 451 1050 l 394 993 m 364 1024 l 390 1050 l 364 1076 l 338 1050 l 364 1024 z "},"Ÿ":{"ha":725,"x_min":121,"x_max":606,"o":"m 606 899 l 385 458 l 385 0 l 340 0 l 340 458 l 121 899 l 156 926 l 363 513 l 569 926 l 606 899 m 297 992 l 254 992 l 254 1036 l 297 1036 l 297 992 m 475 992 l 431 992 l 431 1036 l 475 1036 l 475 992 z "},"ÿ":{"ha":725,"x_min":121,"x_max":606,"o":"m 606 899 l 385 458 l 385 0 l 340 0 l 340 458 l 121 899 l 156 926 l 363 513 l 569 926 l 606 899 m 297 992 l 254 992 l 254 1036 l 297 1036 l 297 992 m 475 992 l 431 992 l 431 1036 l 475 1036 l 475 992 z "},"Ŵ":{"ha":725,"x_min":121,"x_max":606,"o":"m 157 0 l 121 0 l 121 926 l 165 926 l 165 115 l 364 513 l 563 115 l 563 926 l 606 926 l 606 0 l 571 0 l 364 414 l 157 0 m 394 1081 l 451 1024 l 421 993 l 364 1050 l 307 993 l 275 1024 l 332 1081 l 394 1081 z "},"ŵ":{"ha":725,"x_min":121,"x_max":606,"o":"m 157 0 l 121 0 l 121 926 l 165 926 l 165 115 l 364 513 l 563 115 l 563 926 l 606 926 l 606 0 l 571 0 l 364 414 l 157 0 m 394 1081 l 451 1024 l 421 993 l 364 1050 l 307 993 l 275 1024 l 332 1081 l 394 1081 z "},"Ō":{"ha":725,"x_min":121,"x_max":606,"o":"m 364 926 q 535 856 464 926 q 606 683 606 783 l 606 243 q 535 72 606 143 q 364 0 464 0 q 193 72 264 0 q 121 243 121 143 l 121 683 q 193 856 121 783 q 364 926 264 926 m 563 683 q 504 824 563 765 q 364 882 446 882 q 224 824 282 882 q 165 683 165 765 l 165 243 q 224 103 165 161 q 364 44 282 44 q 504 103 446 44 q 563 243 563 161 l 563 683 m 518 992 l 208 992 l 208 1036 l 518 1036 l 518 992 z "},"ō":{"ha":725,"x_min":121,"x_max":606,"o":"m 364 926 q 535 856 464 926 q 606 683 606 783 l 606 243 q 535 72 606 143 q 364 0 464 0 q 193 72 264 0 q 121 243 121 143 l 121 683 q 193 856 121 783 q 364 926 264 926 m 563 683 q 504 824 563 765 q 364 882 446 882 q 224 824 282 882 q 165 683 165 765 l 165 243 q 224 103 165 161 q 364 44 282 44 q 504 103 446 44 q 563 243 563 161 l 563 683 m 518 992 l 208 992 l 208 1036 l 518 1036 l 518 992 z "},"Ç":{"ha":725,"x_min":121,"x_max":606,"o":"m 340 1 q 193 72 256 8 q 121 243 121 143 l 121 683 q 193 856 121 783 q 364 926 264 926 q 535 856 464 926 q 606 683 606 783 l 563 683 q 504 824 563 765 q 364 882 446 882 q 224 824 282 882 q 165 683 165 765 l 165 243 q 224 103 165 161 q 364 44 282 44 q 504 103 446 44 q 563 243 563 161 l 606 243 q 535 72 606 143 q 385 1 471 8 l 385 -76 l 307 -154 l 275 -124 l 340 -58 l 340 1 z "},"ç":{"ha":725,"x_min":121,"x_max":606,"o":"m 340 1 q 193 72 256 8 q 121 243 121 143 l 121 683 q 193 856 121 783 q 364 926 264 926 q 535 856 464 926 q 606 683 606 783 l 563 683 q 504 824 563 765 q 364 882 446 882 q 224 824 282 882 q 165 683 165 765 l 165 243 q 224 103 165 161 q 364 44 282 44 q 504 103 446 44 q 563 243 563 161 l 606 243 q 535 72 606 143 q 385 1 471 8 l 385 -76 l 307 -154 l 275 -124 l 340 -58 l 340 1 z "},"А":{"ha":725,"x_min":121,"x_max":607,"o":"m 364 926 q 536 856 465 926 q 607 683 607 785 l 607 0 l 561 0 l 561 442 l 165 442 l 165 0 l 121 0 l 121 683 q 192 856 121 785 q 364 926 263 926 m 561 683 q 504 824 561 765 q 364 882 446 882 q 224 824 282 882 q 165 683 165 765 l 165 485 l 561 485 l 561 683 z "},"Б":{"ha":725,"x_min":121,"x_max":606,"o":"m 363 0 l 121 0 l 121 926 l 606 926 l 606 882 l 164 882 l 164 485 l 363 485 q 534 414 463 485 q 606 242 606 343 q 534 71 606 142 q 363 0 463 0 m 363 44 q 503 102 444 44 q 561 242 561 160 q 503 383 561 325 q 363 440 444 440 l 164 440 l 164 44 l 363 44 z "},"В":{"ha":725,"x_min":121,"x_max":606,"o":"m 464 463 q 567 376 528 433 q 606 243 606 315 q 535 72 606 143 q 364 0 464 0 l 121 0 l 121 926 l 364 926 q 535 856 464 926 q 606 683 606 783 q 567 550 606 611 q 464 463 528 492 m 165 485 l 364 485 q 504 543 446 485 q 563 683 563 601 q 504 824 563 765 q 364 882 446 882 l 165 882 l 165 485 m 364 44 q 504 103 446 44 q 563 243 563 161 q 504 383 563 325 q 364 442 446 442 l 165 442 l 165 44 l 364 44 z "},"Г":{"ha":725,"x_min":121,"x_max":606,"o":"m 164 0 l 121 0 l 121 926 l 606 926 l 606 882 l 164 882 l 164 0 z "},"Д":{"ha":725,"x_min":121,"x_max":606,"o":"m 606 0 l 121 0 l 121 44 l 129 44 l 346 926 l 381 926 l 597 44 l 606 44 l 606 0 m 551 44 l 363 811 l 175 44 l 551 44 z "},"Е":{"ha":725,"x_min":121,"x_max":606,"o":"m 165 882 l 165 485 l 606 485 l 606 440 l 165 440 l 165 44 l 606 44 l 606 0 l 121 0 l 121 926 l 606 926 l 606 882 l 165 882 z "},"Ж":{"ha":725,"x_min":121,"x_max":606,"o":"m 606 0 l 561 0 l 561 243 q 511 374 561 319 q 385 439 461 429 l 385 0 l 342 0 l 342 439 q 215 374 265 429 q 165 243 165 319 l 165 0 l 121 0 l 121 243 q 160 376 121 317 q 264 464 199 435 q 160 552 199 493 q 121 685 121 611 l 121 926 l 165 926 l 165 685 q 215 553 165 608 q 342 488 265 499 l 342 926 l 385 926 l 385 488 q 511 553 461 499 q 561 685 561 608 l 561 926 l 606 926 l 606 685 q 566 552 606 611 q 463 464 526 493 q 566 376 526 435 q 606 243 606 317 l 606 0 z "},"З":{"ha":725,"x_min":121,"x_max":606,"o":"m 364 0 q 192 71 263 0 q 121 243 121 142 l 165 243 q 223 103 165 161 q 364 44 281 44 q 503 103 446 44 q 561 243 561 161 q 503 383 561 325 q 364 442 446 442 l 364 485 q 503 543 446 485 q 561 683 561 601 q 503 824 561 765 q 364 882 446 882 q 223 824 281 882 q 165 683 165 765 l 121 683 q 192 856 121 785 q 364 926 263 926 q 535 856 464 926 q 606 683 606 785 q 567 551 606 610 q 463 463 528 493 q 567 375 528 433 q 606 243 606 317 q 535 71 606 142 q 364 0 464 0 z "},"И":{"ha":725,"x_min":121,"x_max":606,"o":"m 164 926 l 164 115 l 569 926 l 606 926 l 606 0 l 561 0 l 561 811 l 156 0 l 121 0 l 121 926 l 164 926 z "},"Й":{"ha":725,"x_min":121,"x_max":606,"o":"m 164 926 l 164 115 l 569 926 l 606 926 l 606 0 l 561 0 l 561 811 l 156 0 l 121 0 l 121 926 l 164 926 m 394 993 l 332 993 l 275 1050 l 307 1081 l 364 1024 l 421 1081 l 451 1050 l 394 993 z "},"К":{"ha":725,"x_min":121,"x_max":606,"o":"m 174 463 l 606 31 l 575 0 l 165 410 l 165 0 l 121 0 l 121 926 l 165 926 l 165 517 l 575 926 l 606 894 l 174 463 z "},"Л":{"ha":725,"x_min":122,"x_max":606,"o":"m 563 0 l 364 811 l 164 0 l 122 11 l 346 926 l 381 926 l 606 11 l 563 0 z "},"М":{"ha":725,"x_min":121,"x_max":606,"o":"m 165 0 l 121 0 l 121 926 l 157 926 l 364 513 l 571 926 l 606 926 l 606 0 l 563 0 l 563 811 l 364 414 l 165 811 l 165 0 z "},"Н":{"ha":725,"x_min":121,"x_max":606,"o":"m 606 926 l 606 0 l 563 0 l 563 440 l 165 440 l 165 0 l 121 0 l 121 926 l 165 926 l 165 485 l 563 485 l 563 926 l 606 926 z "},"О":{"ha":725,"x_min":121,"x_max":606,"o":"m 364 926 q 535 856 464 926 q 606 683 606 783 l 606 243 q 535 72 606 143 q 364 0 464 0 q 193 72 264 0 q 121 243 121 143 l 121 683 q 193 856 121 783 q 364 926 264 926 m 563 683 q 504 824 563 765 q 364 882 446 882 q 224 824 282 882 q 165 683 165 765 l 165 243 q 224 103 165 161 q 364 44 282 44 q 504 103 446 44 q 563 243 563 161 l 563 683 z "},"П":{"ha":725,"x_min":121,"x_max":607,"o":"m 607 0 l 563 0 l 563 883 l 165 883 l 165 0 l 121 0 l 121 926 l 607 926 l 607 0 z "},"Р":{"ha":725,"x_min":121,"x_max":606,"o":"m 364 926 q 535 856 464 926 q 606 683 606 783 q 535 513 606 583 q 364 440 464 440 l 165 440 l 165 0 l 121 0 l 121 926 l 364 926 m 364 485 q 504 543 446 485 q 563 683 563 601 q 504 824 563 765 q 364 882 446 882 l 165 882 l 165 485 l 364 485 z "},"С":{"ha":725,"x_min":121,"x_max":606,"o":"m 364 0 q 193 72 264 0 q 121 243 121 143 l 121 683 q 193 856 121 783 q 364 926 264 926 q 535 856 464 926 q 606 683 606 783 l 563 683 q 504 824 563 765 q 364 882 446 882 q 224 824 282 882 q 165 683 165 765 l 165 243 q 224 103 165 161 q 364 44 282 44 q 504 103 446 44 q 563 243 563 161 l 606 243 q 535 72 606 143 q 364 0 464 0 z "},"Т":{"ha":725,"x_min":121,"x_max":606,"o":"m 606 926 l 606 882 l 386 882 l 386 0 l 342 0 l 342 882 l 121 882 l 121 926 l 606 926 z "},"У":{"ha":725,"x_min":121,"x_max":606,"o":"m 142 0 l 121 0 l 121 43 l 142 43 q 281 99 224 43 q 340 239 338 156 l 121 911 l 163 926 l 363 313 l 564 926 l 606 911 l 385 238 q 310 68 379 136 q 142 0 242 0 z "},"Ф":{"ha":725,"x_min":121,"x_max":606,"o":"m 385 0 l 340 0 l 340 113 q 183 191 246 124 q 121 353 121 258 l 121 574 q 183 735 121 668 q 340 814 246 803 l 340 926 l 385 926 l 385 814 q 542 735 479 803 q 606 574 606 668 l 606 353 q 542 191 606 258 q 385 113 479 124 l 385 0 m 340 157 l 340 769 q 215 705 265 760 q 164 574 164 650 l 164 353 q 215 222 164 276 q 340 157 265 167 m 385 157 q 511 222 461 167 q 561 353 561 276 l 561 574 q 511 705 561 650 q 385 769 461 760 l 385 157 z "},"Х":{"ha":725,"x_min":121,"x_max":606,"o":"m 389 463 l 606 28 l 571 0 l 364 414 l 157 0 l 121 28 l 339 463 l 121 899 l 157 926 l 364 513 l 571 926 l 606 899 l 389 463 z "},"Ц":{"ha":725,"x_min":121,"x_max":607,"o":"m 607 -89 l 564 -89 l 564 0 l 121 0 l 121 928 l 165 928 l 165 43 l 564 43 l 564 928 l 607 928 l 607 -89 z "},"Ч":{"ha":725,"x_min":119,"x_max":606,"o":"m 606 0 l 561 0 l 561 440 l 363 440 q 191 512 263 440 q 119 683 119 583 l 119 926 l 164 926 l 164 683 q 222 543 164 601 q 363 485 281 485 l 561 485 l 561 926 l 606 926 l 606 0 z "},"Ш":{"ha":725,"x_min":121,"x_max":606,"o":"m 606 0 l 121 0 l 121 926 l 165 926 l 165 43 l 342 43 l 342 926 l 385 926 l 385 43 l 561 43 l 561 926 l 606 926 l 606 0 z "},"Щ":{"ha":725,"x_min":121,"x_max":607,"o":"m 607 -89 l 564 -89 l 564 0 l 121 0 l 121 928 l 165 928 l 165 43 l 343 43 l 343 928 l 386 928 l 386 43 l 564 43 l 564 928 l 607 928 l 607 -89 z "},"Ъ":{"ha":725,"x_min":121,"x_max":606,"o":"m 364 0 l 231 0 l 231 882 l 121 882 l 121 926 l 275 926 l 275 486 l 364 486 q 535 415 464 486 q 606 243 606 343 q 535 72 606 143 q 364 0 464 0 m 364 44 q 503 103 446 44 q 561 243 561 161 q 503 383 561 325 q 364 442 446 442 l 275 442 l 275 44 l 364 44 z "},"Ы":{"ha":725,"x_min":121,"x_max":606,"o":"m 606 0 l 561 0 l 561 926 l 606 926 l 606 0 m 143 0 l 121 0 l 121 926 l 165 926 l 165 485 q 322 406 260 474 q 385 243 385 338 q 314 71 385 142 q 143 0 243 0 m 165 46 q 291 111 240 56 q 342 243 342 167 q 291 374 342 319 q 165 440 240 429 l 165 46 z "},"Ь":{"ha":725,"x_min":121,"x_max":607,"o":"m 364 0 l 121 0 l 121 926 l 165 926 l 165 485 l 364 485 q 535 414 464 485 q 607 243 607 343 q 535 71 607 142 q 364 0 464 0 m 364 44 q 504 103 446 44 q 563 243 563 161 q 504 383 563 325 q 364 442 446 442 l 165 442 l 165 44 l 364 44 z "},"Э":{"ha":725,"x_min":121,"x_max":606,"o":"m 363 0 q 192 71 263 0 q 121 242 121 142 l 164 242 q 222 102 164 160 q 363 44 281 44 q 503 102 444 44 q 561 242 561 160 l 561 440 l 363 440 l 363 485 l 561 485 l 561 683 q 503 824 561 765 q 363 882 444 882 q 222 824 281 882 q 164 683 164 765 l 121 683 q 192 855 121 783 q 363 926 263 926 q 535 855 464 926 q 606 683 606 783 l 606 242 q 535 71 606 142 q 363 0 464 0 z "},"Ю":{"ha":725,"x_min":121,"x_max":606,"o":"m 474 0 q 379 39 418 0 q 340 133 340 78 l 340 442 l 164 442 l 164 0 l 121 0 l 121 926 l 164 926 l 164 486 l 340 486 l 340 794 q 379 888 340 850 q 474 926 418 926 q 567 888 528 926 q 606 794 606 850 l 606 133 q 567 39 606 78 q 474 0 528 0 m 474 44 q 535 70 510 44 q 561 133 561 96 l 561 794 q 535 857 561 831 q 474 883 510 883 q 410 857 436 883 q 385 794 385 831 l 385 133 q 410 70 385 96 q 474 44 436 44 z "},"Я":{"ha":725,"x_min":119,"x_max":606,"o":"m 606 0 l 561 0 l 561 440 l 376 440 l 160 0 l 119 19 l 329 444 q 179 525 239 458 q 119 683 119 592 q 191 855 119 783 q 363 926 263 926 l 606 926 l 606 0 m 561 485 l 561 882 l 363 882 q 222 824 281 882 q 164 683 164 765 q 222 543 164 601 q 363 485 281 485 l 561 485 z "},"а":{"ha":725,"x_min":121,"x_max":607,"o":"m 364 926 q 536 856 465 926 q 607 683 607 785 l 607 0 l 561 0 l 561 442 l 165 442 l 165 0 l 121 0 l 121 683 q 192 856 121 785 q 364 926 263 926 m 561 683 q 504 824 561 765 q 364 882 446 882 q 224 824 282 882 q 165 683 165 765 l 165 485 l 561 485 l 561 683 z "},"б":{"ha":725,"x_min":121,"x_max":606,"o":"m 363 0 l 121 0 l 121 926 l 606 926 l 606 882 l 164 882 l 164 485 l 363 485 q 534 414 463 485 q 606 242 606 343 q 534 71 606 142 q 363 0 463 0 m 363 44 q 503 102 444 44 q 561 242 561 160 q 503 383 561 325 q 363 440 444 440 l 164 440 l 164 44 l 363 44 z "},"в":{"ha":725,"x_min":121,"x_max":606,"o":"m 464 463 q 567 376 528 433 q 606 243 606 315 q 535 72 606 143 q 364 0 464 0 l 121 0 l 121 926 l 364 926 q 535 856 464 926 q 606 683 606 783 q 567 550 606 611 q 464 463 528 492 m 165 485 l 364 485 q 504 543 446 485 q 563 683 563 601 q 504 824 563 765 q 364 882 446 882 l 165 882 l 165 485 m 364 44 q 504 103 446 44 q 563 243 563 161 q 504 383 563 325 q 364 442 446 442 l 165 442 l 165 44 l 364 44 z "},"г":{"ha":725,"x_min":121,"x_max":606,"o":"m 164 0 l 121 0 l 121 926 l 606 926 l 606 882 l 164 882 l 164 0 z "},"д":{"ha":725,"x_min":121,"x_max":606,"o":"m 606 0 l 121 0 l 121 44 l 129 44 l 346 926 l 381 926 l 597 44 l 606 44 l 606 0 m 551 44 l 363 811 l 175 44 l 551 44 z "},"е":{"ha":725,"x_min":121,"x_max":606,"o":"m 165 882 l 165 485 l 606 485 l 606 440 l 165 440 l 165 44 l 606 44 l 606 0 l 121 0 l 121 926 l 606 926 l 606 882 l 165 882 z "},"ж":{"ha":725,"x_min":121,"x_max":606,"o":"m 606 0 l 561 0 l 561 243 q 511 374 561 319 q 385 439 461 429 l 385 0 l 342 0 l 342 439 q 215 374 265 429 q 165 243 165 319 l 165 0 l 121 0 l 121 243 q 160 376 121 317 q 264 464 199 435 q 160 552 199 493 q 121 685 121 611 l 121 926 l 165 926 l 165 685 q 215 553 165 608 q 342 488 265 499 l 342 926 l 385 926 l 385 488 q 511 553 461 499 q 561 685 561 608 l 561 926 l 606 926 l 606 685 q 566 552 606 611 q 463 464 526 493 q 566 376 526 435 q 606 243 606 317 l 606 0 z "},"з":{"ha":725,"x_min":121,"x_max":606,"o":"m 364 0 q 192 71 263 0 q 121 243 121 142 l 165 243 q 223 103 165 161 q 364 44 281 44 q 503 103 446 44 q 561 243 561 161 q 503 383 561 325 q 364 442 446 442 l 364 485 q 503 543 446 485 q 561 683 561 601 q 503 824 561 765 q 364 882 446 882 q 223 824 281 882 q 165 683 165 765 l 121 683 q 192 856 121 785 q 364 926 263 926 q 535 856 464 926 q 606 683 606 785 q 567 551 606 610 q 463 463 528 493 q 567 375 528 433 q 606 243 606 317 q 535 71 606 142 q 364 0 464 0 z "},"и":{"ha":725,"x_min":121,"x_max":606,"o":"m 164 926 l 164 115 l 569 926 l 606 926 l 606 0 l 561 0 l 561 811 l 156 0 l 121 0 l 121 926 l 164 926 z "},"й":{"ha":725,"x_min":121,"x_max":606,"o":"m 164 926 l 164 115 l 569 926 l 606 926 l 606 0 l 561 0 l 561 811 l 156 0 l 121 0 l 121 926 l 164 926 m 394 993 l 332 993 l 275 1050 l 307 1081 l 364 1024 l 421 1081 l 451 1050 l 394 993 z "},"к":{"ha":725,"x_min":121,"x_max":606,"o":"m 174 463 l 606 31 l 575 0 l 165 410 l 165 0 l 121 0 l 121 926 l 165 926 l 165 517 l 575 926 l 606 894 l 174 463 z "},"л":{"ha":725,"x_min":122,"x_max":606,"o":"m 563 0 l 364 811 l 164 0 l 122 11 l 346 926 l 381 926 l 606 11 l 563 0 z "},"м":{"ha":725,"x_min":121,"x_max":606,"o":"m 165 0 l 121 0 l 121 926 l 157 926 l 364 513 l 571 926 l 606 926 l 606 0 l 563 0 l 563 811 l 364 414 l 165 811 l 165 0 z "},"н":{"ha":725,"x_min":121,"x_max":606,"o":"m 606 926 l 606 0 l 563 0 l 563 440 l 165 440 l 165 0 l 121 0 l 121 926 l 165 926 l 165 485 l 563 485 l 563 926 l 606 926 z "},"о":{"ha":725,"x_min":121,"x_max":606,"o":"m 364 926 q 535 856 464 926 q 606 683 606 783 l 606 243 q 535 72 606 143 q 364 0 464 0 q 193 72 264 0 q 121 243 121 143 l 121 683 q 193 856 121 783 q 364 926 264 926 m 563 683 q 504 824 563 765 q 364 882 446 882 q 224 824 282 882 q 165 683 165 765 l 165 243 q 224 103 165 161 q 364 44 282 44 q 504 103 446 44 q 563 243 563 161 l 563 683 z "},"п":{"ha":725,"x_min":121,"x_max":607,"o":"m 607 0 l 563 0 l 563 883 l 165 883 l 165 0 l 121 0 l 121 926 l 607 926 l 607 0 z "},"р":{"ha":725,"x_min":121,"x_max":606,"o":"m 364 926 q 535 856 464 926 q 606 683 606 783 q 535 513 606 583 q 364 440 464 440 l 165 440 l 165 0 l 121 0 l 121 926 l 364 926 m 364 485 q 504 543 446 485 q 563 683 563 601 q 504 824 563 765 q 364 882 446 882 l 165 882 l 165 485 l 364 485 z "},"с":{"ha":725,"x_min":121,"x_max":606,"o":"m 364 0 q 193 72 264 0 q 121 243 121 143 l 121 683 q 193 856 121 783 q 364 926 264 926 q 535 856 464 926 q 606 683 606 783 l 563 683 q 504 824 563 765 q 364 882 446 882 q 224 824 282 882 q 165 683 165 765 l 165 243 q 224 103 165 161 q 364 44 282 44 q 504 103 446 44 q 563 243 563 161 l 606 243 q 535 72 606 143 q 364 0 464 0 z "},"т":{"ha":725,"x_min":121,"x_max":606,"o":"m 606 926 l 606 882 l 386 882 l 386 0 l 342 0 l 342 882 l 121 882 l 121 926 l 606 926 z "},"у":{"ha":725,"x_min":121,"x_max":606,"o":"m 142 0 l 121 0 l 121 43 l 142 43 q 281 99 224 43 q 340 239 338 156 l 121 911 l 163 926 l 363 313 l 564 926 l 606 911 l 385 238 q 310 68 379 136 q 142 0 242 0 z "},"ф":{"ha":725,"x_min":121,"x_max":606,"o":"m 385 0 l 340 0 l 340 113 q 183 191 246 124 q 121 353 121 258 l 121 574 q 183 735 121 668 q 340 814 246 803 l 340 926 l 385 926 l 385 814 q 542 735 479 803 q 606 574 606 668 l 606 353 q 542 191 606 258 q 385 113 479 124 l 385 0 m 340 157 l 340 769 q 215 705 265 760 q 164 574 164 650 l 164 353 q 215 222 164 276 q 340 157 265 167 m 385 157 q 511 222 461 167 q 561 353 561 276 l 561 574 q 511 705 561 650 q 385 769 461 760 l 385 157 z "},"х":{"ha":725,"x_min":121,"x_max":606,"o":"m 389 463 l 606 28 l 571 0 l 364 414 l 157 0 l 121 28 l 339 463 l 121 899 l 157 926 l 364 513 l 571 926 l 606 899 l 389 463 z "},"ц":{"ha":725,"x_min":121,"x_max":607,"o":"m 607 -89 l 564 -89 l 564 0 l 121 0 l 121 928 l 165 928 l 165 43 l 564 43 l 564 928 l 607 928 l 607 -89 z "},"ч":{"ha":725,"x_min":119,"x_max":606,"o":"m 606 0 l 561 0 l 561 440 l 363 440 q 191 512 263 440 q 119 683 119 583 l 119 926 l 164 926 l 164 683 q 222 543 164 601 q 363 485 281 485 l 561 485 l 561 926 l 606 926 l 606 0 z "},"ш":{"ha":725,"x_min":121,"x_max":606,"o":"m 606 0 l 121 0 l 121 926 l 165 926 l 165 43 l 342 43 l 342 926 l 385 926 l 385 43 l 561 43 l 561 926 l 606 926 l 606 0 z "},"щ":{"ha":725,"x_min":121,"x_max":607,"o":"m 607 -89 l 564 -89 l 564 0 l 121 0 l 121 928 l 165 928 l 165 43 l 343 43 l 343 928 l 386 928 l 386 43 l 564 43 l 564 928 l 607 928 l 607 -89 z "},"ъ":{"ha":725,"x_min":121,"x_max":606,"o":"m 364 0 l 231 0 l 231 882 l 121 882 l 121 926 l 275 926 l 275 486 l 364 486 q 535 415 464 486 q 606 243 606 343 q 535 72 606 143 q 364 0 464 0 m 364 44 q 503 103 446 44 q 561 243 561 161 q 503 383 561 325 q 364 442 446 442 l 275 442 l 275 44 l 364 44 z "},"ы":{"ha":725,"x_min":121,"x_max":606,"o":"m 606 0 l 561 0 l 561 926 l 606 926 l 606 0 m 143 0 l 121 0 l 121 926 l 165 926 l 165 485 q 322 406 260 474 q 385 243 385 338 q 314 71 385 142 q 143 0 243 0 m 165 46 q 291 111 240 56 q 342 243 342 167 q 291 374 342 319 q 165 440 240 429 l 165 46 z "},"ь":{"ha":725,"x_min":121,"x_max":607,"o":"m 364 0 l 121 0 l 121 926 l 165 926 l 165 485 l 364 485 q 535 414 464 485 q 607 243 607 343 q 535 71 607 142 q 364 0 464 0 m 364 44 q 504 103 446 44 q 563 243 563 161 q 504 383 563 325 q 364 442 446 442 l 165 442 l 165 44 l 364 44 z "},"э":{"ha":725,"x_min":121,"x_max":606,"o":"m 363 0 q 192 71 263 0 q 121 242 121 142 l 164 242 q 222 102 164 160 q 363 44 281 44 q 503 102 444 44 q 561 242 561 160 l 561 440 l 363 440 l 363 485 l 561 485 l 561 683 q 503 824 561 765 q 363 882 444 882 q 222 824 281 882 q 164 683 164 765 l 121 683 q 192 855 121 783 q 363 926 263 926 q 535 855 464 926 q 606 683 606 783 l 606 242 q 535 71 606 142 q 363 0 464 0 z "},"ю":{"ha":725,"x_min":121,"x_max":606,"o":"m 474 0 q 379 39 418 0 q 340 133 340 78 l 340 442 l 164 442 l 164 0 l 121 0 l 121 926 l 164 926 l 164 486 l 340 486 l 340 794 q 379 888 340 850 q 474 926 418 926 q 567 888 528 926 q 606 794 606 850 l 606 133 q 567 39 606 78 q 474 0 528 0 m 474 44 q 535 70 510 44 q 561 133 561 96 l 561 794 q 535 857 561 831 q 474 883 510 883 q 410 857 436 883 q 385 794 385 831 l 385 133 q 410 70 385 96 q 474 44 436 44 z "},"я":{"ha":725,"x_min":119,"x_max":606,"o":"m 606 0 l 561 0 l 561 440 l 376 440 l 160 0 l 119 19 l 329 444 q 179 525 239 458 q 119 683 119 592 q 191 855 119 783 q 363 926 263 926 l 606 926 l 606 0 m 561 485 l 561 882 l 363 882 q 222 824 281 882 q 164 683 164 765 q 222 543 164 601 q 363 485 281 485 l 561 485 z "},"Ё":{"ha":725,"x_min":121,"x_max":606,"o":"m 165 882 l 165 485 l 606 485 l 606 440 l 165 440 l 165 44 l 606 44 l 606 0 l 121 0 l 121 926 l 606 926 l 606 882 l 165 882 m 297 992 l 254 992 l 254 1036 l 297 1036 l 297 992 m 475 992 l 431 992 l 431 1036 l 475 1036 l 475 992 z "},"ё":{"ha":725,"x_min":121,"x_max":606,"o":"m 165 882 l 165 485 l 606 485 l 606 440 l 165 440 l 165 44 l 606 44 l 606 0 l 121 0 l 121 926 l 606 926 l 606 882 l 165 882 m 297 992 l 254 992 l 254 1036 l 297 1036 l 297 992 m 475 992 l 431 992 l 431 1036 l 475 1036 l 475 992 z "},"Þ":{"ha":725,"x_min":121,"x_max":607,"o":"m 165 0 l 121 0 l 121 926 l 165 926 l 165 707 l 364 707 q 535 635 464 707 q 607 464 607 564 q 535 292 607 364 q 364 221 464 221 l 165 221 l 165 0 m 364 265 q 504 324 446 265 q 563 464 563 382 q 504 604 563 546 q 364 663 446 663 l 165 663 l 165 265 l 364 265 z "},"þ":{"ha":725,"x_min":121,"x_max":607,"o":"m 165 0 l 121 0 l 121 926 l 165 926 l 165 707 l 364 707 q 535 635 464 707 q 607 464 607 564 q 535 292 607 364 q 364 221 464 221 l 165 221 l 165 0 m 364 265 q 504 324 446 265 q 563 464 563 382 q 504 604 563 546 q 364 663 446 663 l 165 663 l 165 265 l 364 265 z "},"°":{"ha":725,"x_min":232,"x_max":496,"o":"m 364 663 q 271 701 310 663 q 232 794 232 740 q 271 888 232 849 q 364 926 310 926 q 457 888 418 926 q 496 794 496 849 q 457 701 496 740 q 364 663 418 663 m 364 706 q 426 732 400 706 q 453 794 453 758 q 426 856 453 831 q 364 882 400 882 q 302 856 328 882 q 276 794 276 831 q 302 732 276 758 q 364 706 328 706 z "},"¯":{"ha":725,"x_min":208,"x_max":518,"o":"m 518 992 l 208 992 l 208 1036 l 518 1036 l 518 992 z "},"©":{"ha":725,"x_min":121,"x_max":606,"o":"m 363 331 q 270 370 310 331 q 231 463 231 410 q 270 555 231 515 q 363 594 310 594 q 457 556 418 594 l 472 540 l 440 510 l 425 525 q 363 551 399 551 q 300 525 328 551 q 275 463 275 497 q 300 400 275 428 q 363 375 329 375 q 440 415 400 375 l 472 385 l 457 369 q 363 331 417 331 m 363 219 q 192 291 263 219 q 121 463 121 363 q 192 634 121 563 q 363 706 263 706 q 535 634 464 706 q 606 463 606 563 q 535 291 606 363 q 363 219 464 219 m 363 264 q 503 322 444 264 q 561 463 561 381 q 503 603 561 544 q 363 661 444 661 q 222 603 281 661 q 164 463 164 544 q 222 322 164 381 q 363 264 281 264 z "},"₽":{"ha":725,"x_min":121,"x_max":606,"o":"m 165 0 l 121 0 l 121 926 l 364 926 q 535 855 464 926 q 606 683 606 783 q 535 512 606 583 q 364 440 464 440 l 165 440 l 165 264 l 364 264 l 364 221 l 165 221 l 165 0 m 364 485 q 504 543 446 485 q 563 683 563 601 q 504 824 563 765 q 364 882 446 882 l 165 882 l 165 485 l 364 485 z "},"†":{"ha":725,"x_min":121,"x_max":607,"o":"m 386 0 l 342 0 l 342 661 l 121 661 l 121 706 l 342 706 l 342 926 l 386 926 l 386 706 l 607 706 l 607 661 l 386 661 l 386 0 z "},"‡":{"ha":725,"x_min":121,"x_max":606,"o":"m 386 0 l 342 0 l 342 219 l 121 219 l 121 264 l 342 264 l 342 661 l 121 661 l 121 706 l 342 706 l 342 926 l 386 926 l 386 706 l 606 706 l 606 661 l 386 661 l 386 264 l 606 264 l 606 219 l 386 219 l 386 0 z "},"‼":{"ha":725,"x_min":121,"x_max":606,"o":"m 164 242 l 121 242 l 121 926 l 164 926 l 164 242 m 164 0 l 121 0 l 121 43 l 164 43 l 164 0 m 606 242 l 561 242 l 561 926 l 606 926 l 606 242 m 606 0 l 561 0 l 561 43 l 606 43 l 606 0 z "},"¦":{"ha":725,"x_min":342,"x_max":386,"o":"m 386 574 l 342 574 l 342 926 l 386 926 l 386 574 m 386 0 l 342 0 l 342 353 l 386 353 l 386 0 z "},"Ð":{"ha":725,"x_min":121,"x_max":606,"o":"m 363 0 l 121 0 l 121 926 l 363 926 q 535 856 464 926 q 606 683 606 785 l 606 243 q 535 72 606 143 q 363 0 464 0 m 363 44 q 503 103 446 44 q 561 243 561 161 l 561 683 q 503 824 561 765 q 363 882 446 882 l 165 882 l 165 485 l 363 485 l 363 442 l 165 442 l 165 44 l 363 44 z "},"ð":{"ha":725,"x_min":121,"x_max":606,"o":"m 363 0 l 121 0 l 121 926 l 363 926 q 535 856 464 926 q 606 683 606 785 l 606 243 q 535 72 606 143 q 363 0 464 0 m 363 44 q 503 103 446 44 q 561 243 561 161 l 561 683 q 503 824 561 765 q 363 882 446 882 l 165 882 l 165 485 l 363 485 l 363 442 l 165 442 l 165 44 l 363 44 z "},"Đ":{"ha":725,"x_min":121,"x_max":606,"o":"m 363 0 l 121 0 l 121 926 l 363 926 q 535 856 464 926 q 606 683 606 785 l 606 243 q 535 72 606 143 q 363 0 464 0 m 363 44 q 503 103 446 44 q 561 243 561 161 l 561 683 q 503 824 561 765 q 363 882 446 882 l 165 882 l 165 485 l 363 485 l 363 442 l 165 442 l 165 44 l 363 44 z "},"đ":{"ha":725,"x_min":121,"x_max":606,"o":"m 363 0 l 121 0 l 121 926 l 363 926 q 535 856 464 926 q 606 683 606 785 l 606 243 q 535 72 606 143 q 363 0 464 0 m 363 44 q 503 103 446 44 q 561 243 561 161 l 561 683 q 503 824 561 765 q 363 882 446 882 l 165 882 l 165 485 l 363 485 l 363 442 l 165 442 l 165 44 l 363 44 z "},"ſ":{"ha":725,"x_min":342,"x_max":606,"o":"m 385 0 l 342 0 l 342 685 q 413 856 342 785 q 583 926 483 926 l 606 926 l 606 883 l 583 883 q 443 825 501 883 q 385 685 385 767 l 385 0 z "},"¬":{"ha":725,"x_min":121,"x_max":607,"o":"m 607 243 l 563 243 l 563 661 l 121 661 l 121 706 l 607 706 l 607 243 z "},"Ѓ":{"ha":725,"x_min":121,"x_max":606,"o":"m 164 0 l 121 0 l 121 926 l 606 926 l 606 882 l 164 882 l 164 0 m 394 993 l 332 993 l 421 1081 l 451 1050 l 394 993 z "},"ѓ":{"ha":725,"x_min":121,"x_max":606,"o":"m 164 0 l 121 0 l 121 926 l 606 926 l 606 882 l 164 882 l 164 0 m 394 993 l 332 993 l 421 1081 l 451 1050 l 394 993 z "},"•":{"ha":725,"x_min":232,"x_max":496,"o":"m 364 331 q 271 369 310 331 q 232 463 232 408 q 271 557 232 518 q 364 596 310 596 q 458 557 419 596 q 496 463 496 518 q 458 369 496 408 q 364 331 419 331 m 364 375 q 426 401 400 375 q 453 463 453 426 q 426 526 453 500 q 364 551 400 551 q 302 526 328 551 q 276 463 276 500 q 302 401 276 426 q 364 375 328 375 z "},"◦":{"ha":725,"x_min":232,"x_max":496,"o":"m 364 331 q 271 369 310 331 q 232 463 232 408 q 271 557 232 518 q 364 596 310 596 q 458 557 419 596 q 496 463 496 518 q 458 369 496 408 q 364 331 419 331 m 364 375 q 426 401 400 375 q 453 463 453 426 q 426 526 453 500 q 364 551 400 551 q 302 526 328 551 q 276 463 276 500 q 302 401 276 426 q 364 375 328 375 z "},"Ƶ":{"ha":725,"x_min":107,"x_max":619,"o":"m 376 440 l 179 44 l 606 44 l 606 0 l 107 0 l 328 440 l 121 440 l 121 485 l 350 485 l 549 882 l 121 882 l 121 926 l 619 926 l 399 485 l 606 485 l 606 440 l 376 440 z "},"ƶ":{"ha":725,"x_min":107,"x_max":619,"o":"m 376 440 l 179 44 l 606 44 l 606 0 l 107 0 l 328 440 l 121 440 l 121 485 l 350 485 l 549 882 l 121 882 l 121 926 l 619 926 l 399 485 l 606 485 l 606 440 l 376 440 z "},"Є":{"ha":725,"x_min":121,"x_max":606,"o":"m 363 0 q 192 71 263 0 q 121 242 121 142 l 121 683 q 192 855 121 783 q 363 926 263 926 q 535 855 464 926 q 606 683 606 783 l 561 683 q 503 824 561 765 q 363 882 444 882 q 222 824 281 882 q 164 683 164 765 l 164 485 l 363 485 l 363 440 l 164 440 l 164 242 q 222 102 164 160 q 363 44 281 44 q 503 102 444 44 q 561 242 561 160 l 606 242 q 535 71 606 142 q 363 0 464 0 z "},"є":{"ha":725,"x_min":121,"x_max":606,"o":"m 363 0 q 192 71 263 0 q 121 242 121 142 l 121 683 q 192 855 121 783 q 363 926 263 926 q 535 855 464 926 q 606 683 606 783 l 561 683 q 503 824 561 765 q 363 882 444 882 q 222 824 281 882 q 164 683 164 765 l 164 485 l 363 485 l 363 440 l 164 440 l 164 242 q 222 102 164 160 q 363 44 281 44 q 503 102 444 44 q 561 242 561 160 l 606 242 q 535 71 606 142 q 363 0 464 0 z "},"Ѕ":{"ha":725,"x_min":122,"x_max":607,"o":"m 364 0 q 193 71 264 0 q 122 242 122 142 l 165 242 q 224 103 165 161 q 364 44 282 44 q 504 103 446 44 q 563 242 563 160 q 504 383 563 324 q 364 442 446 442 q 193 513 264 442 q 122 683 122 582 q 193 856 122 785 q 364 926 264 926 q 536 856 465 926 q 607 683 607 785 l 563 683 q 504 824 563 765 q 364 881 446 881 q 224 824 282 881 q 165 683 165 765 q 224 543 165 601 q 364 485 282 485 q 536 414 465 485 q 607 242 607 343 q 536 71 607 142 q 364 0 465 0 z "},"ѕ":{"ha":725,"x_min":122,"x_max":607,"o":"m 364 0 q 193 71 264 0 q 122 242 122 142 l 165 242 q 224 103 165 161 q 364 44 282 44 q 504 103 446 44 q 563 242 563 160 q 504 383 563 324 q 364 442 446 442 q 193 513 264 442 q 122 683 122 582 q 193 856 122 785 q 364 926 264 926 q 536 856 465 926 q 607 683 607 785 l 563 683 q 504 824 563 765 q 364 881 446 881 q 224 824 282 881 q 165 683 165 765 q 224 543 165 601 q 364 485 282 485 q 536 414 465 485 q 607 242 607 343 q 536 71 607 142 q 364 0 465 0 z "},"Ѐ":{"ha":725,"x_min":121,"x_max":606,"o":"m 165 882 l 165 485 l 606 485 l 606 440 l 165 440 l 165 44 l 606 44 l 606 0 l 121 0 l 121 926 l 606 926 l 606 882 l 165 882 m 394 993 l 332 993 l 275 1050 l 307 1081 l 394 993 z "},"ѐ":{"ha":725,"x_min":121,"x_max":606,"o":"m 165 882 l 165 485 l 606 485 l 606 440 l 165 440 l 165 44 l 606 44 l 606 0 l 121 0 l 121 926 l 606 926 l 606 882 l 165 882 m 394 993 l 332 993 l 275 1050 l 307 1081 l 394 993 z "},"І":{"ha":725,"x_min":121,"x_max":606,"o":"m 386 882 l 386 44 l 606 44 l 606 0 l 121 0 l 121 44 l 342 44 l 342 882 l 121 882 l 121 926 l 606 926 l 606 882 l 386 882 z "},"і":{"ha":725,"x_min":121,"x_max":606,"o":"m 386 882 l 386 44 l 606 44 l 606 0 l 121 0 l 121 44 l 342 44 l 342 882 l 121 882 l 121 926 l 606 926 l 606 882 l 386 882 z "},"Ї":{"ha":725,"x_min":121,"x_max":606,"o":"m 386 882 l 386 44 l 606 44 l 606 0 l 121 0 l 121 44 l 342 44 l 342 882 l 121 882 l 121 926 l 606 926 l 606 882 l 386 882 m 297 992 l 254 992 l 254 1036 l 297 1036 l 297 992 m 475 992 l 431 992 l 431 1036 l 475 1036 l 475 992 z "},"ї":{"ha":725,"x_min":121,"x_max":606,"o":"m 386 882 l 386 44 l 606 44 l 606 0 l 121 0 l 121 44 l 342 44 l 342 882 l 121 882 l 121 926 l 606 926 l 606 882 l 386 882 m 297 992 l 254 992 l 254 1036 l 297 1036 l 297 992 m 475 992 l 431 992 l 431 1036 l 475 1036 l 475 992 z "},"Ј":{"ha":725,"x_min":121,"x_max":606,"o":"m 606 926 l 606 243 q 535 72 606 143 q 364 0 464 0 q 193 72 264 0 q 121 243 121 143 l 165 243 q 224 103 165 161 q 364 44 282 44 q 504 103 446 44 q 563 243 563 161 l 563 926 l 606 926 z "},"ј":{"ha":725,"x_min":121,"x_max":606,"o":"m 606 926 l 606 243 q 535 72 606 143 q 364 0 464 0 q 193 72 264 0 q 121 243 121 143 l 165 243 q 224 103 165 161 q 364 44 282 44 q 504 103 446 44 q 563 243 563 161 l 563 926 l 606 926 z "},"Ќ":{"ha":725,"x_min":121,"x_max":606,"o":"m 174 463 l 606 31 l 575 0 l 165 410 l 165 0 l 121 0 l 121 926 l 165 926 l 165 517 l 575 926 l 606 894 l 174 463 m 394 993 l 332 993 l 421 1081 l 451 1050 l 394 993 z "},"ќ":{"ha":725,"x_min":121,"x_max":606,"o":"m 174 463 l 606 31 l 575 0 l 165 410 l 165 0 l 121 0 l 121 926 l 165 926 l 165 517 l 575 926 l 606 894 l 174 463 m 394 993 l 332 993 l 421 1081 l 451 1050 l 394 993 z "},"Ѝ":{"ha":725,"x_min":121,"x_max":606,"o":"m 164 926 l 164 115 l 569 926 l 606 926 l 606 0 l 561 0 l 561 811 l 156 0 l 121 0 l 121 926 l 164 926 m 394 993 l 332 993 l 275 1050 l 307 1081 l 394 993 z "},"ѝ":{"ha":725,"x_min":121,"x_max":606,"o":"m 164 926 l 164 115 l 569 926 l 606 926 l 606 0 l 561 0 l 561 811 l 156 0 l 121 0 l 121 926 l 164 926 m 394 993 l 332 993 l 275 1050 l 307 1081 l 394 993 z "},"Ў":{"ha":725,"x_min":121,"x_max":606,"o":"m 142 0 l 121 0 l 121 43 l 142 43 q 281 99 224 43 q 340 239 338 156 l 121 911 l 163 926 l 363 313 l 564 926 l 606 911 l 385 238 q 310 68 379 136 q 142 0 242 0 m 394 993 l 332 993 l 275 1050 l 307 1081 l 364 1024 l 421 1081 l 451 1050 l 394 993 z "},"ў":{"ha":725,"x_min":121,"x_max":606,"o":"m 142 0 l 121 0 l 121 43 l 142 43 q 281 99 224 43 q 340 239 338 156 l 121 911 l 163 926 l 363 313 l 564 926 l 606 911 l 385 238 q 310 68 379 136 q 142 0 242 0 m 394 993 l 332 993 l 275 1050 l 307 1081 l 364 1024 l 421 1081 l 451 1050 l 394 993 z "},"Ă":{"ha":725,"x_min":121,"x_max":607,"o":"m 364 926 q 536 856 465 926 q 607 683 607 785 l 607 0 l 561 0 l 561 442 l 165 442 l 165 0 l 121 0 l 121 683 q 192 856 121 785 q 364 926 263 926 m 561 683 q 504 824 561 765 q 364 882 446 882 q 224 824 282 882 q 165 683 165 765 l 165 485 l 561 485 l 561 683 m 394 993 l 332 993 l 275 1050 l 307 1081 l 364 1024 l 421 1081 l 451 1050 l 394 993 z "},"ă":{"ha":725,"x_min":121,"x_max":607,"o":"m 364 926 q 536 856 465 926 q 607 683 607 785 l 607 0 l 561 0 l 561 442 l 165 442 l 165 0 l 121 0 l 121 683 q 192 856 121 785 q 364 926 263 926 m 561 683 q 504 824 561 765 q 364 882 446 882 q 224 824 282 882 q 165 683 165 765 l 165 485 l 561 485 l 561 683 m 394 993 l 332 993 l 275 1050 l 307 1081 l 364 1024 l 421 1081 l 451 1050 l 394 993 z "},"Ŏ":{"ha":725,"x_min":121,"x_max":606,"o":"m 364 926 q 535 856 464 926 q 606 683 606 783 l 606 243 q 535 72 606 143 q 364 0 464 0 q 193 72 264 0 q 121 243 121 143 l 121 683 q 193 856 121 783 q 364 926 264 926 m 563 683 q 504 824 563 765 q 364 882 446 882 q 224 824 282 882 q 165 683 165 765 l 165 243 q 224 103 165 161 q 364 44 282 44 q 504 103 446 44 q 563 243 563 161 l 563 683 m 394 993 l 332 993 l 275 1050 l 307 1081 l 364 1024 l 421 1081 l 451 1050 l 394 993 z "},"ŏ":{"ha":725,"x_min":121,"x_max":606,"o":"m 364 926 q 535 856 464 926 q 606 683 606 783 l 606 243 q 535 72 606 143 q 364 0 464 0 q 193 72 264 0 q 121 243 121 143 l 121 683 q 193 856 121 783 q 364 926 264 926 m 563 683 q 504 824 563 765 q 364 882 446 882 q 224 824 282 882 q 165 683 165 765 l 165 243 q 224 103 165 161 q 364 44 282 44 q 504 103 446 44 q 563 243 563 161 l 563 683 m 394 993 l 332 993 l 275 1050 l 307 1081 l 364 1024 l 421 1081 l 451 1050 l 394 993 z "},"Ŭ":{"ha":725,"x_min":121,"x_max":606,"o":"m 606 926 l 606 243 q 535 72 606 143 q 364 0 464 0 q 193 72 264 0 q 121 243 121 143 l 121 926 l 165 926 l 165 243 q 224 103 165 161 q 364 44 282 44 q 504 103 446 44 q 561 243 561 161 l 561 926 l 606 926 m 394 993 l 332 993 l 275 1050 l 307 1081 l 364 1024 l 421 1081 l 451 1050 l 394 993 z "},"ŭ":{"ha":725,"x_min":121,"x_max":606,"o":"m 606 926 l 606 243 q 535 72 606 143 q 364 0 464 0 q 193 72 264 0 q 121 243 121 143 l 121 926 l 165 926 l 165 243 q 224 103 165 161 q 364 44 282 44 q 504 103 446 44 q 561 243 561 161 l 561 926 l 606 926 m 394 993 l 332 993 l 275 1050 l 307 1081 l 364 1024 l 421 1081 l 451 1050 l 394 993 z "},"Ĕ":{"ha":725,"x_min":121,"x_max":606,"o":"m 165 882 l 165 485 l 606 485 l 606 440 l 165 440 l 165 44 l 606 44 l 606 0 l 121 0 l 121 926 l 606 926 l 606 882 l 165 882 m 394 993 l 332 993 l 275 1050 l 307 1081 l 364 1024 l 421 1081 l 451 1050 l 394 993 z "},"ĕ":{"ha":725,"x_min":121,"x_max":606,"o":"m 165 882 l 165 485 l 606 485 l 606 440 l 165 440 l 165 44 l 606 44 l 606 0 l 121 0 l 121 926 l 606 926 l 606 882 l 165 882 m 394 993 l 332 993 l 275 1050 l 307 1081 l 364 1024 l 421 1081 l 451 1050 l 394 993 z "},"Ĭ":{"ha":725,"x_min":121,"x_max":606,"o":"m 386 882 l 386 44 l 606 44 l 606 0 l 121 0 l 121 44 l 342 44 l 342 882 l 121 882 l 121 926 l 606 926 l 606 882 l 386 882 m 394 993 l 332 993 l 275 1050 l 307 1081 l 364 1024 l 421 1081 l 451 1050 l 394 993 z "},"ĭ":{"ha":725,"x_min":121,"x_max":606,"o":"m 386 882 l 386 44 l 606 44 l 606 0 l 121 0 l 121 44 l 342 44 l 342 882 l 121 882 l 121 926 l 606 926 l 606 882 l 386 882 m 394 993 l 332 993 l 275 1050 l 307 1081 l 364 1024 l 421 1081 l 451 1050 l 394 993 z "},"Α":{"ha":725,"x_min":121,"x_max":607,"o":"m 364 926 q 536 856 465 926 q 607 683 607 785 l 607 0 l 561 0 l 561 442 l 165 442 l 165 0 l 121 0 l 121 683 q 192 856 121 785 q 364 926 263 926 m 561 683 q 504 824 561 765 q 364 882 446 882 q 224 824 282 882 q 165 683 165 765 l 165 485 l 561 485 l 561 683 z "},"α":{"ha":725,"x_min":121,"x_max":607,"o":"m 364 926 q 536 856 465 926 q 607 683 607 785 l 607 0 l 561 0 l 561 442 l 165 442 l 165 0 l 121 0 l 121 683 q 192 856 121 785 q 364 926 263 926 m 561 683 q 504 824 561 765 q 364 882 446 882 q 224 824 282 882 q 165 683 165 765 l 165 485 l 561 485 l 561 683 z "},"Β":{"ha":725,"x_min":121,"x_max":606,"o":"m 464 463 q 567 376 528 433 q 606 243 606 315 q 535 72 606 143 q 364 0 464 0 l 121 0 l 121 926 l 364 926 q 535 856 464 926 q 606 683 606 783 q 567 550 606 611 q 464 463 528 492 m 165 485 l 364 485 q 504 543 446 485 q 563 683 563 601 q 504 824 563 765 q 364 882 446 882 l 165 882 l 165 485 m 364 44 q 504 103 446 44 q 563 243 563 161 q 504 383 563 325 q 364 442 446 442 l 165 442 l 165 44 l 364 44 z "},"β":{"ha":725,"x_min":121,"x_max":606,"o":"m 464 463 q 567 376 528 433 q 606 243 606 315 q 535 72 606 143 q 364 0 464 0 l 121 0 l 121 926 l 364 926 q 535 856 464 926 q 606 683 606 783 q 567 550 606 611 q 464 463 528 492 m 165 485 l 364 485 q 504 543 446 485 q 563 683 563 601 q 504 824 563 765 q 364 882 446 882 l 165 882 l 165 485 m 364 44 q 504 103 446 44 q 563 243 563 161 q 504 383 563 325 q 364 442 446 442 l 165 442 l 165 44 l 364 44 z "},"Γ":{"ha":725,"x_min":121,"x_max":606,"o":"m 164 0 l 121 0 l 121 926 l 606 926 l 606 882 l 164 882 l 164 0 z "},"γ":{"ha":725,"x_min":121,"x_max":606,"o":"m 164 0 l 121 0 l 121 926 l 606 926 l 606 882 l 164 882 l 164 0 z "},"Δ":{"ha":725,"x_min":121,"x_max":606,"o":"m 606 0 l 121 0 l 121 44 l 129 44 l 346 926 l 381 926 l 597 44 l 606 44 l 606 0 m 551 44 l 363 811 l 175 44 l 551 44 z "},"δ":{"ha":725,"x_min":121,"x_max":606,"o":"m 606 0 l 121 0 l 121 44 l 129 44 l 346 926 l 381 926 l 597 44 l 606 44 l 606 0 m 551 44 l 363 811 l 175 44 l 551 44 z "},"Ε":{"ha":725,"x_min":121,"x_max":606,"o":"m 165 882 l 165 485 l 606 485 l 606 440 l 165 440 l 165 44 l 606 44 l 606 0 l 121 0 l 121 926 l 606 926 l 606 882 l 165 882 z "},"ε":{"ha":725,"x_min":121,"x_max":606,"o":"m 165 882 l 165 485 l 606 485 l 606 440 l 165 440 l 165 44 l 606 44 l 606 0 l 121 0 l 121 926 l 606 926 l 606 882 l 165 882 z "},"Ζ":{"ha":725,"x_min":107,"x_max":619,"o":"m 107 0 l 549 882 l 121 882 l 121 926 l 619 926 l 179 44 l 606 44 l 606 0 l 107 0 z "},"ζ":{"ha":725,"x_min":107,"x_max":619,"o":"m 107 0 l 549 882 l 121 882 l 121 926 l 619 926 l 179 44 l 606 44 l 606 0 l 107 0 z "},"Η":{"ha":725,"x_min":121,"x_max":606,"o":"m 606 926 l 606 0 l 563 0 l 563 440 l 165 440 l 165 0 l 121 0 l 121 926 l 165 926 l 165 485 l 563 485 l 563 926 l 606 926 z "},"η":{"ha":725,"x_min":121,"x_max":606,"o":"m 606 926 l 606 0 l 563 0 l 563 440 l 165 440 l 165 0 l 121 0 l 121 926 l 165 926 l 165 485 l 563 485 l 563 926 l 606 926 z "},"Θ":{"ha":725,"x_min":121,"x_max":606,"o":"m 475 442 l 254 442 l 254 485 l 475 485 l 475 442 m 364 44 q 504 103 446 44 q 563 243 563 161 l 563 683 q 504 824 563 765 q 364 882 446 882 q 224 824 282 882 q 165 683 165 765 l 165 243 q 224 103 165 161 q 364 44 282 44 m 364 0 q 192 72 264 0 q 121 243 121 143 l 121 683 q 192 855 121 783 q 364 926 264 926 q 535 855 464 926 q 606 683 606 783 l 606 243 q 535 72 606 143 q 364 0 464 0 z "},"θ":{"ha":725,"x_min":121,"x_max":606,"o":"m 475 442 l 254 442 l 254 485 l 475 485 l 475 442 m 364 44 q 504 103 446 44 q 563 243 563 161 l 563 683 q 504 824 563 765 q 364 882 446 882 q 224 824 282 882 q 165 683 165 765 l 165 243 q 224 103 165 161 q 364 44 282 44 m 364 0 q 192 72 264 0 q 121 243 121 143 l 121 683 q 192 855 121 783 q 364 926 264 926 q 535 855 464 926 q 606 683 606 783 l 606 243 q 535 72 606 143 q 364 0 464 0 z "},"Ι":{"ha":725,"x_min":121,"x_max":606,"o":"m 386 882 l 386 44 l 606 44 l 606 0 l 121 0 l 121 44 l 342 44 l 342 882 l 121 882 l 121 926 l 606 926 l 606 882 l 386 882 z "},"ι":{"ha":725,"x_min":121,"x_max":606,"o":"m 386 882 l 386 44 l 606 44 l 606 0 l 121 0 l 121 44 l 342 44 l 342 882 l 121 882 l 121 926 l 606 926 l 606 882 l 386 882 z "},"Κ":{"ha":725,"x_min":121,"x_max":606,"o":"m 174 463 l 606 31 l 575 0 l 165 410 l 165 0 l 121 0 l 121 926 l 165 926 l 165 517 l 575 926 l 606 894 l 174 463 z "},"κ":{"ha":725,"x_min":121,"x_max":606,"o":"m 174 463 l 606 31 l 575 0 l 165 410 l 165 0 l 121 0 l 121 926 l 165 926 l 165 517 l 575 926 l 606 894 l 174 463 z "},"Λ":{"ha":725,"x_min":122,"x_max":606,"o":"m 563 0 l 364 811 l 164 0 l 122 11 l 346 926 l 381 926 l 606 11 l 563 0 z "},"λ":{"ha":725,"x_min":122,"x_max":606,"o":"m 563 0 l 364 811 l 164 0 l 122 11 l 346 926 l 381 926 l 606 11 l 563 0 z "},"Μ":{"ha":725,"x_min":121,"x_max":606,"o":"m 165 0 l 121 0 l 121 926 l 157 926 l 364 513 l 571 926 l 606 926 l 606 0 l 563 0 l 563 811 l 364 414 l 165 811 l 165 0 z "},"μ":{"ha":725,"x_min":121,"x_max":606,"o":"m 165 0 l 121 0 l 121 926 l 157 926 l 364 513 l 571 926 l 606 926 l 606 0 l 563 0 l 563 811 l 364 414 l 165 811 l 165 0 z "},"Ν":{"ha":725,"x_min":121,"x_max":606,"o":"m 563 926 l 606 926 l 606 0 l 571 0 l 165 811 l 165 0 l 121 0 l 121 926 l 157 926 l 563 115 l 563 926 z "},"ν":{"ha":725,"x_min":121,"x_max":606,"o":"m 563 926 l 606 926 l 606 0 l 571 0 l 165 811 l 165 0 l 121 0 l 121 926 l 157 926 l 563 115 l 563 926 z "},"Ξ":{"ha":725,"x_min":121,"x_max":606,"o":"m 606 882 l 121 882 l 121 926 l 606 926 l 606 882 m 606 0 l 121 0 l 121 44 l 606 44 l 606 0 m 606 442 l 121 442 l 121 485 l 606 485 l 606 442 z "},"ξ":{"ha":725,"x_min":121,"x_max":606,"o":"m 606 882 l 121 882 l 121 926 l 606 926 l 606 882 m 606 0 l 121 0 l 121 44 l 606 44 l 606 0 m 606 442 l 121 442 l 121 485 l 606 485 l 606 442 z "},"Ο":{"ha":725,"x_min":121,"x_max":606,"o":"m 364 926 q 535 856 464 926 q 606 683 606 783 l 606 243 q 535 72 606 143 q 364 0 464 0 q 193 72 264 0 q 121 243 121 143 l 121 683 q 193 856 121 783 q 364 926 264 926 m 563 683 q 504 824 563 765 q 364 882 446 882 q 224 824 282 882 q 165 683 165 765 l 165 243 q 224 103 165 161 q 364 44 282 44 q 504 103 446 44 q 563 243 563 161 l 563 683 z "},"ο":{"ha":725,"x_min":121,"x_max":606,"o":"m 364 926 q 535 856 464 926 q 606 683 606 783 l 606 243 q 535 72 606 143 q 364 0 464 0 q 193 72 264 0 q 121 243 121 143 l 121 683 q 193 856 121 783 q 364 926 264 926 m 563 683 q 504 824 563 765 q 364 882 446 882 q 224 824 282 882 q 165 683 165 765 l 165 243 q 224 103 165 161 q 364 44 282 44 q 504 103 446 44 q 563 243 563 161 l 563 683 z "},"Ρ":{"ha":725,"x_min":121,"x_max":606,"o":"m 364 926 q 535 856 464 926 q 606 683 606 783 q 535 513 606 583 q 364 440 464 440 l 165 440 l 165 0 l 121 0 l 121 926 l 364 926 m 364 485 q 504 543 446 485 q 563 683 563 601 q 504 824 563 765 q 364 882 446 882 l 165 882 l 165 485 l 364 485 z "},"ρ":{"ha":725,"x_min":121,"x_max":606,"o":"m 364 926 q 535 856 464 926 q 606 683 606 783 q 535 513 606 583 q 364 440 464 440 l 165 440 l 165 0 l 121 0 l 121 926 l 364 926 m 364 485 q 504 543 446 485 q 563 683 563 601 q 504 824 563 765 q 364 882 446 882 l 165 882 l 165 485 l 364 485 z "},"Σ":{"ha":725,"x_min":121,"x_max":607,"o":"m 607 0 l 121 0 l 121 44 l 339 463 l 121 882 l 121 926 l 607 926 l 607 882 l 171 882 l 389 463 l 171 44 l 607 44 l 607 0 z "},"σ":{"ha":725,"x_min":121,"x_max":607,"o":"m 607 0 l 121 0 l 121 44 l 339 463 l 121 882 l 121 926 l 607 926 l 607 882 l 171 882 l 389 463 l 171 44 l 607 44 l 607 0 z "},"Τ":{"ha":725,"x_min":121,"x_max":606,"o":"m 606 926 l 606 882 l 386 882 l 386 0 l 342 0 l 342 882 l 121 882 l 121 926 l 606 926 z "},"τ":{"ha":725,"x_min":121,"x_max":606,"o":"m 606 926 l 606 882 l 386 882 l 386 0 l 342 0 l 342 882 l 121 882 l 121 926 l 606 926 z "},"Υ":{"ha":725,"x_min":121,"x_max":606,"o":"m 606 899 l 385 458 l 385 0 l 340 0 l 340 458 l 121 899 l 156 926 l 363 513 l 569 926 l 606 899 z "},"υ":{"ha":725,"x_min":121,"x_max":606,"o":"m 606 899 l 385 458 l 385 0 l 340 0 l 340 458 l 121 899 l 156 926 l 363 513 l 569 926 l 606 899 z "},"Φ":{"ha":725,"x_min":121,"x_max":606,"o":"m 385 0 l 340 0 l 340 113 q 183 191 246 124 q 121 353 121 258 l 121 574 q 183 735 121 668 q 340 814 246 803 l 340 926 l 385 926 l 385 814 q 542 735 479 803 q 606 574 606 668 l 606 353 q 542 191 606 258 q 385 113 479 124 l 385 0 m 340 157 l 340 769 q 215 705 265 760 q 164 574 164 650 l 164 353 q 215 222 164 276 q 340 157 265 167 m 385 157 q 511 222 461 167 q 561 353 561 276 l 561 574 q 511 705 561 650 q 385 769 461 760 l 385 157 z "},"φ":{"ha":725,"x_min":121,"x_max":606,"o":"m 385 0 l 340 0 l 340 113 q 183 191 246 124 q 121 353 121 258 l 121 574 q 183 735 121 668 q 340 814 246 803 l 340 926 l 385 926 l 385 814 q 542 735 479 803 q 606 574 606 668 l 606 353 q 542 191 606 258 q 385 113 479 124 l 385 0 m 340 157 l 340 769 q 215 705 265 760 q 164 574 164 650 l 164 353 q 215 222 164 276 q 340 157 265 167 m 385 157 q 511 222 461 167 q 561 353 561 276 l 561 574 q 511 705 561 650 q 385 769 461 760 l 385 157 z "},"Χ":{"ha":725,"x_min":121,"x_max":606,"o":"m 389 463 l 606 28 l 571 0 l 364 414 l 157 0 l 121 28 l 339 463 l 121 899 l 157 926 l 364 513 l 571 926 l 606 899 l 389 463 z "},"χ":{"ha":725,"x_min":121,"x_max":606,"o":"m 389 463 l 606 28 l 571 0 l 364 414 l 157 0 l 121 28 l 339 463 l 121 899 l 157 926 l 364 513 l 571 926 l 606 899 l 389 463 z "},"Ψ":{"ha":725,"x_min":121,"x_max":606,"o":"m 386 0 l 342 0 l 342 443 q 184 522 247 454 q 121 683 121 589 l 121 926 l 165 926 l 165 683 q 215 552 165 607 q 342 488 265 497 l 342 926 l 386 926 l 386 488 q 512 552 461 497 q 563 683 563 607 l 563 926 l 606 926 l 606 683 q 543 522 606 589 q 386 443 481 454 l 386 0 z "},"ψ":{"ha":725,"x_min":121,"x_max":606,"o":"m 386 0 l 342 0 l 342 443 q 184 522 247 454 q 121 683 121 589 l 121 926 l 165 926 l 165 683 q 215 552 165 607 q 342 488 265 497 l 342 926 l 386 926 l 386 488 q 512 552 461 497 q 563 683 563 607 l 563 926 l 606 926 l 606 683 q 543 522 606 589 q 386 443 481 454 l 386 0 z "},"Ω":{"ha":725,"x_min":121,"x_max":607,"o":"m 607 0 l 453 0 l 453 65 q 563 243 563 126 l 563 685 q 504 824 563 767 q 364 882 446 882 q 224 824 282 882 q 165 685 165 767 l 165 243 q 275 65 165 126 l 275 0 l 121 0 l 121 44 l 225 44 q 121 243 121 119 l 121 685 q 192 856 121 785 q 364 926 264 926 q 535 856 464 926 q 607 685 607 785 l 607 243 q 503 44 607 119 l 607 44 l 607 0 z "},"ω":{"ha":725,"x_min":121,"x_max":607,"o":"m 607 0 l 453 0 l 453 65 q 563 243 563 126 l 563 685 q 504 824 563 767 q 364 882 446 882 q 224 824 282 882 q 165 685 165 767 l 165 243 q 275 65 165 126 l 275 0 l 121 0 l 121 44 l 225 44 q 121 243 121 119 l 121 685 q 192 856 121 785 q 364 926 264 926 q 535 856 464 926 q 607 685 607 785 l 607 243 q 503 44 607 119 l 607 44 l 607 0 z "},"Π":{"ha":725,"x_min":121,"x_max":607,"o":"m 607 0 l 563 0 l 563 883 l 165 883 l 165 0 l 121 0 l 121 926 l 607 926 l 607 0 z "},"π":{"ha":725,"x_min":121,"x_max":607,"o":"m 607 0 l 563 0 l 563 883 l 165 883 l 165 0 l 121 0 l 121 926 l 607 926 l 607 0 z "},"Ϊ":{"ha":725,"x_min":121,"x_max":606,"o":"m 386 882 l 386 44 l 606 44 l 606 0 l 121 0 l 121 44 l 342 44 l 342 882 l 121 882 l 121 926 l 606 926 l 606 882 l 386 882 m 297 992 l 254 992 l 254 1036 l 297 1036 l 297 992 m 475 992 l 431 992 l 431 1036 l 475 1036 l 475 992 z "},"ϊ":{"ha":725,"x_min":121,"x_max":606,"o":"m 386 882 l 386 44 l 606 44 l 606 0 l 121 0 l 121 44 l 342 44 l 342 882 l 121 882 l 121 926 l 606 926 l 606 882 l 386 882 m 297 992 l 254 992 l 254 1036 l 297 1036 l 297 992 m 475 992 l 431 992 l 431 1036 l 475 1036 l 475 992 z "},"Ϋ":{"ha":725,"x_min":121,"x_max":606,"o":"m 606 899 l 385 458 l 385 0 l 340 0 l 340 458 l 121 899 l 156 926 l 363 513 l 569 926 l 606 899 m 297 992 l 254 992 l 254 1036 l 297 1036 l 297 992 m 475 992 l 431 992 l 431 1036 l 475 1036 l 475 992 z "},"ϋ":{"ha":725,"x_min":121,"x_max":606,"o":"m 606 899 l 385 458 l 385 0 l 340 0 l 340 458 l 121 899 l 156 926 l 363 513 l 569 926 l 606 899 m 297 992 l 254 992 l 254 1036 l 297 1036 l 297 992 m 475 992 l 431 992 l 431 1036 l 475 1036 l 475 992 z "},"¸":{"ha":725,"x_min":275,"x_max":385,"o":"m 307 -154 l 275 -124 l 340 -58 l 340 0 l 385 0 l 385 -76 l 307 -154 z "},"Ą":{"ha":725,"x_min":121,"x_max":671,"o":"m 561 683 q 504 824 561 765 q 364 882 446 882 q 224 824 282 882 q 165 683 165 765 l 165 485 l 561 485 l 561 683 m 561 442 l 165 442 l 165 0 l 121 0 l 121 683 q 192 856 121 785 q 364 926 263 926 q 536 856 465 926 q 607 683 607 785 l 607 0 l 606 -57 l 671 -122 l 640 -154 l 561 -75 l 561 442 z "},"ą":{"ha":725,"x_min":121,"x_max":671,"o":"m 561 683 q 504 824 561 765 q 364 882 446 882 q 224 824 282 882 q 165 683 165 765 l 165 485 l 561 485 l 561 683 m 561 442 l 165 442 l 165 0 l 121 0 l 121 683 q 192 856 121 785 q 364 926 263 926 q 536 856 465 926 q 607 683 607 785 l 607 0 l 606 -57 l 671 -122 l 640 -154 l 561 -75 l 561 442 z "},"Ę":{"ha":725,"x_min":121,"x_max":671,"o":"m 561 0 l 121 0 l 121 926 l 606 926 l 606 882 l 165 882 l 165 485 l 606 485 l 606 440 l 165 440 l 165 44 l 606 44 l 606 -57 l 671 -122 l 640 -154 l 561 -75 l 561 0 z "},"ę":{"ha":725,"x_min":121,"x_max":671,"o":"m 561 0 l 121 0 l 121 926 l 606 926 l 606 882 l 165 882 l 165 485 l 606 485 l 606 440 l 165 440 l 165 44 l 606 44 l 606 -57 l 671 -122 l 640 -154 l 561 -75 l 561 0 z "},"Į":{"ha":725,"x_min":121,"x_max":606,"o":"m 419 -154 l 342 -76 l 342 0 l 121 0 l 121 44 l 342 44 l 342 882 l 121 882 l 121 926 l 606 926 l 606 882 l 386 882 l 386 44 l 606 44 l 606 0 l 386 0 l 386 -58 l 451 -124 l 419 -154 z "},"į":{"ha":725,"x_min":121,"x_max":606,"o":"m 419 -154 l 342 -76 l 342 0 l 121 0 l 121 44 l 342 44 l 342 882 l 121 882 l 121 926 l 606 926 l 606 882 l 386 882 l 386 44 l 606 44 l 606 0 l 386 0 l 386 -58 l 451 -124 l 419 -154 z "},"Ų":{"ha":725,"x_min":121,"x_max":606,"o":"m 342 1 q 193 72 256 8 q 121 243 121 143 l 121 926 l 165 926 l 165 243 q 224 103 165 161 q 364 44 282 44 q 504 103 446 44 q 561 243 561 161 l 561 926 l 606 926 l 606 243 q 535 72 606 143 q 386 1 472 8 l 386 -58 l 451 -124 l 419 -154 l 342 -76 l 342 1 z "},"ų":{"ha":725,"x_min":121,"x_max":606,"o":"m 342 1 q 193 72 256 8 q 121 243 121 143 l 121 926 l 165 926 l 165 243 q 224 103 165 161 q 364 44 282 44 q 504 103 446 44 q 561 243 561 161 l 561 926 l 606 926 l 606 243 q 535 72 606 143 q 386 1 472 8 l 386 -58 l 451 -124 l 419 -154 l 342 -76 l 342 1 z "},"Ş":{"ha":725,"x_min":122,"x_max":607,"o":"m 340 1 q 193 71 256 8 q 122 242 122 142 l 165 242 q 224 103 165 161 q 364 44 282 44 q 504 103 446 44 q 563 242 563 160 q 504 383 563 324 q 364 442 446 442 q 193 513 264 442 q 122 683 122 582 q 193 856 122 785 q 364 926 264 926 q 536 856 465 926 q 607 683 607 785 l 563 683 q 504 824 563 765 q 364 881 446 881 q 224 824 282 881 q 165 683 165 765 q 224 543 165 601 q 364 485 282 485 q 536 414 465 485 q 607 242 607 343 q 536 71 607 142 q 385 1 472 7 l 385 -76 l 307 -154 l 275 -124 l 340 -58 l 340 1 z "},"ş":{"ha":725,"x_min":122,"x_max":607,"o":"m 340 1 q 193 71 256 8 q 122 242 122 142 l 165 242 q 224 103 165 161 q 364 44 282 44 q 504 103 446 44 q 563 242 563 160 q 504 383 563 324 q 364 442 446 442 q 193 513 264 442 q 122 683 122 582 q 193 856 122 785 q 364 926 264 926 q 536 856 465 926 q 607 683 607 785 l 563 683 q 504 824 563 765 q 364 881 446 881 q 224 824 282 881 q 165 683 165 765 q 224 543 165 601 q 364 485 282 485 q 536 414 465 485 q 607 242 607 343 q 536 71 607 142 q 385 1 472 7 l 385 -76 l 307 -154 l 275 -124 l 340 -58 l 340 1 z "},"Ţ":{"ha":725,"x_min":121,"x_max":606,"o":"m 342 882 l 121 882 l 121 926 l 606 926 l 606 882 l 386 882 l 386 -76 l 308 -154 l 276 -124 l 342 -58 l 342 882 z "},"ţ":{"ha":725,"x_min":121,"x_max":606,"o":"m 342 882 l 121 882 l 121 926 l 606 926 l 606 882 l 386 882 l 386 -76 l 308 -154 l 276 -124 l 342 -58 l 342 882 z "},"Ŧ":{"ha":725,"x_min":121,"x_max":606,"o":"m 342 485 l 342 882 l 121 882 l 121 926 l 606 926 l 606 882 l 386 882 l 386 485 l 475 485 l 475 442 l 386 442 l 386 0 l 342 0 l 342 442 l 254 442 l 254 485 l 342 485 z "},"ŧ":{"ha":725,"x_min":121,"x_max":606,"o":"m 342 485 l 342 882 l 121 882 l 121 926 l 606 926 l 606 882 l 386 882 l 386 485 l 475 485 l 475 442 l 386 442 l 386 0 l 342 0 l 342 442 l 254 442 l 254 485 l 342 485 z "},"Ł":{"ha":725,"x_min":121,"x_max":606,"o":"m 606 0 l 121 0 l 121 926 l 165 926 l 165 485 l 365 485 l 365 442 l 165 442 l 165 44 l 606 44 l 606 0 z "},"ł":{"ha":725,"x_min":121,"x_max":606,"o":"m 606 0 l 121 0 l 121 926 l 165 926 l 165 485 l 365 485 l 365 442 l 165 442 l 165 44 l 606 44 l 606 0 z "},"Ŀ":{"ha":725,"x_min":121,"x_max":606,"o":"m 121 0 l 121 926 l 165 926 l 165 44 l 606 44 l 606 0 l 121 0 m 342 486 l 386 486 l 386 442 l 342 442 l 342 486 z "},"ŀ":{"ha":725,"x_min":121,"x_max":606,"o":"m 121 0 l 121 926 l 165 926 l 165 44 l 606 44 l 606 0 l 121 0 m 342 486 l 386 486 l 386 442 l 342 442 l 342 486 z "},"®":{"ha":725,"x_min":121,"x_max":606,"o":"m 364 440 q 192 512 263 440 q 121 683 121 583 q 192 855 121 783 q 364 926 263 926 q 535 855 464 926 q 606 683 606 783 q 535 512 606 583 q 364 440 464 440 m 364 485 q 504 543 446 485 q 563 683 563 601 q 504 824 563 765 q 364 882 446 882 q 224 824 282 882 q 165 683 165 765 q 224 543 165 601 q 364 485 282 485 m 410 551 l 331 631 l 331 551 l 286 551 l 286 815 l 364 815 q 418 793 396 815 q 440 739 440 771 q 418 684 440 707 q 361 661 396 661 l 440 582 l 410 551 m 364 706 q 388 715 378 706 q 397 739 397 725 q 388 762 397 753 q 364 771 378 771 l 331 771 l 331 706 l 364 706 z "},"™":{"ha":725,"x_min":121,"x_max":606,"o":"m 253 574 l 208 574 l 208 882 l 121 882 l 121 926 l 342 926 l 342 882 l 253 882 l 253 574 m 606 574 l 561 574 l 561 811 l 496 679 l 429 811 l 429 574 l 385 574 l 385 926 l 421 926 l 496 778 l 571 926 l 606 926 l 606 574 z "},"Ğ":{"ha":725,"x_min":121,"x_max":606,"o":"m 364 483 l 606 483 l 606 242 q 535 71 606 142 q 364 -1 464 -1 q 193 71 264 -1 q 121 242 121 142 l 121 682 q 193 854 121 782 q 364 925 264 925 q 535 854 464 925 q 606 682 606 782 l 563 682 q 504 822 563 764 q 364 881 446 881 q 224 822 282 881 q 165 682 165 764 l 165 242 q 224 101 165 160 q 364 43 282 43 q 504 101 446 43 q 563 242 563 160 l 563 440 l 364 440 l 364 483 m 394 993 l 332 993 l 275 1050 l 307 1081 l 364 1024 l 421 1081 l 451 1050 l 394 993 z "},"ğ":{"ha":725,"x_min":121,"x_max":606,"o":"m 364 483 l 606 483 l 606 242 q 535 71 606 142 q 364 -1 464 -1 q 193 71 264 -1 q 121 242 121 142 l 121 682 q 193 854 121 782 q 364 925 264 925 q 535 854 464 925 q 606 682 606 782 l 563 682 q 504 822 563 764 q 364 881 446 881 q 224 822 282 881 q 165 682 165 764 l 165 242 q 224 101 165 160 q 364 43 282 43 q 504 101 446 43 q 563 242 563 160 l 563 440 l 364 440 l 364 483 m 394 993 l 332 993 l 275 1050 l 307 1081 l 364 1024 l 421 1081 l 451 1050 l 394 993 z "},"Ĺ":{"ha":725,"x_min":121,"x_max":606,"o":"m 121 0 l 121 926 l 165 926 l 165 44 l 606 44 l 606 0 l 121 0 m 394 993 l 332 993 l 421 1081 l 451 1050 l 394 993 z "},"ĺ":{"ha":725,"x_min":121,"x_max":606,"o":"m 121 0 l 121 926 l 165 926 l 165 44 l 606 44 l 606 0 l 121 0 m 394 993 l 332 993 l 421 1081 l 451 1050 l 394 993 z "},"Ŕ":{"ha":725,"x_min":121,"x_max":606,"o":"m 606 31 l 575 0 l 165 410 l 165 0 l 121 0 l 121 926 l 364 926 q 535 856 464 926 q 606 683 606 783 q 535 513 606 583 q 364 440 464 440 l 196 440 l 606 31 m 165 485 l 364 485 q 504 543 446 485 q 563 683 563 601 q 504 824 563 765 q 364 882 446 882 l 165 882 l 165 485 m 394 993 l 332 993 l 421 1081 l 451 1050 l 394 993 z "},"ŕ":{"ha":725,"x_min":121,"x_max":606,"o":"m 606 31 l 575 0 l 165 410 l 165 0 l 121 0 l 121 926 l 364 926 q 535 856 464 926 q 606 683 606 783 q 535 513 606 583 q 364 440 464 440 l 196 440 l 606 31 m 165 485 l 364 485 q 504 543 446 485 q 563 683 563 601 q 504 824 563 765 q 364 882 446 882 l 165 882 l 165 485 m 394 993 l 332 993 l 421 1081 l 451 1050 l 394 993 z "},"Ř":{"ha":725,"x_min":121,"x_max":606,"o":"m 606 31 l 575 0 l 165 410 l 165 0 l 121 0 l 121 926 l 364 926 q 535 856 464 926 q 606 683 606 783 q 535 513 606 583 q 364 440 464 440 l 196 440 l 606 31 m 165 485 l 364 485 q 504 543 446 485 q 563 683 563 601 q 504 824 563 765 q 364 882 446 882 l 165 882 l 165 485 m 394 993 l 332 993 l 275 1050 l 307 1081 l 364 1024 l 421 1081 l 451 1050 l 394 993 z "},"ř":{"ha":725,"x_min":121,"x_max":606,"o":"m 606 31 l 575 0 l 165 410 l 165 0 l 121 0 l 121 926 l 364 926 q 535 856 464 926 q 606 683 606 783 q 535 513 606 583 q 364 440 464 440 l 196 440 l 606 31 m 165 485 l 364 485 q 504 543 446 485 q 563 683 563 601 q 504 824 563 765 q 364 882 446 882 l 165 882 l 165 485 m 394 993 l 332 993 l 275 1050 l 307 1081 l 364 1024 l 421 1081 l 451 1050 l 394 993 z "},"Ŗ":{"ha":725,"x_min":121,"x_max":606,"o":"m 606 31 l 575 0 l 165 410 l 165 0 l 121 0 l 121 926 l 364 926 q 535 856 464 926 q 606 683 606 783 q 535 513 606 583 q 364 440 464 440 l 196 440 l 606 31 m 165 485 l 364 485 q 504 543 446 485 q 563 683 563 601 q 504 824 563 765 q 364 882 446 882 l 165 882 l 165 485 m 307 -154 l 275 -124 l 340 -58 l 340 0 l 385 0 l 385 -76 l 307 -154 z "},"ŗ":{"ha":725,"x_min":121,"x_max":606,"o":"m 606 31 l 575 0 l 165 410 l 165 0 l 121 0 l 121 926 l 364 926 q 535 856 464 926 q 606 683 606 783 q 535 513 606 583 q 364 440 464 440 l 196 440 l 606 31 m 165 485 l 364 485 q 504 543 446 485 q 563 683 563 601 q 504 824 563 765 q 364 882 446 882 l 165 882 l 165 485 m 307 -154 l 275 -124 l 340 -58 l 340 0 l 385 0 l 385 -76 l 307 -154 z "},"Ď":{"ha":725,"x_min":121,"x_max":606,"o":"m 364 926 q 535 856 464 926 q 606 683 606 783 l 606 243 q 535 72 606 143 q 364 0 464 0 l 121 0 l 121 926 l 364 926 m 563 683 q 504 824 563 765 q 364 882 446 882 l 165 882 l 165 44 l 364 44 q 504 103 446 44 q 563 243 563 161 l 563 683 m 394 993 l 332 993 l 275 1050 l 307 1081 l 364 1024 l 421 1081 l 451 1050 l 394 993 z "},"ď":{"ha":725,"x_min":121,"x_max":606,"o":"m 364 926 q 535 856 464 926 q 606 683 606 783 l 606 243 q 535 72 606 143 q 364 0 464 0 l 121 0 l 121 926 l 364 926 m 563 683 q 504 824 563 765 q 364 882 446 882 l 165 882 l 165 44 l 364 44 q 504 103 446 44 q 563 243 563 161 l 563 683 m 394 993 l 332 993 l 275 1050 l 307 1081 l 364 1024 l 421 1081 l 451 1050 l 394 993 z "},"Ǵ":{"ha":725,"x_min":121,"x_max":606,"o":"m 364 483 l 606 483 l 606 242 q 535 71 606 142 q 364 -1 464 -1 q 193 71 264 -1 q 121 242 121 142 l 121 682 q 193 854 121 782 q 364 925 264 925 q 535 854 464 925 q 606 682 606 782 l 563 682 q 504 822 563 764 q 364 881 446 881 q 224 822 282 881 q 165 682 165 764 l 165 242 q 224 101 165 160 q 364 43 282 43 q 504 101 446 43 q 563 242 563 160 l 563 440 l 364 440 l 364 483 m 394 993 l 332 993 l 421 1081 l 451 1050 l 394 993 z "},"ǵ":{"ha":725,"x_min":121,"x_max":606,"o":"m 364 483 l 606 483 l 606 242 q 535 71 606 142 q 364 -1 464 -1 q 193 71 264 -1 q 121 242 121 142 l 121 682 q 193 854 121 782 q 364 925 264 925 q 535 854 464 925 q 606 682 606 782 l 563 682 q 504 822 563 764 q 364 881 446 881 q 224 822 282 881 q 165 682 165 764 l 165 242 q 224 101 165 160 q 364 43 282 43 q 504 101 446 43 q 563 242 563 160 l 563 440 l 364 440 l 364 483 m 394 993 l 332 993 l 421 1081 l 451 1050 l 394 993 z "},"Ȧ":{"ha":725,"x_min":121,"x_max":607,"o":"m 364 926 q 536 856 465 926 q 607 683 607 785 l 607 0 l 561 0 l 561 442 l 165 442 l 165 0 l 121 0 l 121 683 q 192 856 121 785 q 364 926 263 926 m 561 683 q 504 824 561 765 q 364 882 446 882 q 224 824 282 882 q 165 683 165 765 l 165 485 l 561 485 l 561 683 m 385 992 l 342 992 l 342 1036 l 385 1036 l 385 992 z "},"ȧ":{"ha":725,"x_min":121,"x_max":607,"o":"m 364 926 q 536 856 465 926 q 607 683 607 785 l 607 0 l 561 0 l 561 442 l 165 442 l 165 0 l 121 0 l 121 683 q 192 856 121 785 q 364 926 263 926 m 561 683 q 504 824 561 765 q 364 882 446 882 q 224 824 282 882 q 165 683 165 765 l 165 485 l 561 485 l 561 683 m 385 992 l 342 992 l 342 1036 l 385 1036 l 385 992 z "},"Ǎ":{"ha":725,"x_min":121,"x_max":607,"o":"m 364 926 q 536 856 465 926 q 607 683 607 785 l 607 0 l 561 0 l 561 442 l 165 442 l 165 0 l 121 0 l 121 683 q 192 856 121 785 q 364 926 263 926 m 561 683 q 504 824 561 765 q 364 882 446 882 q 224 824 282 882 q 165 683 165 765 l 165 485 l 561 485 l 561 683 m 394 993 l 332 993 l 275 1050 l 307 1081 l 364 1024 l 421 1081 l 451 1050 l 394 993 z "},"ǎ":{"ha":725,"x_min":121,"x_max":607,"o":"m 364 926 q 536 856 465 926 q 607 683 607 785 l 607 0 l 561 0 l 561 442 l 165 442 l 165 0 l 121 0 l 121 683 q 192 856 121 785 q 364 926 263 926 m 561 683 q 504 824 561 765 q 364 882 446 882 q 224 824 282 882 q 165 683 165 765 l 165 485 l 561 485 l 561 683 m 394 993 l 332 993 l 275 1050 l 307 1081 l 364 1024 l 421 1081 l 451 1050 l 394 993 z "},"Ǐ":{"ha":725,"x_min":121,"x_max":606,"o":"m 386 882 l 386 44 l 606 44 l 606 0 l 121 0 l 121 44 l 342 44 l 342 882 l 121 882 l 121 926 l 606 926 l 606 882 l 386 882 m 394 993 l 332 993 l 275 1050 l 307 1081 l 364 1024 l 421 1081 l 451 1050 l 394 993 z "},"ǐ":{"ha":725,"x_min":121,"x_max":606,"o":"m 386 882 l 386 44 l 606 44 l 606 0 l 121 0 l 121 44 l 342 44 l 342 882 l 121 882 l 121 926 l 606 926 l 606 882 l 386 882 m 394 993 l 332 993 l 275 1050 l 307 1081 l 364 1024 l 421 1081 l 451 1050 l 394 993 z "},"Ǒ":{"ha":725,"x_min":121,"x_max":606,"o":"m 364 926 q 535 856 464 926 q 606 683 606 783 l 606 243 q 535 72 606 143 q 364 0 464 0 q 193 72 264 0 q 121 243 121 143 l 121 683 q 193 856 121 783 q 364 926 264 926 m 563 683 q 504 824 563 765 q 364 882 446 882 q 224 824 282 882 q 165 683 165 765 l 165 243 q 224 103 165 161 q 364 44 282 44 q 504 103 446 44 q 563 243 563 161 l 563 683 m 394 993 l 332 993 l 275 1050 l 307 1081 l 364 1024 l 421 1081 l 451 1050 l 394 993 z "},"ǒ":{"ha":725,"x_min":121,"x_max":606,"o":"m 364 926 q 535 856 464 926 q 606 683 606 783 l 606 243 q 535 72 606 143 q 364 0 464 0 q 193 72 264 0 q 121 243 121 143 l 121 683 q 193 856 121 783 q 364 926 264 926 m 563 683 q 504 824 563 765 q 364 882 446 882 q 224 824 282 882 q 165 683 165 765 l 165 243 q 224 103 165 161 q 364 44 282 44 q 504 103 446 44 q 563 243 563 161 l 563 683 m 394 993 l 332 993 l 275 1050 l 307 1081 l 364 1024 l 421 1081 l 451 1050 l 394 993 z "},"Ǔ":{"ha":725,"x_min":121,"x_max":606,"o":"m 606 926 l 606 243 q 535 72 606 143 q 364 0 464 0 q 193 72 264 0 q 121 243 121 143 l 121 926 l 165 926 l 165 243 q 224 103 165 161 q 364 44 282 44 q 504 103 446 44 q 561 243 561 161 l 561 926 l 606 926 m 394 993 l 332 993 l 275 1050 l 307 1081 l 364 1024 l 421 1081 l 451 1050 l 394 993 z "},"ǔ":{"ha":725,"x_min":121,"x_max":606,"o":"m 606 926 l 606 243 q 535 72 606 143 q 364 0 464 0 q 193 72 264 0 q 121 243 121 143 l 121 926 l 165 926 l 165 243 q 224 103 165 161 q 364 44 282 44 q 504 103 446 44 q 561 243 561 161 l 561 926 l 606 926 m 394 993 l 332 993 l 275 1050 l 307 1081 l 364 1024 l 421 1081 l 451 1050 l 394 993 z "},"Ǧ":{"ha":725,"x_min":121,"x_max":606,"o":"m 364 483 l 606 483 l 606 242 q 535 71 606 142 q 364 -1 464 -1 q 193 71 264 -1 q 121 242 121 142 l 121 682 q 193 854 121 782 q 364 925 264 925 q 535 854 464 925 q 606 682 606 782 l 563 682 q 504 822 563 764 q 364 881 446 881 q 224 822 282 881 q 165 682 165 764 l 165 242 q 224 101 165 160 q 364 43 282 43 q 504 101 446 43 q 563 242 563 160 l 563 440 l 364 440 l 364 483 m 394 993 l 332 993 l 275 1050 l 307 1081 l 364 1024 l 421 1081 l 451 1050 l 394 993 z "},"ǧ":{"ha":725,"x_min":121,"x_max":606,"o":"m 364 483 l 606 483 l 606 242 q 535 71 606 142 q 364 -1 464 -1 q 193 71 264 -1 q 121 242 121 142 l 121 682 q 193 854 121 782 q 364 925 264 925 q 535 854 464 925 q 606 682 606 782 l 563 682 q 504 822 563 764 q 364 881 446 881 q 224 822 282 881 q 165 682 165 764 l 165 242 q 224 101 165 160 q 364 43 282 43 q 504 101 446 43 q 563 242 563 160 l 563 440 l 364 440 l 364 483 m 394 993 l 332 993 l 275 1050 l 307 1081 l 364 1024 l 421 1081 l 451 1050 l 394 993 z "},"Ǩ":{"ha":725,"x_min":121,"x_max":606,"o":"m 174 463 l 606 31 l 575 0 l 165 410 l 165 0 l 121 0 l 121 926 l 165 926 l 165 517 l 575 926 l 606 894 l 174 463 m 394 993 l 332 993 l 275 1050 l 307 1081 l 364 1024 l 421 1081 l 451 1050 l 394 993 z "},"ǩ":{"ha":725,"x_min":121,"x_max":606,"o":"m 174 463 l 606 31 l 575 0 l 165 410 l 165 0 l 121 0 l 121 926 l 165 926 l 165 517 l 575 926 l 606 894 l 174 463 m 394 993 l 332 993 l 275 1050 l 307 1081 l 364 1024 l 421 1081 l 451 1050 l 394 993 z "},"ʹ":{"ha":725,"x_min":342,"x_max":386,"o":"m 342 926 l 386 926 l 386 838 l 342 838 l 342 926 z "},"ʺ":{"ha":725,"x_min":297,"x_max":429,"o":"m 297 926 l 342 926 l 342 838 l 297 838 l 297 926 m 386 926 l 429 926 l 429 838 l 386 838 l 386 926 z "},"ʻ":{"ha":725,"x_min":342,"x_max":386,"o":"m 342 926 l 386 926 l 386 838 l 342 838 l 342 926 z "},"ʼ":{"ha":725,"x_min":342,"x_max":386,"o":"m 342 926 l 386 926 l 386 838 l 342 838 l 342 926 z "},"ʽ":{"ha":725,"x_min":342,"x_max":386,"o":"m 342 926 l 386 926 l 386 838 l 342 838 l 342 926 z "},"Ȳ":{"ha":725,"x_min":121,"x_max":606,"o":"m 606 899 l 385 458 l 385 0 l 340 0 l 340 458 l 121 899 l 156 926 l 363 513 l 569 926 l 606 899 m 518 992 l 208 992 l 208 1036 l 518 1036 l 518 992 z "},"ȳ":{"ha":725,"x_min":121,"x_max":606,"o":"m 606 899 l 385 458 l 385 0 l 340 0 l 340 458 l 121 899 l 156 926 l 363 513 l 569 926 l 606 899 m 518 992 l 208 992 l 208 1036 l 518 1036 l 518 992 z "},"Ǹ":{"ha":725,"x_min":121,"x_max":606,"o":"m 563 926 l 606 926 l 606 0 l 571 0 l 165 811 l 165 0 l 121 0 l 121 926 l 157 926 l 563 115 l 563 926 m 394 993 l 332 993 l 275 1050 l 307 1081 l 394 993 z "},"ǹ":{"ha":725,"x_min":121,"x_max":606,"o":"m 563 926 l 606 926 l 606 0 l 571 0 l 165 811 l 165 0 l 121 0 l 121 926 l 157 926 l 563 115 l 563 926 m 394 993 l 332 993 l 275 1050 l 307 1081 l 394 993 z "},"İ":{"ha":725,"x_min":121,"x_max":606,"o":"m 386 882 l 386 44 l 606 44 l 606 0 l 121 0 l 121 44 l 342 44 l 342 882 l 121 882 l 121 926 l 606 926 l 606 882 l 386 882 m 385 992 l 342 992 l 342 1036 l 385 1036 l 385 992 z "},"ı":{"ha":725,"x_min":121,"x_max":606,"o":"m 386 882 l 386 44 l 606 44 l 606 0 l 121 0 l 121 44 l 342 44 l 342 882 l 121 882 l 121 926 l 606 926 l 606 882 l 386 882 m 385 992 l 342 992 l 342 1036 l 385 1036 l 385 992 z "},"Ӣ":{"ha":725,"x_min":121,"x_max":606,"o":"m 164 926 l 164 115 l 569 926 l 606 926 l 606 0 l 561 0 l 561 811 l 156 0 l 121 0 l 121 926 l 164 926 m 518 992 l 208 992 l 208 1036 l 518 1036 l 518 992 z "},"ӣ":{"ha":725,"x_min":121,"x_max":606,"o":"m 164 926 l 164 115 l 569 926 l 606 926 l 606 0 l 561 0 l 561 811 l 156 0 l 121 0 l 121 926 l 164 926 m 518 992 l 208 992 l 208 1036 l 518 1036 l 518 992 z "},"Ӯ":{"ha":725,"x_min":121,"x_max":606,"o":"m 142 0 l 121 0 l 121 43 l 142 43 q 281 99 224 43 q 340 239 338 156 l 121 911 l 163 926 l 363 313 l 564 926 l 606 911 l 385 238 q 310 68 379 136 q 142 0 242 0 m 518 992 l 208 992 l 208 1036 l 518 1036 l 518 992 z "},"ӯ":{"ha":725,"x_min":121,"x_max":606,"o":"m 142 0 l 121 0 l 121 43 l 142 43 q 281 99 224 43 q 340 239 338 156 l 121 911 l 163 926 l 363 313 l 564 926 l 606 911 l 385 238 q 310 68 379 136 q 142 0 242 0 m 518 992 l 208 992 l 208 1036 l 518 1036 l 518 992 z "},"Ϸ":{"ha":725,"x_min":121,"x_max":607,"o":"m 165 0 l 121 0 l 121 926 l 165 926 l 165 707 l 364 707 q 535 635 464 707 q 607 464 607 564 q 535 292 607 364 q 364 221 464 221 l 165 221 l 165 0 m 364 265 q 504 324 446 265 q 563 464 563 382 q 504 604 563 546 q 364 663 446 663 l 165 663 l 165 265 l 364 265 z "},"ϸ":{"ha":725,"x_min":121,"x_max":607,"o":"m 165 0 l 121 0 l 121 926 l 165 926 l 165 707 l 364 707 q 535 635 464 707 q 607 464 607 564 q 535 292 607 364 q 364 221 464 221 l 165 221 l 165 0 m 364 265 q 504 324 446 265 q 563 464 563 382 q 504 604 563 546 q 364 663 446 663 l 165 663 l 165 265 l 364 265 z "},"Ӓ":{"ha":725,"x_min":121,"x_max":607,"o":"m 364 926 q 536 856 465 926 q 607 683 607 785 l 607 0 l 561 0 l 561 442 l 165 442 l 165 0 l 121 0 l 121 683 q 192 856 121 785 q 364 926 263 926 m 561 683 q 504 824 561 765 q 364 882 446 882 q 224 824 282 882 q 165 683 165 765 l 165 485 l 561 485 l 561 683 m 297 992 l 254 992 l 254 1036 l 297 1036 l 297 992 m 475 992 l 431 992 l 431 1036 l 475 1036 l 475 992 z "},"ӓ":{"ha":725,"x_min":121,"x_max":607,"o":"m 364 926 q 536 856 465 926 q 607 683 607 785 l 607 0 l 561 0 l 561 442 l 165 442 l 165 0 l 121 0 l 121 683 q 192 856 121 785 q 364 926 263 926 m 561 683 q 504 824 561 765 q 364 882 446 882 q 224 824 282 882 q 165 683 165 765 l 165 485 l 561 485 l 561 683 m 297 992 l 254 992 l 254 1036 l 297 1036 l 297 992 m 475 992 l 431 992 l 431 1036 l 475 1036 l 475 992 z "},"Ӝ":{"ha":725,"x_min":121,"x_max":606,"o":"m 606 0 l 561 0 l 561 243 q 511 374 561 319 q 385 439 461 429 l 385 0 l 342 0 l 342 439 q 215 374 265 429 q 165 243 165 319 l 165 0 l 121 0 l 121 243 q 160 376 121 317 q 264 464 199 435 q 160 552 199 493 q 121 685 121 611 l 121 926 l 165 926 l 165 685 q 215 553 165 608 q 342 488 265 499 l 342 926 l 385 926 l 385 488 q 511 553 461 499 q 561 685 561 608 l 561 926 l 606 926 l 606 685 q 566 552 606 611 q 463 464 526 493 q 566 376 526 435 q 606 243 606 317 l 606 0 m 297 992 l 254 992 l 254 1036 l 297 1036 l 297 992 m 475 992 l 431 992 l 431 1036 l 475 1036 l 475 992 z "},"ӝ":{"ha":725,"x_min":121,"x_max":606,"o":"m 606 0 l 561 0 l 561 243 q 511 374 561 319 q 385 439 461 429 l 385 0 l 342 0 l 342 439 q 215 374 265 429 q 165 243 165 319 l 165 0 l 121 0 l 121 243 q 160 376 121 317 q 264 464 199 435 q 160 552 199 493 q 121 685 121 611 l 121 926 l 165 926 l 165 685 q 215 553 165 608 q 342 488 265 499 l 342 926 l 385 926 l 385 488 q 511 553 461 499 q 561 685 561 608 l 561 926 l 606 926 l 606 685 q 566 552 606 611 q 463 464 526 493 q 566 376 526 435 q 606 243 606 317 l 606 0 m 297 992 l 254 992 l 254 1036 l 297 1036 l 297 992 m 475 992 l 431 992 l 431 1036 l 475 1036 l 475 992 z "},"Ӟ":{"ha":725,"x_min":121,"x_max":606,"o":"m 364 0 q 192 71 263 0 q 121 243 121 142 l 165 243 q 223 103 165 161 q 364 44 281 44 q 503 103 446 44 q 561 243 561 161 q 503 383 561 325 q 364 442 446 442 l 364 485 q 503 543 446 485 q 561 683 561 601 q 503 824 561 765 q 364 882 446 882 q 223 824 281 882 q 165 683 165 765 l 121 683 q 192 856 121 785 q 364 926 263 926 q 535 856 464 926 q 606 683 606 785 q 567 551 606 610 q 463 463 528 493 q 567 375 528 433 q 606 243 606 317 q 535 71 606 142 q 364 0 464 0 m 297 992 l 254 992 l 254 1036 l 297 1036 l 297 992 m 475 992 l 431 992 l 431 1036 l 475 1036 l 475 992 z "},"ӟ":{"ha":725,"x_min":121,"x_max":606,"o":"m 364 0 q 192 71 263 0 q 121 243 121 142 l 165 243 q 223 103 165 161 q 364 44 281 44 q 503 103 446 44 q 561 243 561 161 q 503 383 561 325 q 364 442 446 442 l 364 485 q 503 543 446 485 q 561 683 561 601 q 503 824 561 765 q 364 882 446 882 q 223 824 281 882 q 165 683 165 765 l 121 683 q 192 856 121 785 q 364 926 263 926 q 535 856 464 926 q 606 683 606 785 q 567 551 606 610 q 463 463 528 493 q 567 375 528 433 q 606 243 606 317 q 535 71 606 142 q 364 0 464 0 m 297 992 l 254 992 l 254 1036 l 297 1036 l 297 992 m 475 992 l 431 992 l 431 1036 l 475 1036 l 475 992 z "},"Ӥ":{"ha":725,"x_min":121,"x_max":606,"o":"m 164 926 l 164 115 l 569 926 l 606 926 l 606 0 l 561 0 l 561 811 l 156 0 l 121 0 l 121 926 l 164 926 m 297 992 l 254 992 l 254 1036 l 297 1036 l 297 992 m 475 992 l 431 992 l 431 1036 l 475 1036 l 475 992 z "},"ӥ":{"ha":725,"x_min":121,"x_max":606,"o":"m 164 926 l 164 115 l 569 926 l 606 926 l 606 0 l 561 0 l 561 811 l 156 0 l 121 0 l 121 926 l 164 926 m 297 992 l 254 992 l 254 1036 l 297 1036 l 297 992 m 475 992 l 431 992 l 431 1036 l 475 1036 l 475 992 z "},"Ӧ":{"ha":725,"x_min":121,"x_max":606,"o":"m 364 926 q 535 856 464 926 q 606 683 606 783 l 606 243 q 535 72 606 143 q 364 0 464 0 q 193 72 264 0 q 121 243 121 143 l 121 683 q 193 856 121 783 q 364 926 264 926 m 563 683 q 504 824 563 765 q 364 882 446 882 q 224 824 282 882 q 165 683 165 765 l 165 243 q 224 103 165 161 q 364 44 282 44 q 504 103 446 44 q 563 243 563 161 l 563 683 m 297 992 l 254 992 l 254 1036 l 297 1036 l 297 992 m 475 992 l 431 992 l 431 1036 l 475 1036 l 475 992 z "},"ӧ":{"ha":725,"x_min":121,"x_max":606,"o":"m 364 926 q 535 856 464 926 q 606 683 606 783 l 606 243 q 535 72 606 143 q 364 0 464 0 q 193 72 264 0 q 121 243 121 143 l 121 683 q 193 856 121 783 q 364 926 264 926 m 563 683 q 504 824 563 765 q 364 882 446 882 q 224 824 282 882 q 165 683 165 765 l 165 243 q 224 103 165 161 q 364 44 282 44 q 504 103 446 44 q 563 243 563 161 l 563 683 m 297 992 l 254 992 l 254 1036 l 297 1036 l 297 992 m 475 992 l 431 992 l 431 1036 l 475 1036 l 475 992 z "},"Ӱ":{"ha":725,"x_min":121,"x_max":606,"o":"m 142 0 l 121 0 l 121 43 l 142 43 q 281 99 224 43 q 340 239 338 156 l 121 911 l 163 926 l 363 313 l 564 926 l 606 911 l 385 238 q 310 68 379 136 q 142 0 242 0 m 297 992 l 254 992 l 254 1036 l 297 1036 l 297 992 m 475 992 l 431 992 l 431 1036 l 475 1036 l 475 992 z "},"ӱ":{"ha":725,"x_min":121,"x_max":606,"o":"m 142 0 l 121 0 l 121 43 l 142 43 q 281 99 224 43 q 340 239 338 156 l 121 911 l 163 926 l 363 313 l 564 926 l 606 911 l 385 238 q 310 68 379 136 q 142 0 242 0 m 297 992 l 254 992 l 254 1036 l 297 1036 l 297 992 m 475 992 l 431 992 l 431 1036 l 475 1036 l 475 992 z "},"Ӭ":{"ha":725,"x_min":121,"x_max":606,"o":"m 363 0 q 192 71 263 0 q 121 242 121 142 l 164 242 q 222 102 164 160 q 363 44 281 44 q 503 102 444 44 q 561 242 561 160 l 561 440 l 363 440 l 363 485 l 561 485 l 561 683 q 503 824 561 765 q 363 882 444 882 q 222 824 281 882 q 164 683 164 765 l 121 683 q 192 855 121 783 q 363 926 263 926 q 535 855 464 926 q 606 683 606 783 l 606 242 q 535 71 606 142 q 363 0 464 0 m 297 992 l 254 992 l 254 1036 l 297 1036 l 297 992 m 475 992 l 431 992 l 431 1036 l 475 1036 l 475 992 z "},"ӭ":{"ha":725,"x_min":121,"x_max":606,"o":"m 363 0 q 192 71 263 0 q 121 242 121 142 l 164 242 q 222 102 164 160 q 363 44 281 44 q 503 102 444 44 q 561 242 561 160 l 561 440 l 363 440 l 363 485 l 561 485 l 561 683 q 503 824 561 765 q 363 882 444 882 q 222 824 281 882 q 164 683 164 765 l 121 683 q 192 855 121 783 q 363 926 263 926 q 535 855 464 926 q 606 683 606 783 l 606 242 q 535 71 606 142 q 363 0 464 0 m 297 992 l 254 992 l 254 1036 l 297 1036 l 297 992 m 475 992 l 431 992 l 431 1036 l 475 1036 l 475 992 z "},"Ő":{"ha":725,"x_min":121,"x_max":606,"o":"m 364 926 q 535 856 464 926 q 606 683 606 783 l 606 243 q 535 72 606 143 q 364 0 464 0 q 193 72 264 0 q 121 243 121 143 l 121 683 q 193 856 121 783 q 364 926 264 926 m 563 683 q 504 824 563 765 q 364 882 446 882 q 224 824 282 882 q 165 683 165 765 l 165 243 q 224 103 165 161 q 364 44 282 44 q 504 103 446 44 q 563 243 563 161 l 563 683 m 332 993 l 269 993 l 358 1081 l 389 1050 l 332 993 m 457 993 l 394 993 l 483 1081 l 514 1050 l 457 993 z "},"ő":{"ha":725,"x_min":121,"x_max":606,"o":"m 364 926 q 535 856 464 926 q 606 683 606 783 l 606 243 q 535 72 606 143 q 364 0 464 0 q 193 72 264 0 q 121 243 121 143 l 121 683 q 193 856 121 783 q 364 926 264 926 m 563 683 q 504 824 563 765 q 364 882 446 882 q 224 824 282 882 q 165 683 165 765 l 165 243 q 224 103 165 161 q 364 44 282 44 q 504 103 446 44 q 563 243 563 161 l 563 683 m 332 993 l 269 993 l 358 1081 l 389 1050 l 332 993 m 457 993 l 394 993 l 483 1081 l 514 1050 l 457 993 z "},"Ű":{"ha":725,"x_min":121,"x_max":606,"o":"m 606 926 l 606 243 q 535 72 606 143 q 364 0 464 0 q 193 72 264 0 q 121 243 121 143 l 121 926 l 165 926 l 165 243 q 224 103 165 161 q 364 44 282 44 q 504 103 446 44 q 561 243 561 161 l 561 926 l 606 926 m 332 993 l 269 993 l 358 1081 l 389 1050 l 332 993 m 457 993 l 394 993 l 483 1081 l 514 1050 l 457 993 z "},"ű":{"ha":725,"x_min":121,"x_max":606,"o":"m 606 926 l 606 243 q 535 72 606 143 q 364 0 464 0 q 193 72 264 0 q 121 243 121 143 l 121 926 l 165 926 l 165 243 q 224 103 165 161 q 364 44 282 44 q 504 103 446 44 q 561 243 561 161 l 561 926 l 606 926 m 332 993 l 269 993 l 358 1081 l 389 1050 l 332 993 m 457 993 l 394 993 l 483 1081 l 514 1050 l 457 993 z "},"Ḃ":{"ha":725,"x_min":121,"x_max":606,"o":"m 464 463 q 567 376 528 433 q 606 243 606 315 q 535 72 606 143 q 364 0 464 0 l 121 0 l 121 926 l 364 926 q 535 856 464 926 q 606 683 606 783 q 567 550 606 611 q 464 463 528 492 m 165 485 l 364 485 q 504 543 446 485 q 563 683 563 601 q 504 824 563 765 q 364 882 446 882 l 165 882 l 165 485 m 364 44 q 504 103 446 44 q 563 243 563 161 q 504 383 563 325 q 364 442 446 442 l 165 442 l 165 44 l 364 44 m 385 992 l 342 992 l 342 1036 l 385 1036 l 385 992 z "},"ḃ":{"ha":725,"x_min":121,"x_max":606,"o":"m 464 463 q 567 376 528 433 q 606 243 606 315 q 535 72 606 143 q 364 0 464 0 l 121 0 l 121 926 l 364 926 q 535 856 464 926 q 606 683 606 783 q 567 550 606 611 q 464 463 528 492 m 165 485 l 364 485 q 504 543 446 485 q 563 683 563 601 q 504 824 563 765 q 364 882 446 882 l 165 882 l 165 485 m 364 44 q 504 103 446 44 q 563 243 563 161 q 504 383 563 325 q 364 442 446 442 l 165 442 l 165 44 l 364 44 m 385 992 l 342 992 l 342 1036 l 385 1036 l 385 992 z "},"Ḋ":{"ha":725,"x_min":121,"x_max":606,"o":"m 364 926 q 535 856 464 926 q 606 683 606 783 l 606 243 q 535 72 606 143 q 364 0 464 0 l 121 0 l 121 926 l 364 926 m 563 683 q 504 824 563 765 q 364 882 446 882 l 165 882 l 165 44 l 364 44 q 504 103 446 44 q 563 243 563 161 l 563 683 m 385 992 l 342 992 l 342 1036 l 385 1036 l 385 992 z "},"ḋ":{"ha":725,"x_min":121,"x_max":606,"o":"m 364 926 q 535 856 464 926 q 606 683 606 783 l 606 243 q 535 72 606 143 q 364 0 464 0 l 121 0 l 121 926 l 364 926 m 563 683 q 504 824 563 765 q 364 882 446 882 l 165 882 l 165 44 l 364 44 q 504 103 446 44 q 563 243 563 161 l 563 683 m 385 992 l 342 992 l 342 1036 l 385 1036 l 385 992 z "},"Ḟ":{"ha":725,"x_min":121,"x_max":606,"o":"m 165 882 l 165 485 l 606 485 l 606 440 l 165 440 l 165 0 l 121 0 l 121 926 l 606 926 l 606 882 l 165 882 m 385 992 l 342 992 l 342 1036 l 385 1036 l 385 992 z "},"ḟ":{"ha":725,"x_min":121,"x_max":606,"o":"m 165 882 l 165 485 l 606 485 l 606 440 l 165 440 l 165 0 l 121 0 l 121 926 l 606 926 l 606 882 l 165 882 m 385 992 l 342 992 l 342 1036 l 385 1036 l 385 992 z "},"Ḣ":{"ha":725,"x_min":121,"x_max":606,"o":"m 606 926 l 606 0 l 563 0 l 563 440 l 165 440 l 165 0 l 121 0 l 121 926 l 165 926 l 165 485 l 563 485 l 563 926 l 606 926 m 385 992 l 342 992 l 342 1036 l 385 1036 l 385 992 z "},"ḣ":{"ha":725,"x_min":121,"x_max":606,"o":"m 606 926 l 606 0 l 563 0 l 563 440 l 165 440 l 165 0 l 121 0 l 121 926 l 165 926 l 165 485 l 563 485 l 563 926 l 606 926 m 385 992 l 342 992 l 342 1036 l 385 1036 l 385 992 z "},"Ṁ":{"ha":725,"x_min":121,"x_max":606,"o":"m 165 0 l 121 0 l 121 926 l 157 926 l 364 513 l 571 926 l 606 926 l 606 0 l 563 0 l 563 811 l 364 414 l 165 811 l 165 0 m 385 992 l 342 992 l 342 1036 l 385 1036 l 385 992 z "},"ṁ":{"ha":725,"x_min":121,"x_max":606,"o":"m 165 0 l 121 0 l 121 926 l 157 926 l 364 513 l 571 926 l 606 926 l 606 0 l 563 0 l 563 811 l 364 414 l 165 811 l 165 0 m 385 992 l 342 992 l 342 1036 l 385 1036 l 385 992 z "},"Ṅ":{"ha":725,"x_min":121,"x_max":606,"o":"m 563 926 l 606 926 l 606 0 l 571 0 l 165 811 l 165 0 l 121 0 l 121 926 l 157 926 l 563 115 l 563 926 m 385 992 l 342 992 l 342 1036 l 385 1036 l 385 992 z "},"ṅ":{"ha":725,"x_min":121,"x_max":606,"o":"m 563 926 l 606 926 l 606 0 l 571 0 l 165 811 l 165 0 l 121 0 l 121 926 l 157 926 l 563 115 l 563 926 m 385 992 l 342 992 l 342 1036 l 385 1036 l 385 992 z "},"Ṗ":{"ha":725,"x_min":121,"x_max":606,"o":"m 364 926 q 535 856 464 926 q 606 683 606 783 q 535 513 606 583 q 364 440 464 440 l 165 440 l 165 0 l 121 0 l 121 926 l 364 926 m 364 485 q 504 543 446 485 q 563 683 563 601 q 504 824 563 765 q 364 882 446 882 l 165 882 l 165 485 l 364 485 m 385 992 l 342 992 l 342 1036 l 385 1036 l 385 992 z "},"ṗ":{"ha":725,"x_min":121,"x_max":606,"o":"m 364 926 q 535 856 464 926 q 606 683 606 783 q 535 513 606 583 q 364 440 464 440 l 165 440 l 165 0 l 121 0 l 121 926 l 364 926 m 364 485 q 504 543 446 485 q 563 683 563 601 q 504 824 563 765 q 364 882 446 882 l 165 882 l 165 485 l 364 485 m 385 992 l 342 992 l 342 1036 l 385 1036 l 385 992 z "},"Ṙ":{"ha":725,"x_min":121,"x_max":606,"o":"m 606 31 l 575 0 l 165 410 l 165 0 l 121 0 l 121 926 l 364 926 q 535 856 464 926 q 606 683 606 783 q 535 513 606 583 q 364 440 464 440 l 196 440 l 606 31 m 165 485 l 364 485 q 504 543 446 485 q 563 683 563 601 q 504 824 563 765 q 364 882 446 882 l 165 882 l 165 485 m 385 992 l 342 992 l 342 1036 l 385 1036 l 385 992 z "},"ṙ":{"ha":725,"x_min":121,"x_max":606,"o":"m 606 31 l 575 0 l 165 410 l 165 0 l 121 0 l 121 926 l 364 926 q 535 856 464 926 q 606 683 606 783 q 535 513 606 583 q 364 440 464 440 l 196 440 l 606 31 m 165 485 l 364 485 q 504 543 446 485 q 563 683 563 601 q 504 824 563 765 q 364 882 446 882 l 165 882 l 165 485 m 385 992 l 342 992 l 342 1036 l 385 1036 l 385 992 z "},"Ṡ":{"ha":725,"x_min":122,"x_max":607,"o":"m 364 0 q 193 71 264 0 q 122 242 122 142 l 165 242 q 224 103 165 161 q 364 44 282 44 q 504 103 446 44 q 563 242 563 160 q 504 383 563 324 q 364 442 446 442 q 193 513 264 442 q 122 683 122 582 q 193 856 122 785 q 364 926 264 926 q 536 856 465 926 q 607 683 607 785 l 563 683 q 504 824 563 765 q 364 881 446 881 q 224 824 282 881 q 165 683 165 765 q 224 543 165 601 q 364 485 282 485 q 536 414 465 485 q 607 242 607 343 q 536 71 607 142 q 364 0 465 0 m 385 992 l 342 992 l 342 1036 l 385 1036 l 385 992 z "},"ṡ":{"ha":725,"x_min":122,"x_max":607,"o":"m 364 0 q 193 71 264 0 q 122 242 122 142 l 165 242 q 224 103 165 161 q 364 44 282 44 q 504 103 446 44 q 563 242 563 160 q 504 383 563 324 q 364 442 446 442 q 193 513 264 442 q 122 683 122 582 q 193 856 122 785 q 364 926 264 926 q 536 856 465 926 q 607 683 607 785 l 563 683 q 504 824 563 765 q 364 881 446 881 q 224 824 282 881 q 165 683 165 765 q 224 543 165 601 q 364 485 282 485 q 536 414 465 485 q 607 242 607 343 q 536 71 607 142 q 364 0 465 0 m 385 992 l 342 992 l 342 1036 l 385 1036 l 385 992 z "},"Ṫ":{"ha":725,"x_min":121,"x_max":606,"o":"m 606 926 l 606 882 l 386 882 l 386 0 l 342 0 l 342 882 l 121 882 l 121 926 l 606 926 m 385 992 l 342 992 l 342 1036 l 385 1036 l 385 992 z "},"ṫ":{"ha":725,"x_min":121,"x_max":606,"o":"m 606 926 l 606 882 l 386 882 l 386 0 l 342 0 l 342 882 l 121 882 l 121 926 l 606 926 m 385 992 l 342 992 l 342 1036 l 385 1036 l 385 992 z "},"Ẇ":{"ha":725,"x_min":121,"x_max":606,"o":"m 157 0 l 121 0 l 121 926 l 165 926 l 165 115 l 364 513 l 563 115 l 563 926 l 606 926 l 606 0 l 571 0 l 364 414 l 157 0 m 385 992 l 342 992 l 342 1036 l 385 1036 l 385 992 z "},"ẇ":{"ha":725,"x_min":121,"x_max":606,"o":"m 157 0 l 121 0 l 121 926 l 165 926 l 165 115 l 364 513 l 563 115 l 563 926 l 606 926 l 606 0 l 571 0 l 364 414 l 157 0 m 385 992 l 342 992 l 342 1036 l 385 1036 l 385 992 z "},"Ẋ":{"ha":725,"x_min":121,"x_max":606,"o":"m 389 463 l 606 28 l 571 0 l 364 414 l 157 0 l 121 28 l 339 463 l 121 899 l 157 926 l 364 513 l 571 926 l 606 899 l 389 463 m 385 992 l 342 992 l 342 1036 l 385 1036 l 385 992 z "},"ẋ":{"ha":725,"x_min":121,"x_max":606,"o":"m 389 463 l 606 28 l 571 0 l 364 414 l 157 0 l 121 28 l 339 463 l 121 899 l 157 926 l 364 513 l 571 926 l 606 899 l 389 463 m 385 992 l 342 992 l 342 1036 l 385 1036 l 385 992 z "},"Ẏ":{"ha":725,"x_min":121,"x_max":606,"o":"m 606 899 l 385 458 l 385 0 l 340 0 l 340 458 l 121 899 l 156 926 l 363 513 l 569 926 l 606 899 m 385 992 l 342 992 l 342 1036 l 385 1036 l 385 992 z "},"ẏ":{"ha":725,"x_min":121,"x_max":606,"o":"m 606 899 l 385 458 l 385 0 l 340 0 l 340 458 l 121 899 l 156 926 l 363 513 l 569 926 l 606 899 m 385 992 l 342 992 l 342 1036 l 385 1036 l 385 992 z "},"Ḅ":{"ha":725,"x_min":121,"x_max":606,"o":"m 386 -65 l 386 -110 l 342 -110 l 342 -65 l 386 -65 m 464 463 q 567 376 528 433 q 606 243 606 315 q 535 72 606 143 q 364 0 464 0 l 121 0 l 121 926 l 364 926 q 535 856 464 926 q 606 683 606 783 q 567 550 606 611 q 464 463 528 492 m 165 485 l 364 485 q 504 543 446 485 q 563 683 563 601 q 504 824 563 765 q 364 882 446 882 l 165 882 l 165 485 m 364 44 q 504 103 446 44 q 563 243 563 161 q 504 383 563 325 q 364 442 446 442 l 165 442 l 165 44 l 364 44 z "},"ḅ":{"ha":725,"x_min":121,"x_max":606,"o":"m 386 -65 l 386 -110 l 342 -110 l 342 -65 l 386 -65 m 464 463 q 567 376 528 433 q 606 243 606 315 q 535 72 606 143 q 364 0 464 0 l 121 0 l 121 926 l 364 926 q 535 856 464 926 q 606 683 606 783 q 567 550 606 611 q 464 463 528 492 m 165 485 l 364 485 q 504 543 446 485 q 563 683 563 601 q 504 824 563 765 q 364 882 446 882 l 165 882 l 165 485 m 364 44 q 504 103 446 44 q 563 243 563 161 q 504 383 563 325 q 364 442 446 442 l 165 442 l 165 44 l 364 44 z "},"Ḍ":{"ha":725,"x_min":121,"x_max":606,"o":"m 364 926 q 535 856 464 926 q 606 683 606 783 l 606 243 q 535 72 606 143 q 364 0 464 0 l 121 0 l 121 926 l 364 926 m 563 683 q 504 824 563 765 q 364 882 446 882 l 165 882 l 165 44 l 364 44 q 504 103 446 44 q 563 243 563 161 l 563 683 m 386 -65 l 386 -110 l 342 -110 l 342 -65 l 386 -65 z "},"ḍ":{"ha":725,"x_min":121,"x_max":606,"o":"m 364 926 q 535 856 464 926 q 606 683 606 783 l 606 243 q 535 72 606 143 q 364 0 464 0 l 121 0 l 121 926 l 364 926 m 563 683 q 504 824 563 765 q 364 882 446 882 l 165 882 l 165 44 l 364 44 q 504 103 446 44 q 563 243 563 161 l 563 683 m 386 -65 l 386 -110 l 342 -110 l 342 -65 l 386 -65 z "},"Ḥ":{"ha":725,"x_min":121,"x_max":606,"o":"m 606 926 l 606 0 l 563 0 l 563 440 l 165 440 l 165 0 l 121 0 l 121 926 l 165 926 l 165 485 l 563 485 l 563 926 l 606 926 m 386 -65 l 386 -110 l 342 -110 l 342 -65 l 386 -65 z "},"ḥ":{"ha":725,"x_min":121,"x_max":606,"o":"m 606 926 l 606 0 l 563 0 l 563 440 l 165 440 l 165 0 l 121 0 l 121 926 l 165 926 l 165 485 l 563 485 l 563 926 l 606 926 m 386 -65 l 386 -110 l 342 -110 l 342 -65 l 386 -65 z "},"Ḳ":{"ha":725,"x_min":121,"x_max":606,"o":"m 174 463 l 606 31 l 575 0 l 165 410 l 165 0 l 121 0 l 121 926 l 165 926 l 165 517 l 575 926 l 606 894 l 174 463 m 386 -65 l 386 -110 l 342 -110 l 342 -65 l 386 -65 z "},"ḳ":{"ha":725,"x_min":121,"x_max":606,"o":"m 174 463 l 606 31 l 575 0 l 165 410 l 165 0 l 121 0 l 121 926 l 165 926 l 165 517 l 575 926 l 606 894 l 174 463 m 386 -65 l 386 -110 l 342 -110 l 342 -65 l 386 -65 z "},"Ḷ":{"ha":725,"x_min":121,"x_max":606,"o":"m 121 0 l 121 926 l 165 926 l 165 44 l 606 44 l 606 0 l 121 0 m 386 -65 l 386 -110 l 342 -110 l 342 -65 l 386 -65 z "},"ḷ":{"ha":725,"x_min":121,"x_max":606,"o":"m 121 0 l 121 926 l 165 926 l 165 44 l 606 44 l 606 0 l 121 0 m 386 -65 l 386 -110 l 342 -110 l 342 -65 l 386 -65 z "},"Ṃ":{"ha":725,"x_min":121,"x_max":606,"o":"m 165 0 l 121 0 l 121 926 l 157 926 l 364 513 l 571 926 l 606 926 l 606 0 l 563 0 l 563 811 l 364 414 l 165 811 l 165 0 m 386 -65 l 386 -110 l 342 -110 l 342 -65 l 386 -65 z "},"ṃ":{"ha":725,"x_min":121,"x_max":606,"o":"m 165 0 l 121 0 l 121 926 l 157 926 l 364 513 l 571 926 l 606 926 l 606 0 l 563 0 l 563 811 l 364 414 l 165 811 l 165 0 m 386 -65 l 386 -110 l 342 -110 l 342 -65 l 386 -65 z "},"Ṇ":{"ha":725,"x_min":121,"x_max":606,"o":"m 563 926 l 606 926 l 606 0 l 571 0 l 165 811 l 165 0 l 121 0 l 121 926 l 157 926 l 563 115 l 563 926 m 386 -65 l 386 -110 l 342 -110 l 342 -65 l 386 -65 z "},"ṇ":{"ha":725,"x_min":121,"x_max":606,"o":"m 563 926 l 606 926 l 606 0 l 571 0 l 165 811 l 165 0 l 121 0 l 121 926 l 157 926 l 563 115 l 563 926 m 386 -65 l 386 -110 l 342 -110 l 342 -65 l 386 -65 z "},"Ṛ":{"ha":725,"x_min":121,"x_max":606,"o":"m 606 31 l 575 0 l 165 410 l 165 0 l 121 0 l 121 926 l 364 926 q 535 856 464 926 q 606 683 606 783 q 535 513 606 583 q 364 440 464 440 l 196 440 l 606 31 m 165 485 l 364 485 q 504 543 446 485 q 563 683 563 601 q 504 824 563 765 q 364 882 446 882 l 165 882 l 165 485 m 386 -65 l 386 -110 l 342 -110 l 342 -65 l 386 -65 z "},"ṛ":{"ha":725,"x_min":121,"x_max":606,"o":"m 606 31 l 575 0 l 165 410 l 165 0 l 121 0 l 121 926 l 364 926 q 535 856 464 926 q 606 683 606 783 q 535 513 606 583 q 364 440 464 440 l 196 440 l 606 31 m 165 485 l 364 485 q 504 543 446 485 q 563 683 563 601 q 504 824 563 765 q 364 882 446 882 l 165 882 l 165 485 m 386 -65 l 386 -110 l 342 -110 l 342 -65 l 386 -65 z "},"Ṣ":{"ha":725,"x_min":122,"x_max":607,"o":"m 364 0 q 193 71 264 0 q 122 242 122 142 l 165 242 q 224 103 165 161 q 364 44 282 44 q 504 103 446 44 q 563 242 563 160 q 504 383 563 324 q 364 442 446 442 q 193 513 264 442 q 122 683 122 582 q 193 856 122 785 q 364 926 264 926 q 536 856 465 926 q 607 683 607 785 l 563 683 q 504 824 563 765 q 364 881 446 881 q 224 824 282 881 q 165 683 165 765 q 224 543 165 601 q 364 485 282 485 q 536 414 465 485 q 607 242 607 343 q 536 71 607 142 q 364 0 465 0 m 386 -65 l 386 -110 l 342 -110 l 342 -65 l 386 -65 z "},"ṣ":{"ha":725,"x_min":122,"x_max":607,"o":"m 364 0 q 193 71 264 0 q 122 242 122 142 l 165 242 q 224 103 165 161 q 364 44 282 44 q 504 103 446 44 q 563 242 563 160 q 504 383 563 324 q 364 442 446 442 q 193 513 264 442 q 122 683 122 582 q 193 856 122 785 q 364 926 264 926 q 536 856 465 926 q 607 683 607 785 l 563 683 q 504 824 563 765 q 364 881 446 881 q 224 824 282 881 q 165 683 165 765 q 224 543 165 601 q 364 485 282 485 q 536 414 465 485 q 607 242 607 343 q 536 71 607 142 q 364 0 465 0 m 386 -65 l 386 -110 l 342 -110 l 342 -65 l 386 -65 z "},"Ṭ":{"ha":725,"x_min":121,"x_max":606,"o":"m 606 926 l 606 882 l 386 882 l 386 0 l 342 0 l 342 882 l 121 882 l 121 926 l 606 926 m 386 -65 l 386 -110 l 342 -110 l 342 -65 l 386 -65 z "},"ṭ":{"ha":725,"x_min":121,"x_max":606,"o":"m 606 926 l 606 882 l 386 882 l 386 0 l 342 0 l 342 882 l 121 882 l 121 926 l 606 926 m 386 -65 l 386 -110 l 342 -110 l 342 -65 l 386 -65 z "},"Ṿ":{"ha":725,"x_min":121,"x_max":606,"o":"m 376 0 l 350 0 l 121 463 l 121 926 l 165 926 l 165 468 l 364 71 l 563 468 l 563 926 l 606 926 l 604 453 l 376 0 m 386 -65 l 386 -110 l 342 -110 l 342 -65 l 386 -65 z "},"ṿ":{"ha":725,"x_min":121,"x_max":606,"o":"m 376 0 l 350 0 l 121 463 l 121 926 l 165 926 l 165 468 l 364 71 l 563 468 l 563 926 l 606 926 l 604 453 l 376 0 m 386 -65 l 386 -110 l 342 -110 l 342 -65 l 386 -65 z "},"Ẉ":{"ha":725,"x_min":121,"x_max":606,"o":"m 157 0 l 121 0 l 121 926 l 165 926 l 165 115 l 364 513 l 563 115 l 563 926 l 606 926 l 606 0 l 571 0 l 364 414 l 157 0 m 386 -65 l 386 -110 l 342 -110 l 342 -65 l 386 -65 z "},"ẉ":{"ha":725,"x_min":121,"x_max":606,"o":"m 157 0 l 121 0 l 121 926 l 165 926 l 165 115 l 364 513 l 563 115 l 563 926 l 606 926 l 606 0 l 571 0 l 364 414 l 157 0 m 386 -65 l 386 -110 l 342 -110 l 342 -65 l 386 -65 z "},"Ẓ":{"ha":725,"x_min":107,"x_max":619,"o":"m 107 0 l 549 882 l 121 882 l 121 926 l 619 926 l 179 44 l 606 44 l 606 0 l 107 0 m 386 -65 l 386 -110 l 342 -110 l 342 -65 l 386 -65 z "},"ẓ":{"ha":725,"x_min":107,"x_max":619,"o":"m 107 0 l 549 882 l 121 882 l 121 926 l 619 926 l 179 44 l 606 44 l 606 0 l 107 0 m 386 -65 l 386 -110 l 342 -110 l 342 -65 l 386 -65 z "},"Ḻ":{"ha":725,"x_min":121,"x_max":606,"o":"m 121 0 l 121 926 l 165 926 l 165 44 l 606 44 l 606 0 l 121 0 m 519 -110 l 210 -110 l 210 -65 l 519 -65 l 519 -110 z "},"ḻ":{"ha":725,"x_min":121,"x_max":606,"o":"m 121 0 l 121 926 l 165 926 l 165 44 l 606 44 l 606 0 l 121 0 m 519 -110 l 210 -110 l 210 -65 l 519 -65 l 519 -110 z "},"Ṉ":{"ha":725,"x_min":121,"x_max":606,"o":"m 563 926 l 606 926 l 606 0 l 571 0 l 165 811 l 165 0 l 121 0 l 121 926 l 157 926 l 563 115 l 563 926 m 519 -110 l 210 -110 l 210 -65 l 519 -65 l 519 -110 z "},"ṉ":{"ha":725,"x_min":121,"x_max":606,"o":"m 563 926 l 606 926 l 606 0 l 571 0 l 165 811 l 165 0 l 121 0 l 121 926 l 157 926 l 563 115 l 563 926 m 519 -110 l 210 -110 l 210 -65 l 519 -65 l 519 -110 z "},"Ĵ":{"ha":725,"x_min":121,"x_max":606,"o":"m 606 926 l 606 243 q 535 72 606 143 q 364 0 464 0 q 193 72 264 0 q 121 243 121 143 l 165 243 q 224 103 165 161 q 364 44 282 44 q 504 103 446 44 q 563 243 563 161 l 563 926 l 606 926 m 394 1081 l 451 1024 l 421 993 l 364 1050 l 307 993 l 275 1024 l 332 1081 l 394 1081 z "},"ĵ":{"ha":725,"x_min":121,"x_max":606,"o":"m 606 926 l 606 243 q 535 72 606 143 q 364 0 464 0 q 193 72 264 0 q 121 243 121 143 l 165 243 q 224 103 165 161 q 364 44 282 44 q 504 103 446 44 q 563 243 563 161 l 563 926 l 606 926 m 394 1081 l 451 1024 l 421 993 l 364 1050 l 307 993 l 275 1024 l 332 1081 l 394 1081 z "},"Ẽ":{"ha":725,"x_min":121,"x_max":606,"o":"m 165 882 l 165 485 l 606 485 l 606 440 l 165 440 l 165 44 l 606 44 l 606 0 l 121 0 l 121 926 l 606 926 l 606 882 l 165 882 m 424 993 l 361 993 l 335 1018 l 308 993 l 247 993 l 335 1081 l 392 1024 l 450 1081 l 481 1050 l 424 993 z "},"ẽ":{"ha":725,"x_min":121,"x_max":606,"o":"m 165 882 l 165 485 l 606 485 l 606 440 l 165 440 l 165 44 l 606 44 l 606 0 l 121 0 l 121 926 l 606 926 l 606 882 l 165 882 m 424 993 l 361 993 l 335 1018 l 308 993 l 247 993 l 335 1081 l 392 1024 l 450 1081 l 481 1050 l 424 993 z "},"Ṽ":{"ha":725,"x_min":121,"x_max":606,"o":"m 376 0 l 350 0 l 121 463 l 121 926 l 165 926 l 165 468 l 364 71 l 563 468 l 563 926 l 606 926 l 604 453 l 376 0 m 424 993 l 361 993 l 335 1018 l 308 993 l 247 993 l 335 1081 l 392 1024 l 450 1081 l 481 1050 l 424 993 z "},"ṽ":{"ha":725,"x_min":121,"x_max":606,"o":"m 376 0 l 350 0 l 121 463 l 121 926 l 165 926 l 165 468 l 364 71 l 563 468 l 563 926 l 606 926 l 604 453 l 376 0 m 424 993 l 361 993 l 335 1018 l 308 993 l 247 993 l 335 1081 l 392 1024 l 450 1081 l 481 1050 l 424 993 z "},"Ỹ":{"ha":725,"x_min":121,"x_max":606,"o":"m 606 899 l 385 458 l 385 0 l 340 0 l 340 458 l 121 899 l 156 926 l 363 513 l 569 926 l 606 899 m 424 993 l 361 993 l 335 1018 l 308 993 l 247 993 l 335 1081 l 392 1024 l 450 1081 l 481 1050 l 424 993 z "},"ỹ":{"ha":725,"x_min":121,"x_max":606,"o":"m 606 899 l 385 458 l 385 0 l 340 0 l 340 458 l 121 899 l 156 926 l 363 513 l 569 926 l 606 899 m 424 993 l 361 993 l 335 1018 l 308 993 l 247 993 l 335 1081 l 392 1024 l 450 1081 l 481 1050 l 424 993 z "},"Ȟ":{"ha":725,"x_min":121,"x_max":606,"o":"m 606 926 l 606 0 l 563 0 l 563 440 l 165 440 l 165 0 l 121 0 l 121 926 l 165 926 l 165 485 l 563 485 l 563 926 l 606 926 m 394 993 l 332 993 l 275 1050 l 307 1081 l 364 1024 l 421 1081 l 451 1050 l 394 993 z "},"ȟ":{"ha":725,"x_min":121,"x_max":606,"o":"m 606 926 l 606 0 l 563 0 l 563 440 l 165 440 l 165 0 l 121 0 l 121 926 l 165 926 l 165 485 l 563 485 l 563 926 l 606 926 m 394 993 l 332 993 l 275 1050 l 307 1081 l 364 1024 l 421 1081 l 451 1050 l 394 993 z "},"Ḿ":{"ha":725,"x_min":121,"x_max":606,"o":"m 165 0 l 121 0 l 121 926 l 157 926 l 364 513 l 571 926 l 606 926 l 606 0 l 563 0 l 563 811 l 364 414 l 165 811 l 165 0 m 394 993 l 332 993 l 421 1081 l 451 1050 l 394 993 z "},"ḿ":{"ha":725,"x_min":121,"x_max":606,"o":"m 165 0 l 121 0 l 121 926 l 157 926 l 364 513 l 571 926 l 606 926 l 606 0 l 563 0 l 563 811 l 364 414 l 165 811 l 165 0 m 394 993 l 332 993 l 421 1081 l 451 1050 l 394 993 z "},"Ẅ":{"ha":725,"x_min":121,"x_max":606,"o":"m 157 0 l 121 0 l 121 926 l 165 926 l 165 115 l 364 513 l 563 115 l 563 926 l 606 926 l 606 0 l 571 0 l 364 414 l 157 0 m 297 992 l 254 992 l 254 1036 l 297 1036 l 297 992 m 475 992 l 431 992 l 431 1036 l 475 1036 l 475 992 z "},"ẅ":{"ha":725,"x_min":121,"x_max":606,"o":"m 157 0 l 121 0 l 121 926 l 165 926 l 165 115 l 364 513 l 563 115 l 563 926 l 606 926 l 606 0 l 571 0 l 364 414 l 157 0 m 297 992 l 254 992 l 254 1036 l 297 1036 l 297 992 m 475 992 l 431 992 l 431 1036 l 475 1036 l 475 992 z "},"Ỳ":{"ha":725,"x_min":121,"x_max":606,"o":"m 606 899 l 385 458 l 385 0 l 340 0 l 340 458 l 121 899 l 156 926 l 363 513 l 569 926 l 606 899 m 394 993 l 332 993 l 275 1050 l 307 1081 l 394 993 z "},"ỳ":{"ha":725,"x_min":121,"x_max":606,"o":"m 606 899 l 385 458 l 385 0 l 340 0 l 340 458 l 121 899 l 156 926 l 363 513 l 569 926 l 606 899 m 394 993 l 332 993 l 275 1050 l 307 1081 l 394 993 z "},"Ẁ":{"ha":725,"x_min":121,"x_max":606,"o":"m 157 0 l 121 0 l 121 926 l 165 926 l 165 115 l 364 513 l 563 115 l 563 926 l 606 926 l 606 0 l 571 0 l 364 414 l 157 0 m 394 993 l 332 993 l 275 1050 l 307 1081 l 394 993 z "},"ẁ":{"ha":725,"x_min":121,"x_max":606,"o":"m 157 0 l 121 0 l 121 926 l 165 926 l 165 115 l 364 513 l 563 115 l 563 926 l 606 926 l 606 0 l 571 0 l 364 414 l 157 0 m 394 993 l 332 993 l 275 1050 l 307 1081 l 394 993 z "},"Ẃ":{"ha":725,"x_min":121,"x_max":606,"o":"m 157 0 l 121 0 l 121 926 l 165 926 l 165 115 l 364 513 l 563 115 l 563 926 l 606 926 l 606 0 l 571 0 l 364 414 l 157 0 m 394 993 l 332 993 l 421 1081 l 451 1050 l 394 993 z "},"ẃ":{"ha":725,"x_min":121,"x_max":606,"o":"m 157 0 l 121 0 l 121 926 l 165 926 l 165 115 l 364 513 l 563 115 l 563 926 l 606 926 l 606 0 l 571 0 l 364 414 l 157 0 m 394 993 l 332 993 l 421 1081 l 451 1050 l 394 993 z "},"Ά":{"ha":725,"x_min":121,"x_max":607,"o":"m 364 926 q 536 856 465 926 q 607 683 607 785 l 607 0 l 561 0 l 561 442 l 165 442 l 165 0 l 121 0 l 121 683 q 192 856 121 785 q 364 926 263 926 m 561 683 q 504 824 561 765 q 364 882 446 882 q 224 824 282 882 q 165 683 165 765 l 165 485 l 561 485 l 561 683 m 165 926 l 165 838 l 121 838 l 121 926 l 165 926 z "},"ά":{"ha":725,"x_min":121,"x_max":607,"o":"m 364 926 q 536 856 465 926 q 607 683 607 785 l 607 0 l 561 0 l 561 442 l 165 442 l 165 0 l 121 0 l 121 683 q 192 856 121 785 q 364 926 263 926 m 561 683 q 504 824 561 765 q 364 882 446 882 q 224 824 282 882 q 165 683 165 765 l 165 485 l 561 485 l 561 683 m 165 926 l 165 838 l 121 838 l 121 926 l 165 926 z "},"Έ":{"ha":725,"x_min":32,"x_max":606,"o":"m 165 882 l 165 485 l 606 485 l 606 440 l 165 440 l 165 44 l 606 44 l 606 0 l 121 0 l 121 926 l 606 926 l 606 882 l 165 882 m 76 926 l 76 838 l 32 838 l 32 926 l 76 926 z "},"έ":{"ha":725,"x_min":32,"x_max":606,"o":"m 165 882 l 165 485 l 606 485 l 606 440 l 165 440 l 165 44 l 606 44 l 606 0 l 121 0 l 121 926 l 606 926 l 606 882 l 165 882 m 76 926 l 76 838 l 32 838 l 32 926 l 76 926 z "},"Ή":{"ha":725,"x_min":32,"x_max":606,"o":"m 606 926 l 606 0 l 563 0 l 563 440 l 165 440 l 165 0 l 121 0 l 121 926 l 165 926 l 165 485 l 563 485 l 563 926 l 606 926 m 76 926 l 76 838 l 32 838 l 32 926 l 76 926 z "},"ή":{"ha":725,"x_min":32,"x_max":606,"o":"m 606 926 l 606 0 l 563 0 l 563 440 l 165 440 l 165 0 l 121 0 l 121 926 l 165 926 l 165 485 l 563 485 l 563 926 l 606 926 m 76 926 l 76 838 l 32 838 l 32 926 l 76 926 z "},"Ί":{"ha":725,"x_min":121,"x_max":606,"o":"m 386 882 l 386 44 l 606 44 l 606 0 l 121 0 l 121 44 l 342 44 l 342 882 l 210 882 l 210 926 l 606 926 l 606 882 l 386 882 m 165 926 l 165 838 l 121 838 l 121 926 l 165 926 z "},"ί":{"ha":725,"x_min":121,"x_max":606,"o":"m 386 882 l 386 44 l 606 44 l 606 0 l 121 0 l 121 44 l 342 44 l 342 882 l 210 882 l 210 926 l 606 926 l 606 882 l 386 882 m 165 926 l 165 838 l 121 838 l 121 926 l 165 926 z "},"Ό":{"ha":725,"x_min":121,"x_max":606,"o":"m 364 926 q 535 856 464 926 q 606 683 606 783 l 606 243 q 535 72 606 143 q 364 0 464 0 q 193 72 264 0 q 121 243 121 143 l 121 683 q 193 856 121 783 q 364 926 264 926 m 563 683 q 504 824 563 765 q 364 882 446 882 q 224 824 282 882 q 165 683 165 765 l 165 243 q 224 103 165 161 q 364 44 282 44 q 504 103 446 44 q 563 243 563 161 l 563 683 m 165 926 l 165 838 l 121 838 l 121 926 l 165 926 z "},"ό":{"ha":725,"x_min":121,"x_max":606,"o":"m 364 926 q 535 856 464 926 q 606 683 606 783 l 606 243 q 535 72 606 143 q 364 0 464 0 q 193 72 264 0 q 121 243 121 143 l 121 683 q 193 856 121 783 q 364 926 264 926 m 563 683 q 504 824 563 765 q 364 882 446 882 q 224 824 282 882 q 165 683 165 765 l 165 243 q 224 103 165 161 q 364 44 282 44 q 504 103 446 44 q 563 243 563 161 l 563 683 m 165 926 l 165 838 l 121 838 l 121 926 l 165 926 z "},"Ύ":{"ha":725,"x_min":32,"x_max":606,"o":"m 606 899 l 385 458 l 385 0 l 340 0 l 340 458 l 121 899 l 156 926 l 363 513 l 569 926 l 606 899 m 76 926 l 76 838 l 32 838 l 32 926 l 76 926 z "},"ύ":{"ha":725,"x_min":32,"x_max":606,"o":"m 606 899 l 385 458 l 385 0 l 340 0 l 340 458 l 121 899 l 156 926 l 363 513 l 569 926 l 606 899 m 76 926 l 76 838 l 32 838 l 32 926 l 76 926 z "},"Ώ":{"ha":725,"x_min":121,"x_max":607,"o":"m 607 0 l 453 0 l 453 65 q 563 243 563 126 l 563 685 q 504 824 563 767 q 364 882 446 882 q 224 824 282 882 q 165 685 165 767 l 165 243 q 275 65 165 126 l 275 0 l 121 0 l 121 44 l 225 44 q 121 243 121 119 l 121 685 q 192 856 121 785 q 364 926 264 926 q 535 856 464 926 q 607 685 607 785 l 607 243 q 503 44 607 119 l 607 44 l 607 0 m 165 926 l 165 838 l 121 838 l 121 926 l 165 926 z "},"ώ":{"ha":725,"x_min":121,"x_max":607,"o":"m 607 0 l 453 0 l 453 65 q 563 243 563 126 l 563 685 q 504 824 563 767 q 364 882 446 882 q 224 824 282 882 q 165 685 165 767 l 165 243 q 275 65 165 126 l 275 0 l 121 0 l 121 44 l 225 44 q 121 243 121 119 l 121 685 q 192 856 121 785 q 364 926 264 926 q 535 856 464 926 q 607 685 607 785 l 607 243 q 503 44 607 119 l 607 44 l 607 0 m 165 926 l 165 838 l 121 838 l 121 926 l 165 926 z "},"ς":{"ha":725,"x_min":121,"x_max":607,"o":"m 364 264 q 536 193 465 264 q 607 22 607 122 l 607 0 l 564 0 l 564 22 q 506 163 564 104 q 364 221 447 221 q 195 290 265 221 q 122 460 125 358 l 121 683 q 192 855 121 783 q 364 926 264 926 q 536 855 465 926 q 607 683 607 783 l 564 683 q 506 824 564 765 q 364 882 447 882 q 224 824 282 882 q 165 683 165 765 l 165 463 q 225 321 168 378 q 364 264 282 264 z "},"ΐ":{"ha":725,"x_min":121,"x_max":606,"o":"m 386 882 l 386 44 l 606 44 l 606 0 l 121 0 l 121 44 l 342 44 l 342 882 l 121 882 l 121 926 l 606 926 l 606 882 l 386 882 m 297 992 l 254 992 l 254 1036 l 297 1036 l 297 992 m 475 992 l 431 992 l 431 1036 l 475 1036 l 475 992 m 386 992 l 342 992 l 342 1081 l 386 1081 l 386 992 z "},"ΰ":{"ha":725,"x_min":121,"x_max":606,"o":"m 606 926 l 606 243 q 535 72 606 143 q 364 0 464 0 q 193 72 264 0 q 121 243 121 143 l 121 926 l 165 926 l 165 243 q 224 103 165 161 q 364 44 282 44 q 504 103 446 44 q 561 243 561 161 l 561 926 l 606 926 m 297 992 l 254 992 l 254 1036 l 297 1036 l 297 992 m 475 992 l 431 992 l 431 1036 l 475 1036 l 475 992 m 386 992 l 342 992 l 342 1081 l 386 1081 l 386 992 z "},"ĸ":{"ha":725,"x_min":121,"x_max":606,"o":"m 174 463 l 606 31 l 575 0 l 165 410 l 165 0 l 121 0 l 121 926 l 165 926 l 165 517 l 575 926 l 606 894 l 174 463 z "},"Ґ":{"ha":725,"x_min":121,"x_max":606,"o":"m 606 882 l 164 882 l 164 0 l 121 0 l 121 926 l 561 926 l 561 1015 l 606 1015 l 606 882 z "},"ґ":{"ha":725,"x_min":121,"x_max":606,"o":"m 606 882 l 164 882 l 164 0 l 121 0 l 121 926 l 561 926 l 561 1015 l 606 1015 l 606 882 z "},"Џ":{"ha":725,"x_min":121,"x_max":607,"o":"m 386 0 l 386 -89 l 342 -89 l 342 0 l 121 0 l 121 926 l 165 926 l 165 44 l 563 44 l 563 926 l 607 926 l 607 0 l 386 0 z "},"џ":{"ha":725,"x_min":121,"x_max":607,"o":"m 386 0 l 386 -89 l 342 -89 l 342 0 l 121 0 l 121 926 l 165 926 l 165 44 l 563 44 l 563 926 l 607 926 l 607 0 l 386 0 z "},"Ӂ":{"ha":725,"x_min":121,"x_max":606,"o":"m 606 0 l 561 0 l 561 243 q 511 374 561 319 q 385 439 461 429 l 385 0 l 342 0 l 342 439 q 215 374 265 429 q 165 243 165 319 l 165 0 l 121 0 l 121 243 q 160 376 121 317 q 264 464 199 435 q 160 552 199 493 q 121 685 121 611 l 121 926 l 165 926 l 165 685 q 215 553 165 608 q 342 488 265 499 l 342 926 l 385 926 l 385 488 q 511 553 461 499 q 561 685 561 608 l 561 926 l 606 926 l 606 685 q 566 552 606 611 q 463 464 526 493 q 566 376 526 435 q 606 243 606 317 l 606 0 m 394 993 l 332 993 l 275 1050 l 307 1081 l 364 1024 l 421 1081 l 451 1050 l 394 993 z "},"ӂ":{"ha":725,"x_min":121,"x_max":606,"o":"m 606 0 l 561 0 l 561 243 q 511 374 561 319 q 385 439 461 429 l 385 0 l 342 0 l 342 439 q 215 374 265 429 q 165 243 165 319 l 165 0 l 121 0 l 121 243 q 160 376 121 317 q 264 464 199 435 q 160 552 199 493 q 121 685 121 611 l 121 926 l 165 926 l 165 685 q 215 553 165 608 q 342 488 265 499 l 342 926 l 385 926 l 385 488 q 511 553 461 499 q 561 685 561 608 l 561 926 l 606 926 l 606 685 q 566 552 606 611 q 463 464 526 493 q 566 376 526 435 q 606 243 606 317 l 606 0 m 394 993 l 332 993 l 275 1050 l 307 1081 l 364 1024 l 421 1081 l 451 1050 l 394 993 z "},"Ӑ":{"ha":725,"x_min":121,"x_max":607,"o":"m 364 926 q 536 856 465 926 q 607 683 607 785 l 607 0 l 561 0 l 561 442 l 165 442 l 165 0 l 121 0 l 121 683 q 192 856 121 785 q 364 926 263 926 m 561 683 q 504 824 561 765 q 364 882 446 882 q 224 824 282 882 q 165 683 165 765 l 165 485 l 561 485 l 561 683 m 394 993 l 332 993 l 275 1050 l 307 1081 l 364 1024 l 421 1081 l 451 1050 l 394 993 z "},"ӑ":{"ha":725,"x_min":121,"x_max":607,"o":"m 364 926 q 536 856 465 926 q 607 683 607 785 l 607 0 l 561 0 l 561 442 l 165 442 l 165 0 l 121 0 l 121 683 q 192 856 121 785 q 364 926 263 926 m 561 683 q 504 824 561 765 q 364 882 446 882 q 224 824 282 882 q 165 683 165 765 l 165 485 l 561 485 l 561 683 m 394 993 l 332 993 l 275 1050 l 307 1081 l 364 1024 l 421 1081 l 451 1050 l 394 993 z "},"Ӗ":{"ha":725,"x_min":121,"x_max":606,"o":"m 165 882 l 165 485 l 606 485 l 606 440 l 165 440 l 165 44 l 606 44 l 606 0 l 121 0 l 121 926 l 606 926 l 606 882 l 165 882 m 394 993 l 332 993 l 275 1050 l 307 1081 l 364 1024 l 421 1081 l 451 1050 l 394 993 z "},"ӗ":{"ha":725,"x_min":121,"x_max":606,"o":"m 165 882 l 165 485 l 606 485 l 606 440 l 165 440 l 165 44 l 606 44 l 606 0 l 121 0 l 121 926 l 606 926 l 606 882 l 165 882 m 394 993 l 332 993 l 275 1050 l 307 1081 l 364 1024 l 421 1081 l 451 1050 l 394 993 z "},"Ҫ":{"ha":725,"x_min":121,"x_max":606,"o":"m 342 1 q 193 72 256 8 q 121 243 121 143 l 121 683 q 193 856 121 783 q 364 926 264 926 q 535 856 464 926 q 606 683 606 783 l 563 683 q 504 824 563 765 q 364 882 446 882 q 224 824 282 882 q 165 683 165 765 l 165 243 q 224 103 165 161 q 364 44 282 44 q 504 103 446 44 q 563 243 563 161 l 606 243 q 535 72 606 143 q 386 1 472 8 l 386 -89 l 342 -89 l 342 1 z "},"ҫ":{"ha":725,"x_min":121,"x_max":606,"o":"m 342 1 q 193 72 256 8 q 121 243 121 143 l 121 683 q 193 856 121 783 q 364 926 264 926 q 535 856 464 926 q 606 683 606 783 l 563 683 q 504 824 563 765 q 364 882 446 882 q 224 824 282 882 q 165 683 165 765 l 165 243 q 224 103 165 161 q 364 44 282 44 q 504 103 446 44 q 563 243 563 161 l 606 243 q 535 72 606 143 q 386 1 472 8 l 386 -89 l 342 -89 l 342 1 z "},"Ӳ":{"ha":725,"x_min":121,"x_max":606,"o":"m 142 0 l 121 0 l 121 43 l 142 43 q 281 99 224 43 q 340 239 338 156 l 121 911 l 163 926 l 363 313 l 564 926 l 606 911 l 385 238 q 310 68 379 136 q 142 0 242 0 m 332 993 l 269 993 l 358 1081 l 389 1050 l 332 993 m 457 993 l 394 993 l 483 1081 l 514 1050 l 457 993 z "},"ӳ":{"ha":725,"x_min":121,"x_max":606,"o":"m 142 0 l 121 0 l 121 43 l 142 43 q 281 99 224 43 q 340 239 338 156 l 121 911 l 163 926 l 363 313 l 564 926 l 606 911 l 385 238 q 310 68 379 136 q 142 0 242 0 m 332 993 l 269 993 l 358 1081 l 389 1050 l 332 993 m 457 993 l 394 993 l 483 1081 l 514 1050 l 457 993 z "},"Ө":{"ha":725,"x_min":121,"x_max":606,"o":"m 563 486 l 563 683 q 504 824 563 765 q 364 882 446 882 q 224 824 282 882 q 165 683 165 765 l 165 486 l 563 486 m 165 442 l 165 243 q 224 103 165 161 q 364 44 282 44 q 504 103 446 44 q 563 243 563 161 l 563 442 l 165 442 m 535 856 q 606 683 606 783 l 606 243 q 535 72 606 143 q 364 0 464 0 q 193 72 264 0 q 121 243 121 143 l 121 683 q 193 856 121 783 q 364 926 264 926 q 535 856 464 926 z "},"ө":{"ha":725,"x_min":121,"x_max":606,"o":"m 563 486 l 563 683 q 504 824 563 765 q 364 882 446 882 q 224 824 282 882 q 165 683 165 765 l 165 486 l 563 486 m 165 442 l 165 243 q 224 103 165 161 q 364 44 282 44 q 504 103 446 44 q 563 243 563 161 l 563 442 l 165 442 m 535 856 q 606 683 606 783 l 606 243 q 535 72 606 143 q 364 0 464 0 q 193 72 264 0 q 121 243 121 143 l 121 683 q 193 856 121 783 q 364 926 264 926 q 535 856 464 926 z "},"Ү":{"ha":725,"x_min":121,"x_max":606,"o":"m 606 899 l 385 458 l 385 0 l 340 0 l 340 458 l 121 899 l 156 926 l 363 513 l 569 926 l 606 899 z "},"ү":{"ha":725,"x_min":121,"x_max":606,"o":"m 606 899 l 385 458 l 385 0 l 340 0 l 340 458 l 121 899 l 156 926 l 363 513 l 569 926 l 606 899 z "},"Ҙ":{"ha":725,"x_min":121,"x_max":606,"o":"m 342 1 q 192 71 254 8 q 121 243 121 142 l 165 243 q 223 103 165 161 q 364 44 281 44 q 503 103 446 44 q 561 243 561 161 q 503 383 561 325 q 364 442 446 442 l 364 485 q 503 543 446 485 q 561 683 561 601 q 503 824 561 765 q 364 882 446 882 q 223 824 281 882 q 165 683 165 765 l 121 683 q 192 856 121 785 q 364 926 263 926 q 535 856 464 926 q 606 683 606 785 q 567 551 606 610 q 463 463 528 493 q 567 375 528 433 q 606 243 606 317 q 535 71 606 142 q 386 1 472 8 l 386 -89 l 342 -89 l 342 1 z "},"ҙ":{"ha":725,"x_min":121,"x_max":606,"o":"m 342 1 q 192 71 254 8 q 121 243 121 142 l 165 243 q 223 103 165 161 q 364 44 281 44 q 503 103 446 44 q 561 243 561 161 q 503 383 561 325 q 364 442 446 442 l 364 485 q 503 543 446 485 q 561 683 561 601 q 503 824 561 765 q 364 882 446 882 q 223 824 281 882 q 165 683 165 765 l 121 683 q 192 856 121 785 q 364 926 263 926 q 535 856 464 926 q 606 683 606 785 q 567 551 606 610 q 463 463 528 493 q 567 375 528 433 q 606 243 606 317 q 535 71 606 142 q 386 1 472 8 l 386 -89 l 342 -89 l 342 1 z "},"Һ":{"ha":725,"x_min":121,"x_max":607,"o":"m 121 926 l 165 926 l 165 485 l 364 485 q 535 414 464 485 q 607 242 607 343 l 607 0 l 563 0 l 563 242 q 504 382 563 324 q 364 440 446 440 l 165 440 l 165 0 l 121 0 l 121 926 z "},"һ":{"ha":725,"x_min":121,"x_max":607,"o":"m 121 926 l 165 926 l 165 485 l 364 485 q 535 414 464 485 q 607 242 607 343 l 607 0 l 563 0 l 563 242 q 504 382 563 324 q 364 440 446 440 l 165 440 l 165 0 l 121 0 l 121 926 z "},"Ӫ":{"ha":725,"x_min":121,"x_max":606,"o":"m 563 486 l 563 683 q 504 824 563 765 q 364 882 446 882 q 224 824 282 882 q 165 683 165 765 l 165 486 l 563 486 m 165 442 l 165 243 q 224 103 165 161 q 364 44 282 44 q 504 103 446 44 q 563 243 563 161 l 563 442 l 165 442 m 535 856 q 606 683 606 783 l 606 243 q 535 72 606 143 q 364 0 464 0 q 193 72 264 0 q 121 243 121 143 l 121 683 q 193 856 121 783 q 364 926 264 926 q 535 856 464 926 m 475 992 l 431 992 l 431 1036 l 475 1036 l 475 992 m 297 992 l 254 992 l 254 1036 l 297 1036 l 297 992 z "},"ӫ":{"ha":725,"x_min":121,"x_max":606,"o":"m 563 486 l 563 683 q 504 824 563 765 q 364 882 446 882 q 224 824 282 882 q 165 683 165 765 l 165 486 l 563 486 m 165 442 l 165 243 q 224 103 165 161 q 364 44 282 44 q 504 103 446 44 q 563 243 563 161 l 563 442 l 165 442 m 535 856 q 606 683 606 783 l 606 243 q 535 72 606 143 q 364 0 464 0 q 193 72 264 0 q 121 243 121 143 l 121 683 q 193 856 121 783 q 364 926 264 926 q 535 856 464 926 m 475 992 l 431 992 l 431 1036 l 475 1036 l 475 992 m 297 992 l 254 992 l 254 1036 l 297 1036 l 297 992 z "},"Ӵ":{"ha":725,"x_min":119,"x_max":606,"o":"m 606 0 l 561 0 l 561 440 l 363 440 q 191 512 263 440 q 119 683 119 583 l 119 926 l 164 926 l 164 683 q 222 543 164 601 q 363 485 281 485 l 561 485 l 561 926 l 606 926 l 606 0 m 297 992 l 254 992 l 254 1036 l 297 1036 l 297 992 m 475 992 l 431 992 l 431 1036 l 475 1036 l 475 992 z "},"ӵ":{"ha":725,"x_min":119,"x_max":606,"o":"m 606 0 l 561 0 l 561 440 l 363 440 q 191 512 263 440 q 119 683 119 583 l 119 926 l 164 926 l 164 683 q 222 543 164 601 q 363 485 281 485 l 561 485 l 561 926 l 606 926 l 606 0 m 297 992 l 254 992 l 254 1036 l 297 1036 l 297 992 m 475 992 l 431 992 l 431 1036 l 475 1036 l 475 992 z "},"Ӹ":{"ha":725,"x_min":121,"x_max":606,"o":"m 606 0 l 561 0 l 561 926 l 606 926 l 606 0 m 143 0 l 121 0 l 121 926 l 165 926 l 165 485 q 322 406 260 474 q 385 243 385 338 q 314 71 385 142 q 143 0 243 0 m 165 46 q 291 111 240 56 q 342 243 342 167 q 291 374 342 319 q 165 440 240 429 l 165 46 m 297 992 l 254 992 l 254 1036 l 297 1036 l 297 992 m 475 992 l 431 992 l 431 1036 l 475 1036 l 475 992 z "},"ӹ":{"ha":725,"x_min":121,"x_max":606,"o":"m 606 0 l 561 0 l 561 926 l 606 926 l 606 0 m 143 0 l 121 0 l 121 926 l 165 926 l 165 485 q 322 406 260 474 q 385 243 385 338 q 314 71 385 142 q 143 0 243 0 m 165 46 q 291 111 240 56 q 342 243 342 167 q 291 374 342 319 q 165 440 240 429 l 165 46 m 297 992 l 254 992 l 254 1036 l 297 1036 l 297 992 m 475 992 l 431 992 l 431 1036 l 475 1036 l 475 992 z "},"Ͻ":{"ha":725,"x_min":121,"x_max":606,"o":"m 533 72 q 363 0 463 0 q 192 72 263 0 q 121 243 121 143 l 164 243 q 222 103 164 161 q 363 44 281 44 q 503 103 444 44 q 561 243 561 161 l 561 683 q 503 824 561 765 q 363 882 444 882 q 222 824 281 882 q 164 683 164 765 l 121 683 q 192 856 121 783 q 363 926 263 926 q 533 856 463 926 q 606 683 606 783 l 606 243 q 533 72 606 143 z "},"ͻ":{"ha":725,"x_min":121,"x_max":606,"o":"m 533 72 q 363 0 463 0 q 192 72 263 0 q 121 243 121 143 l 164 243 q 222 103 164 161 q 363 44 281 44 q 503 103 444 44 q 561 243 561 161 l 561 683 q 503 824 561 765 q 363 882 444 882 q 222 824 281 882 q 164 683 164 765 l 121 683 q 192 856 121 783 q 363 926 263 926 q 533 856 463 926 q 606 683 606 783 l 606 243 q 533 72 606 143 z "},"Ͼ":{"ha":725,"x_min":121,"x_max":606,"o":"m 364 0 q 193 72 264 0 q 121 243 121 143 l 121 683 q 193 856 121 783 q 364 926 264 926 q 535 856 464 926 q 606 683 606 783 l 563 683 q 504 824 563 765 q 364 882 446 882 q 224 824 282 882 q 165 683 165 765 l 165 243 q 224 103 165 161 q 364 44 282 44 q 504 103 446 44 q 563 243 563 161 l 606 243 q 535 72 606 143 q 364 0 464 0 m 342 486 l 386 486 l 386 442 l 342 442 l 342 486 z "},"ͼ":{"ha":725,"x_min":121,"x_max":606,"o":"m 364 0 q 193 72 264 0 q 121 243 121 143 l 121 683 q 193 856 121 783 q 364 926 264 926 q 535 856 464 926 q 606 683 606 783 l 563 683 q 504 824 563 765 q 364 882 446 882 q 224 824 282 882 q 165 683 165 765 l 165 243 q 224 103 165 161 q 364 44 282 44 q 504 103 446 44 q 563 243 563 161 l 606 243 q 535 72 606 143 q 364 0 464 0 m 342 486 l 386 486 l 386 442 l 342 442 l 342 486 z "},"Ͽ":{"ha":725,"x_min":121,"x_max":606,"o":"m 533 72 q 363 0 463 0 q 192 72 263 0 q 121 243 121 143 l 164 243 q 222 103 164 161 q 363 44 281 44 q 503 103 444 44 q 561 243 561 161 l 561 683 q 503 824 561 765 q 363 882 444 882 q 222 824 281 882 q 164 683 164 765 l 121 683 q 192 856 121 783 q 363 926 263 926 q 533 856 463 926 q 606 683 606 783 l 606 243 q 533 72 606 143 m 342 486 l 386 486 l 386 442 l 342 442 l 342 486 z "},"ͽ":{"ha":725,"x_min":121,"x_max":606,"o":"m 533 72 q 363 0 463 0 q 192 72 263 0 q 121 243 121 143 l 164 243 q 222 103 164 161 q 363 44 281 44 q 503 103 444 44 q 561 243 561 161 l 561 683 q 503 824 561 765 q 363 882 444 882 q 222 824 281 882 q 164 683 164 765 l 121 683 q 192 856 121 783 q 363 926 263 926 q 533 856 463 926 q 606 683 606 783 l 606 243 q 533 72 606 143 m 342 486 l 386 486 l 386 442 l 342 442 l 342 486 z "},"Ạ":{"ha":725,"x_min":121,"x_max":607,"o":"m 364 926 q 536 856 465 926 q 607 683 607 785 l 607 0 l 561 0 l 561 442 l 165 442 l 165 0 l 121 0 l 121 683 q 192 856 121 785 q 364 926 263 926 m 561 683 q 504 824 561 765 q 364 882 446 882 q 224 824 282 882 q 165 683 165 765 l 165 485 l 561 485 l 561 683 m 386 -65 l 386 -110 l 342 -110 l 342 -65 l 386 -65 z "},"ạ":{"ha":725,"x_min":121,"x_max":607,"o":"m 364 926 q 536 856 465 926 q 607 683 607 785 l 607 0 l 561 0 l 561 442 l 165 442 l 165 0 l 121 0 l 121 683 q 192 856 121 785 q 364 926 263 926 m 561 683 q 504 824 561 765 q 364 882 446 882 q 224 824 282 882 q 165 683 165 765 l 165 485 l 561 485 l 561 683 m 386 -65 l 386 -110 l 342 -110 l 342 -65 l 386 -65 z "},"Ẹ":{"ha":725,"x_min":121,"x_max":606,"o":"m 165 882 l 165 485 l 606 485 l 606 440 l 165 440 l 165 44 l 606 44 l 606 0 l 121 0 l 121 926 l 606 926 l 606 882 l 165 882 m 386 -65 l 386 -110 l 342 -110 l 342 -65 l 386 -65 z "},"ẹ":{"ha":725,"x_min":121,"x_max":606,"o":"m 165 882 l 165 485 l 606 485 l 606 440 l 165 440 l 165 44 l 606 44 l 606 0 l 121 0 l 121 926 l 606 926 l 606 882 l 165 882 m 386 -65 l 386 -110 l 342 -110 l 342 -65 l 386 -65 z "},"Ị":{"ha":725,"x_min":121,"x_max":606,"o":"m 386 882 l 386 44 l 606 44 l 606 0 l 121 0 l 121 44 l 342 44 l 342 882 l 121 882 l 121 926 l 606 926 l 606 882 l 386 882 m 386 -65 l 386 -110 l 342 -110 l 342 -65 l 386 -65 z "},"ị":{"ha":725,"x_min":121,"x_max":606,"o":"m 386 882 l 386 44 l 606 44 l 606 0 l 121 0 l 121 44 l 342 44 l 342 882 l 121 882 l 121 926 l 606 926 l 606 882 l 386 882 m 386 -65 l 386 -110 l 342 -110 l 342 -65 l 386 -65 z "},"Ọ":{"ha":725,"x_min":121,"x_max":606,"o":"m 364 926 q 535 856 464 926 q 606 683 606 783 l 606 243 q 535 72 606 143 q 364 0 464 0 q 193 72 264 0 q 121 243 121 143 l 121 683 q 193 856 121 783 q 364 926 264 926 m 563 683 q 504 824 563 765 q 364 882 446 882 q 224 824 282 882 q 165 683 165 765 l 165 243 q 224 103 165 161 q 364 44 282 44 q 504 103 446 44 q 563 243 563 161 l 563 683 m 386 -65 l 386 -110 l 342 -110 l 342 -65 l 386 -65 z "},"ọ":{"ha":725,"x_min":121,"x_max":606,"o":"m 364 926 q 535 856 464 926 q 606 683 606 783 l 606 243 q 535 72 606 143 q 364 0 464 0 q 193 72 264 0 q 121 243 121 143 l 121 683 q 193 856 121 783 q 364 926 264 926 m 563 683 q 504 824 563 765 q 364 882 446 882 q 224 824 282 882 q 165 683 165 765 l 165 243 q 224 103 165 161 q 364 44 282 44 q 504 103 446 44 q 563 243 563 161 l 563 683 m 386 -65 l 386 -110 l 342 -110 l 342 -65 l 386 -65 z "},"Ụ":{"ha":725,"x_min":121,"x_max":606,"o":"m 606 926 l 606 243 q 535 72 606 143 q 364 0 464 0 q 193 72 264 0 q 121 243 121 143 l 121 926 l 165 926 l 165 243 q 224 103 165 161 q 364 44 282 44 q 504 103 446 44 q 561 243 561 161 l 561 926 l 606 926 m 386 -65 l 386 -110 l 342 -110 l 342 -65 l 386 -65 z "},"ụ":{"ha":725,"x_min":121,"x_max":606,"o":"m 606 926 l 606 243 q 535 72 606 143 q 364 0 464 0 q 193 72 264 0 q 121 243 121 143 l 121 926 l 165 926 l 165 243 q 224 103 165 161 q 364 44 282 44 q 504 103 446 44 q 561 243 561 161 l 561 926 l 606 926 m 386 -65 l 386 -110 l 342 -110 l 342 -65 l 386 -65 z "},"Ỵ":{"ha":725,"x_min":121,"x_max":606,"o":"m 606 899 l 385 458 l 385 0 l 340 0 l 340 458 l 121 899 l 156 926 l 363 513 l 569 926 l 606 899 m 386 -65 l 386 -110 l 342 -110 l 342 -65 l 386 -65 z "},"ỵ":{"ha":725,"x_min":121,"x_max":606,"o":"m 606 899 l 385 458 l 385 0 l 340 0 l 340 458 l 121 899 l 156 926 l 363 513 l 569 926 l 606 899 m 386 -65 l 386 -110 l 342 -110 l 342 -65 l 386 -65 z "},"ẞ":{"ha":725,"x_min":121,"x_max":607,"o":"m 364 0 l 364 44 q 504 102 446 44 q 563 242 563 160 q 504 383 563 325 q 364 440 446 440 l 364 485 q 504 543 446 485 q 563 683 563 601 q 504 824 563 765 q 364 882 446 882 l 165 882 l 165 0 l 121 0 l 121 926 l 364 926 q 535 855 464 926 q 607 683 607 783 q 567 551 607 610 q 464 463 528 493 q 567 374 528 433 q 607 242 607 315 q 535 71 607 142 q 364 0 464 0 z "},"…":{"ha":725,"x_min":119,"x_max":606,"o":"m 164 44 l 164 0 l 119 0 l 119 44 l 164 44 m 606 44 l 606 0 l 561 0 l 561 44 l 606 44 m 342 44 l 386 44 l 386 0 l 342 0 l 342 44 z "},"Ľ":{"ha":725,"x_min":121,"x_max":607,"o":"m 563 926 l 607 926 l 607 838 l 563 838 l 563 926 m 121 0 l 121 926 l 165 926 l 165 44 l 606 44 l 606 0 l 121 0 z "},"ľ":{"ha":725,"x_min":121,"x_max":607,"o":"m 563 926 l 607 926 l 607 838 l 563 838 l 563 926 m 121 0 l 121 926 l 165 926 l 165 44 l 606 44 l 606 0 l 121 0 z "},"Җ":{"ha":725,"x_min":121,"x_max":650,"o":"m 606 0 l 561 0 l 561 243 q 511 374 561 319 q 385 439 461 429 l 385 0 l 342 0 l 342 439 q 215 374 265 429 q 165 243 165 319 l 165 0 l 121 0 l 121 243 q 160 376 121 317 q 264 464 199 435 q 160 552 199 493 q 121 685 121 611 l 121 926 l 165 926 l 165 685 q 215 553 165 608 q 342 488 265 499 l 342 926 l 385 926 l 385 488 q 511 553 461 499 q 561 685 561 608 l 561 926 l 606 926 l 606 685 q 566 552 606 611 q 463 464 526 493 q 566 376 526 435 q 606 243 606 317 l 606 44 l 650 44 l 650 -89 l 606 -89 l 606 0 z "},"җ":{"ha":725,"x_min":121,"x_max":650,"o":"m 606 0 l 561 0 l 561 243 q 511 374 561 319 q 385 439 461 429 l 385 0 l 342 0 l 342 439 q 215 374 265 429 q 165 243 165 319 l 165 0 l 121 0 l 121 243 q 160 376 121 317 q 264 464 199 435 q 160 552 199 493 q 121 685 121 611 l 121 926 l 165 926 l 165 685 q 215 553 165 608 q 342 488 265 499 l 342 926 l 385 926 l 385 488 q 511 553 461 499 q 561 685 561 608 l 561 926 l 606 926 l 606 685 q 566 552 606 611 q 463 464 526 493 q 566 376 526 435 q 606 243 606 317 l 606 44 l 650 44 l 650 -89 l 606 -89 l 606 0 z "},"Қ":{"ha":725,"x_min":121,"x_max":606,"o":"m 561 14 l 165 410 l 165 0 l 121 0 l 121 926 l 165 926 l 165 517 l 575 926 l 606 894 l 174 463 l 606 31 l 606 -89 l 561 -89 l 561 14 z "},"қ":{"ha":725,"x_min":121,"x_max":606,"o":"m 561 14 l 165 410 l 165 0 l 121 0 l 121 926 l 165 926 l 165 517 l 575 926 l 606 894 l 174 463 l 606 31 l 606 -89 l 561 -89 l 561 14 z "},"Ң":{"ha":725,"x_min":121,"x_max":650,"o":"m 606 0 l 563 0 l 563 440 l 165 440 l 165 0 l 121 0 l 121 926 l 165 926 l 165 485 l 563 485 l 563 926 l 606 926 l 606 44 l 650 44 l 650 -89 l 606 -89 l 606 0 z "},"ң":{"ha":725,"x_min":121,"x_max":650,"o":"m 606 0 l 563 0 l 563 440 l 165 440 l 165 0 l 121 0 l 121 926 l 165 926 l 165 485 l 563 485 l 563 926 l 606 926 l 606 44 l 650 44 l 650 -89 l 606 -89 l 606 0 z "},"Ҭ":{"ha":725,"x_min":121,"x_max":606,"o":"m 386 0 l 342 0 l 342 882 l 121 882 l 121 926 l 606 926 l 606 882 l 386 882 l 386 44 l 431 44 l 431 -89 l 386 -89 l 386 0 z "},"ҭ":{"ha":725,"x_min":121,"x_max":606,"o":"m 386 0 l 342 0 l 342 882 l 121 882 l 121 926 l 606 926 l 606 882 l 386 882 l 386 44 l 431 44 l 431 -89 l 386 -89 l 386 0 z "},"Ҳ":{"ha":725,"x_min":121,"x_max":606,"o":"m 561 19 l 364 414 l 157 0 l 121 28 l 339 463 l 121 899 l 157 926 l 364 513 l 571 926 l 606 899 l 389 463 l 606 28 l 606 -89 l 561 -89 l 561 19 z "},"ҳ":{"ha":725,"x_min":121,"x_max":606,"o":"m 561 19 l 364 414 l 157 0 l 121 28 l 339 463 l 121 899 l 157 926 l 364 513 l 571 926 l 606 899 l 389 463 l 606 28 l 606 -89 l 561 -89 l 561 19 z "},"Ҷ":{"ha":725,"x_min":119,"x_max":650,"o":"m 606 0 l 561 0 l 561 440 l 363 440 q 191 512 263 440 q 119 683 119 583 l 119 926 l 164 926 l 164 683 q 222 543 164 601 q 363 485 281 485 l 561 485 l 561 926 l 606 926 l 606 44 l 650 44 l 650 -89 l 606 -89 l 606 0 z "},"ҷ":{"ha":725,"x_min":119,"x_max":650,"o":"m 606 0 l 561 0 l 561 440 l 363 440 q 191 512 263 440 q 119 683 119 583 l 119 926 l 164 926 l 164 683 q 222 543 164 601 q 363 485 281 485 l 561 485 l 561 926 l 606 926 l 606 44 l 650 44 l 650 -89 l 606 -89 l 606 0 z "},"Ӌ":{"ha":725,"x_min":119,"x_max":606,"o":"m 561 44 l 561 440 l 363 440 q 191 512 263 440 q 119 683 119 583 l 119 926 l 164 926 l 164 683 q 222 543 164 601 q 363 485 281 485 l 561 485 l 561 926 l 606 926 l 606 0 l 561 0 l 561 -89 l 517 -89 l 517 44 l 561 44 z "},"ӌ":{"ha":725,"x_min":119,"x_max":606,"o":"m 561 44 l 561 440 l 363 440 q 191 512 263 440 q 119 683 119 583 l 119 926 l 164 926 l 164 683 q 222 543 164 601 q 363 485 281 485 l 561 485 l 561 926 l 606 926 l 606 0 l 561 0 l 561 -89 l 517 -89 l 517 44 l 561 44 z "},"Ӷ":{"ha":725,"x_min":121,"x_max":606,"o":"m 164 0 l 121 0 l 121 926 l 606 926 l 606 882 l 164 882 l 164 44 l 208 44 l 208 -89 l 164 -89 l 164 0 z "},"ӷ":{"ha":725,"x_min":121,"x_max":606,"o":"m 164 0 l 121 0 l 121 926 l 606 926 l 606 882 l 164 882 l 164 44 l 208 44 l 208 -89 l 164 -89 l 164 0 z "},"Ұ":{"ha":725,"x_min":121,"x_max":606,"o":"m 328 485 l 121 899 l 156 926 l 363 513 l 569 926 l 606 899 l 399 485 l 606 485 l 606 440 l 385 440 l 385 0 l 340 0 l 340 440 l 121 440 l 121 485 l 328 485 z "},"ұ":{"ha":725,"x_min":121,"x_max":606,"o":"m 328 485 l 121 899 l 156 926 l 363 513 l 569 926 l 606 899 l 399 485 l 606 485 l 606 440 l 385 440 l 385 0 l 340 0 l 340 440 l 121 440 l 121 485 l 328 485 z "},"Ғ":{"ha":725,"x_min":121,"x_max":606,"o":"m 165 882 l 165 485 l 363 485 l 363 440 l 165 440 l 165 0 l 121 0 l 121 926 l 606 926 l 606 882 l 165 882 z "},"ғ":{"ha":725,"x_min":121,"x_max":606,"o":"m 165 882 l 165 485 l 363 485 l 363 440 l 165 440 l 165 0 l 121 0 l 121 926 l 606 926 l 606 882 l 165 882 z "},"Ә":{"ha":725,"x_min":121,"x_max":606,"o":"m 561 486 l 561 683 q 503 824 561 765 q 363 882 444 882 q 222 824 281 882 q 164 683 164 765 l 121 683 q 192 856 121 783 q 363 926 263 926 q 533 856 463 926 q 606 683 606 783 l 606 243 q 533 72 606 143 q 363 0 463 0 q 192 72 263 0 q 121 243 121 143 l 121 486 l 561 486 m 164 243 q 222 103 164 161 q 363 44 281 44 q 503 103 444 44 q 561 243 561 161 l 561 442 l 164 442 l 164 243 z "},"ә":{"ha":725,"x_min":121,"x_max":606,"o":"m 561 486 l 561 683 q 503 824 561 765 q 363 882 444 882 q 222 824 281 882 q 164 683 164 765 l 121 683 q 192 856 121 783 q 363 926 263 926 q 533 856 463 926 q 606 683 606 783 l 606 243 q 533 72 606 143 q 363 0 463 0 q 192 72 263 0 q 121 243 121 143 l 121 486 l 561 486 m 164 243 q 222 103 164 161 q 363 44 281 44 q 503 103 444 44 q 561 243 561 161 l 561 442 l 164 442 l 164 243 z "},"Ə":{"ha":725,"x_min":121,"x_max":606,"o":"m 561 486 l 561 683 q 503 824 561 765 q 363 882 444 882 q 222 824 281 882 q 164 683 164 765 l 121 683 q 192 856 121 783 q 363 926 263 926 q 533 856 463 926 q 606 683 606 783 l 606 243 q 533 72 606 143 q 363 0 463 0 q 192 72 263 0 q 121 243 121 143 l 121 486 l 561 486 m 164 243 q 222 103 164 161 q 363 44 281 44 q 503 103 444 44 q 561 243 561 161 l 561 442 l 164 442 l 164 243 z "},"ə":{"ha":725,"x_min":121,"x_max":606,"o":"m 561 486 l 561 683 q 503 824 561 765 q 363 882 444 882 q 222 824 281 882 q 164 683 164 765 l 121 683 q 192 856 121 783 q 363 926 263 926 q 533 856 463 926 q 606 683 606 783 l 606 243 q 533 72 606 143 q 363 0 463 0 q 192 72 263 0 q 121 243 121 143 l 121 486 l 561 486 m 164 243 q 222 103 164 161 q 363 44 281 44 q 503 103 444 44 q 561 243 561 161 l 561 442 l 164 442 l 164 243 z "},"Ɛ":{"ha":725,"x_min":121,"x_max":606,"o":"m 364 0 q 192 71 263 0 q 121 243 121 142 q 160 375 121 317 q 264 463 200 433 q 160 551 200 493 q 121 683 121 610 q 192 856 121 785 q 364 926 263 926 q 535 856 464 926 q 606 683 606 785 l 561 683 q 503 824 561 765 q 364 882 446 882 q 223 824 281 882 q 165 683 165 765 q 223 543 165 601 q 364 485 281 485 l 364 442 q 223 383 281 442 q 165 243 165 325 q 223 103 165 161 q 364 44 281 44 q 503 103 446 44 q 561 243 561 161 l 606 243 q 535 71 606 142 q 364 0 464 0 z "},"ɛ":{"ha":725,"x_min":121,"x_max":606,"o":"m 364 0 q 192 71 263 0 q 121 243 121 142 q 160 375 121 317 q 264 463 200 433 q 160 551 200 493 q 121 683 121 610 q 192 856 121 785 q 364 926 263 926 q 535 856 464 926 q 606 683 606 785 l 561 683 q 503 824 561 765 q 364 882 446 882 q 223 824 281 882 q 165 683 165 765 q 223 543 165 601 q 364 485 281 485 l 364 442 q 223 383 281 442 q 165 243 165 325 q 223 103 165 161 q 364 44 281 44 q 503 103 446 44 q 561 243 561 161 l 606 243 q 535 71 606 142 q 364 0 464 0 z "},"Ɔ":{"ha":725,"x_min":121,"x_max":606,"o":"m 533 72 q 363 0 463 0 q 192 72 263 0 q 121 243 121 143 l 164 243 q 222 103 164 161 q 363 44 281 44 q 503 103 444 44 q 561 243 561 161 l 561 683 q 503 824 561 765 q 363 882 444 882 q 222 824 281 882 q 164 683 164 765 l 121 683 q 192 856 121 783 q 363 926 263 926 q 533 856 463 926 q 606 683 606 783 l 606 243 q 533 72 606 143 z "},"ɔ":{"ha":725,"x_min":121,"x_max":606,"o":"m 533 72 q 363 0 463 0 q 192 72 263 0 q 121 243 121 143 l 164 243 q 222 103 164 161 q 363 44 281 44 q 503 103 444 44 q 561 243 561 161 l 561 683 q 503 824 561 765 q 363 882 444 882 q 222 824 281 882 q 164 683 164 765 l 121 683 q 192 856 121 783 q 363 926 263 926 q 533 856 463 926 q 606 683 606 783 l 606 243 q 533 72 606 143 z "},"Ɖ":{"ha":725,"x_min":121,"x_max":606,"o":"m 363 0 l 121 0 l 121 926 l 363 926 q 535 856 464 926 q 606 683 606 785 l 606 243 q 535 72 606 143 q 363 0 464 0 m 363 44 q 503 103 446 44 q 561 243 561 161 l 561 683 q 503 824 561 765 q 363 882 446 882 l 165 882 l 165 485 l 363 485 l 363 442 l 165 442 l 165 44 l 363 44 z "},"ɖ":{"ha":725,"x_min":121,"x_max":606,"o":"m 363 0 l 121 0 l 121 926 l 363 926 q 535 856 464 926 q 606 683 606 785 l 606 243 q 535 72 606 143 q 363 0 464 0 m 363 44 q 503 103 446 44 q 561 243 561 161 l 561 683 q 503 824 561 765 q 363 882 446 882 l 165 882 l 165 485 l 363 485 l 363 442 l 165 442 l 165 44 l 363 44 z "},"‘":{"ha":725,"x_min":342,"x_max":386,"o":"m 342 926 l 386 926 l 386 838 l 342 838 l 342 926 z "},"’":{"ha":725,"x_min":342,"x_max":386,"o":"m 342 926 l 386 926 l 386 838 l 342 838 l 342 926 z "},"Ș":{"ha":725,"x_min":122,"x_max":607,"o":"m 364 0 q 193 71 264 0 q 122 242 122 142 l 165 242 q 224 103 165 161 q 364 44 282 44 q 504 103 446 44 q 563 242 563 160 q 504 383 563 324 q 364 442 446 442 q 193 513 264 442 q 122 683 122 582 q 193 856 122 785 q 364 926 264 926 q 536 856 465 926 q 607 683 607 785 l 563 683 q 504 824 563 765 q 364 881 446 881 q 224 824 282 881 q 165 683 165 765 q 224 543 165 601 q 364 485 282 485 q 536 414 465 485 q 607 242 607 343 q 536 71 607 142 q 364 0 465 0 m 386 -65 l 386 -154 l 342 -154 l 342 -65 l 386 -65 z "},"ș":{"ha":725,"x_min":122,"x_max":607,"o":"m 364 0 q 193 71 264 0 q 122 242 122 142 l 165 242 q 224 103 165 161 q 364 44 282 44 q 504 103 446 44 q 563 242 563 160 q 504 383 563 324 q 364 442 446 442 q 193 513 264 442 q 122 683 122 582 q 193 856 122 785 q 364 926 264 926 q 536 856 465 926 q 607 683 607 785 l 563 683 q 504 824 563 765 q 364 881 446 881 q 224 824 282 881 q 165 683 165 765 q 224 543 165 601 q 364 485 282 485 q 536 414 465 485 q 607 242 607 343 q 536 71 607 142 q 364 0 465 0 m 386 -65 l 386 -154 l 342 -154 l 342 -65 l 386 -65 z "},"Ț":{"ha":725,"x_min":121,"x_max":606,"o":"m 606 926 l 606 882 l 386 882 l 386 0 l 342 0 l 342 882 l 121 882 l 121 926 l 606 926 m 386 -65 l 386 -154 l 342 -154 l 342 -65 l 386 -65 z "},"ț":{"ha":725,"x_min":121,"x_max":606,"o":"m 606 926 l 606 882 l 386 882 l 386 0 l 342 0 l 342 882 l 121 882 l 121 926 l 606 926 m 386 -65 l 386 -154 l 342 -154 l 342 -65 l 386 -65 z "},"Ђ":{"ha":725,"x_min":121,"x_max":607,"o":"m 364 0 l 364 43 q 504 101 446 43 q 563 242 563 160 q 504 383 563 325 q 364 440 446 440 l 275 440 l 275 0 l 231 0 l 231 882 l 121 882 l 121 926 l 386 926 l 386 882 l 275 882 l 275 485 l 364 485 q 535 414 464 485 q 607 242 607 343 q 535 71 607 142 q 364 0 464 0 z "},"ђ":{"ha":725,"x_min":121,"x_max":607,"o":"m 364 0 l 364 43 q 504 101 446 43 q 563 242 563 160 q 504 383 563 325 q 364 440 446 440 l 275 440 l 275 0 l 231 0 l 231 882 l 121 882 l 121 926 l 386 926 l 386 882 l 275 882 l 275 485 l 364 485 q 535 414 464 485 q 607 242 607 343 q 535 71 607 142 q 364 0 464 0 z "},"Љ":{"ha":725,"x_min":121,"x_max":607,"o":"m 386 0 l 342 0 l 342 882 l 165 882 l 165 0 l 121 0 l 121 926 l 386 926 l 386 482 q 544 405 481 472 q 607 242 607 338 q 544 80 607 147 q 386 1 481 13 l 386 0 m 386 46 q 513 110 463 56 q 563 242 563 165 q 513 373 563 318 q 386 439 463 428 l 386 46 z "},"љ":{"ha":725,"x_min":121,"x_max":607,"o":"m 386 0 l 342 0 l 342 882 l 165 882 l 165 0 l 121 0 l 121 926 l 386 926 l 386 482 q 544 405 481 472 q 607 242 607 338 q 544 80 607 147 q 386 1 481 13 l 386 0 m 386 46 q 513 110 463 56 q 563 242 563 165 q 513 373 563 318 q 386 439 463 428 l 386 46 z "},"Њ":{"ha":725,"x_min":121,"x_max":607,"o":"m 386 0 l 343 0 l 343 442 l 165 442 l 165 0 l 121 0 l 121 926 l 165 926 l 165 486 l 343 486 l 343 926 l 386 926 l 386 486 l 389 486 l 389 483 q 544 405 482 472 q 607 243 607 338 q 544 81 607 149 q 386 3 482 14 l 386 0 m 386 47 q 513 112 463 57 q 564 243 564 167 q 513 374 564 319 q 386 439 463 429 l 386 47 z "},"њ":{"ha":725,"x_min":121,"x_max":607,"o":"m 386 0 l 343 0 l 343 442 l 165 442 l 165 0 l 121 0 l 121 926 l 165 926 l 165 486 l 343 486 l 343 926 l 386 926 l 386 486 l 389 486 l 389 483 q 544 405 482 472 q 607 243 607 338 q 544 81 607 149 q 386 3 482 14 l 386 0 m 386 47 q 513 112 463 57 q 564 243 564 167 q 513 374 564 319 q 386 439 463 429 l 386 47 z "},"Ћ":{"ha":725,"x_min":121,"x_max":607,"o":"m 607 0 l 563 0 l 563 242 q 504 382 563 324 q 364 440 446 440 l 276 440 l 276 0 l 232 0 l 232 882 l 121 882 l 121 926 l 386 926 l 386 882 l 276 882 l 276 485 l 364 485 q 536 414 465 485 q 607 242 607 343 l 607 0 z "},"ћ":{"ha":725,"x_min":121,"x_max":607,"o":"m 607 0 l 563 0 l 563 242 q 504 382 563 324 q 364 440 446 440 l 276 440 l 276 0 l 232 0 l 232 882 l 121 882 l 121 926 l 386 926 l 386 882 l 276 882 l 276 485 l 364 485 q 536 414 465 485 q 607 242 607 343 l 607 0 z "},"‒":{"ha":725,"x_min":121,"x_max":606,"o":"m 121 485 l 606 485 l 606 440 l 121 440 l 121 485 z "},"–":{"ha":725,"x_min":121,"x_max":606,"o":"m 121 485 l 606 485 l 606 440 l 121 440 l 121 485 z "},"—":{"ha":725,"x_min":121,"x_max":606,"o":"m 121 485 l 606 485 l 606 440 l 121 440 l 121 485 z "},"―":{"ha":725,"x_min":121,"x_max":606,"o":"m 121 485 l 606 485 l 606 440 l 121 440 l 121 485 z "},"“":{"ha":725,"x_min":297,"x_max":429,"o":"m 297 926 l 342 926 l 342 838 l 297 838 l 297 926 m 386 926 l 429 926 l 429 838 l 386 838 l 386 926 z "},"”":{"ha":725,"x_min":297,"x_max":429,"o":"m 297 926 l 342 926 l 342 838 l 297 838 l 297 926 m 386 926 l 429 926 l 429 838 l 386 838 l 386 926 z "},"−":{"ha":725,"x_min":121,"x_max":606,"o":"m 121 485 l 606 485 l 606 440 l 121 440 l 121 485 z "},"≠":{"ha":725,"x_min":121,"x_max":606,"o":"m 383 551 l 121 551 l 121 596 l 406 596 l 564 914 l 604 894 l 454 596 l 606 596 l 606 551 l 432 551 l 344 375 l 606 375 l 606 331 l 322 331 l 163 13 l 124 32 l 272 331 l 121 331 l 121 375 l 294 375 l 383 551 z "}}}
